<?xml version="1.0" encoding="UTF-8"?>
<svg width="553px" height="367px" viewBox="0 0 553 367" version="1.1" xmlns="http://www.w3.org/2000/svg" xmlns:xlink="http://www.w3.org/1999/xlink">
    <!-- Generator: Sketch 52.5 (67469) - http://www.bohemiancoding.com/sketch -->
    <title>capital</title>
    <desc>Created with Sketch.</desc>
    <defs>
        <linearGradient x1="49.9959763%" y1="100.000857%" x2="49.9959763%" y2="0.0159995781%" id="linearGradient-1">
            <stop stop-color="#808080" stop-opacity="0.25" offset="0%"></stop>
            <stop stop-color="#808080" stop-opacity="0.12" offset="54%"></stop>
            <stop stop-color="#808080" stop-opacity="0.1" offset="100%"></stop>
        </linearGradient>
    </defs>
    <g id="capital" stroke="none" stroke-width="1" fill="none" fill-rule="evenodd">
        <g id="undraw_savings_hjfl" transform="translate(21.000000, 0.000000)">
            <ellipse id="Oval" fill="#38D39F" opacity="0.1" cx="255.483188" cy="335.86213" rx="255.483188" ry="31.055604"></ellipse>
            <path d="M437.150473,351.086002 C437.150473,351.086002 450.473076,334.129963 449.394471,317.306463 C448.898159,310.25326 450.702263,303.229282 454.536127,297.288281 C456.38175,294.484352 458.477435,291.853273 460.797522,289.42726" id="Path" stroke="#535461" stroke-width="2"></path>
            <path d="M460.185093,278.824022 C459.243599,281.177758 460.783811,289.706052 460.783811,289.706052 C460.783811,289.706052 467.771893,284.582677 468.708817,282.224371 C469.316231,280.701755 469.065198,278.970747 468.05028,277.683403 C467.035363,276.396059 465.41075,275.747957 463.788418,275.983229 C462.166087,276.218502 460.792507,277.301406 460.185093,278.824022 Z" id="Path" fill="#38D39F"></path>
            <path d="M447.931955,289.057061 C448.420984,291.543337 454.330461,297.864147 454.330461,297.864147 C454.330461,297.864147 457.410884,289.765467 456.921856,287.27462 C456.429648,284.787079 454.014085,283.169542 451.526544,283.66175 C449.039003,284.153957 447.421466,286.56952 447.913674,289.057061 L447.931955,289.057061 Z" id="Path" fill="#38D39F"></path>
            <path d="M439.344247,311.465542 C441.026139,313.366812 449.335056,315.830237 449.335056,315.830237 C449.335056,315.830237 447.904533,307.283661 446.22264,305.382391 C444.542824,303.482975 441.641284,303.304954 439.741868,304.98477 C437.842452,306.664585 437.664431,309.566126 439.344247,311.465542 Z" id="Path" fill="#38D39F"></path>
            <path d="M436.670585,329.884097 C438.005131,332.041308 445.774745,335.875841 445.774745,335.875841 C445.774745,335.875841 445.811308,327.192154 444.476762,325.053225 C443.142754,322.897609 440.313854,322.231565 438.158238,323.565573 C436.002622,324.899581 435.336577,327.728481 436.670585,329.884097 Z" id="Path" fill="#38D39F"></path>
            <path d="M463.119265,301.895205 C460.77467,302.859552 452.228095,301.438169 452.228095,301.438169 C452.228095,301.438169 457.255492,294.390672 459.618369,293.426326 C461.962033,292.45958 464.645651,293.575794 465.612397,295.919458 C466.579143,298.263123 465.46293,300.946741 463.119265,301.913487 L463.119265,301.895205 Z" id="Path" fill="#38D39F"></path>
            <path d="M459.714346,323.394184 C457.191507,323.618132 449.467597,319.687621 449.467597,319.687621 C449.467597,319.687621 456.387123,314.472839 458.914533,314.248892 C461.438674,314.028029 463.663938,315.895206 463.884801,318.419346 C464.105663,320.943487 462.238487,323.168752 459.714346,323.389614 L459.714346,323.394184 Z" id="Path" fill="#38D39F"></path>
            <path d="M453.539788,343.84198 C451.085504,344.486401 442.80858,341.917858 442.80858,341.917858 C442.80858,341.917858 448.75005,335.606189 451.204334,334.961768 C453.656536,334.31685 456.167249,335.781944 456.812167,338.234147 C457.457085,340.68635 455.991991,343.197062 453.539788,343.84198 Z" id="Path" fill="#38D39F"></path>
            <path d="M460.185093,278.824022 C459.243599,281.177758 460.783811,289.706052 460.783811,289.706052 C460.783811,289.706052 467.771893,284.582677 468.708817,282.224371 C469.316231,280.701755 469.065198,278.970747 468.05028,277.683403 C467.035363,276.396059 465.41075,275.747957 463.788418,275.983229 C462.166087,276.218502 460.792507,277.301406 460.185093,278.824022 Z" id="Path" fill="#000000" opacity="0.25"></path>
            <path d="M447.931955,289.057061 C448.420984,291.543337 454.330461,297.864147 454.330461,297.864147 C454.330461,297.864147 457.410884,289.765467 456.921856,287.27462 C456.429648,284.787079 454.014085,283.169542 451.526544,283.66175 C449.039003,284.153957 447.421466,286.56952 447.913674,289.057061 L447.931955,289.057061 Z" id="Path" fill="#000000" opacity="0.25"></path>
            <path d="M439.344247,311.465542 C441.026139,313.366812 449.335056,315.830237 449.335056,315.830237 C449.335056,315.830237 447.904533,307.283661 446.22264,305.382391 C444.542824,303.482975 441.641284,303.304954 439.741868,304.98477 C437.842452,306.664585 437.664431,309.566126 439.344247,311.465542 Z" id="Path" fill="#000000" opacity="0.25"></path>
            <path d="M436.670585,329.884097 C438.005131,332.041308 445.774745,335.875841 445.774745,335.875841 C445.774745,335.875841 445.811308,327.192154 444.476762,325.053225 C443.142754,322.897609 440.313854,322.231565 438.158238,323.565573 C436.002622,324.899581 435.336577,327.728481 436.670585,329.884097 Z" id="Path" fill="#000000" opacity="0.25"></path>
            <path d="M463.119265,301.895205 C460.77467,302.859552 452.228095,301.438169 452.228095,301.438169 C452.228095,301.438169 457.255492,294.390672 459.618369,293.426326 C461.962033,292.45958 464.645651,293.575794 465.612397,295.919458 C466.579143,298.263123 465.46293,300.946741 463.119265,301.913487 L463.119265,301.895205 Z" id="Path" fill="#000000" opacity="0.25"></path>
            <path d="M459.714346,323.394184 C457.191507,323.618132 449.467597,319.687621 449.467597,319.687621 C449.467597,319.687621 456.387123,314.472839 458.914533,314.248892 C461.438674,314.028029 463.663938,315.895206 463.884801,318.419346 C464.105663,320.943487 462.238487,323.168752 459.714346,323.389614 L459.714346,323.394184 Z" id="Path" fill="#000000" opacity="0.25"></path>
            <path d="M453.539788,343.84198 C451.085504,344.486401 442.80858,341.917858 442.80858,341.917858 C442.80858,341.917858 448.75005,335.606189 451.204334,334.961768 C453.656536,334.31685 456.167249,335.781944 456.812167,338.234147 C457.457085,340.68635 455.991991,343.197062 453.539788,343.84198 Z" id="Path" fill="#000000" opacity="0.25"></path>
            <path d="M437.260162,350.377597 C437.260162,350.377597 456.313998,340.277098 462.145778,324.463649 C464.546191,317.81588 469.036104,312.124915 474.94279,308.243437 C477.765412,306.425283 480.748603,304.869434 483.854994,303.59538" id="Path" stroke="#535461" stroke-width="2"></path>
            <path d="M487.60269,293.650274 C485.774545,295.423574 483.740735,303.842179 483.740735,303.842179 C483.740735,303.842179 492.205044,301.986613 494.019477,300.217883 C495.192667,299.0749 495.666966,297.392851 495.263709,295.805346 C494.860452,294.217842 493.640903,292.966063 492.064456,292.521542 C490.488008,292.077021 488.794162,292.507291 487.620971,293.650274 L487.60269,293.650274 Z" id="Path" fill="#38D39F"></path>
            <path d="M472.255417,298.037821 C471.697833,300.510386 474.540598,308.695903 474.540598,308.695903 C474.540598,308.695903 480.63746,302.535056 481.195044,300.062491 C481.754141,297.590095 480.203106,295.132584 477.73071,294.573487 C475.258314,294.01439 472.800803,295.565425 472.241706,298.037821 L472.255417,298.037821 Z" id="Path" fill="#38D39F"></path>
            <path d="M455.3268,315.048705 C456.09005,317.466426 462.689651,323.08797 462.689651,323.08797 C462.689651,323.08797 464.842291,314.692217 464.06076,312.274496 C463.565195,310.711058 462.27319,309.530763 460.671431,309.178216 C459.069672,308.825669 457.401505,309.35443 456.29531,310.565321 C455.189116,311.776211 454.812953,313.485267 455.308518,315.048705 L455.3268,315.048705 Z" id="Path" fill="#38D39F"></path>
            <path d="M445.413686,330.80274 C445.761034,333.316438 451.314022,339.970884 451.314022,339.970884 C451.314022,339.970884 454.856052,332.059589 454.513275,329.550461 C454.289577,327.925792 453.216121,326.543878 451.697268,325.925272 C450.178415,325.306666 448.444914,325.545349 447.149759,326.551411 C445.854603,327.557474 445.194558,329.178071 445.418257,330.80274 L445.413686,330.80274 Z" id="Path" fill="#38D39F"></path>
            <path d="M480.939103,315.930785 C478.402553,315.8668 471.172242,311.086202 471.172242,311.086202 C471.172242,311.086202 478.644782,306.689514 481.176762,306.753499 C483.710999,306.819127 485.712203,308.926734 485.646575,311.460971 C485.580948,313.995209 483.473341,315.996412 480.939103,315.930785 Z" id="Path" fill="#38D39F"></path>
            <path d="M469.115579,334.207659 C466.716139,333.389564 461.245417,326.666563 461.245417,326.666563 C461.245417,326.666563 469.686874,324.701308 472.086314,325.523973 C473.637505,326.054643 474.787756,327.372554 475.103777,328.98126 C475.419798,330.589966 474.853579,332.245068 473.618409,333.323103 C472.38324,334.401139 470.66677,334.73833 469.115579,334.207659 Z" id="Path" fill="#38D39F"></path>
            <path d="M455.180548,350.395878 C452.68056,349.993686 446.154085,344.289875 446.154085,344.289875 C446.154085,344.289875 454.143076,340.93066 456.665915,341.332852 C459.168601,341.736714 460.870033,344.092937 460.466171,346.595623 C460.062308,349.098308 457.706085,350.79974 455.2034,350.395878 L455.180548,350.395878 Z" id="Path" fill="#38D39F"></path>
            <path d="M291.19599,43.4549938 C265.949315,42.5774844 241.904645,34.4285305 218.947721,25.5117559 C195.990797,16.5949813 173.24411,6.71386052 148.600722,2.01552927 C132.75528,-1.0237609 114.629228,-1.45337484 101.859639,7.04292653 C89.5790785,15.1964508 85.6028643,29.309726 83.4685056,42.4083811 C81.8597385,52.2620797 80.9136737,62.6322291 85.2966501,71.8552179 C88.3542217,78.2537235 93.7792403,83.6467497 97.5315068,89.7801743 C110.584458,111.123761 101.356899,137.444471 87.2116314,158.289888 C80.575467,168.06589 72.8789788,177.389427 67.755604,187.80071 C62.6322291,198.211993 60.2693524,210.131494 64.7483064,220.748443 C69.1906974,231.260274 79.7710834,239.176139 91.2335492,244.733699 C114.514969,256.027061 141.964558,259.258306 168.705741,261.086451 C227.928481,265.140361 287.466575,263.371631 346.844707,261.625753 C368.823574,260.976762 390.893848,260.31863 412.511656,256.922852 C424.517995,255.035293 436.912814,252.037136 445.623923,244.806824 C456.688767,235.629539 459.430984,220.085741 452.022428,208.577572 C439.586476,189.272366 405.203649,184.478057 396.510822,163.76061 C391.730224,152.357559 396.643362,139.656526 403.594882,129.08071 C418.50797,106.388867 443.507846,86.484944 444.82868,60.5527148 C445.742752,42.7283064 433.713562,24.9038979 415.121333,16.4761519 C395.642453,7.6462142 368.631619,8.75681196 354.262403,23.3773973 C339.490996,38.4367372 313.485641,44.2273848 291.19599,43.4549938 Z" id="Path" fill="#38D39F" opacity="0.1"></path>
            <path d="M271.022416,144.665641 L259.655928,144.665641 C259.663376,143.78885 259.718301,142.913105 259.820461,142.042254 C260.176949,138.943549 261.273836,133.916152 264.674184,131.557846 C267.850585,129.354932 271.986762,132.677584 270.364284,136.192192 L270.323151,136.288169 C269.715293,137.55873 269.697011,139.140075 269.898107,140.588879 C270.111452,141.987243 270.488824,143.355597 271.022416,144.665641 Z" id="Path" fill="#38D39F"></path>
            <path d="M271.022416,144.665641 L259.655928,144.665641 C259.663376,143.78885 259.718301,142.913105 259.820461,142.042254 C263.02834,140.839566 266.45811,140.343809 269.875255,140.588879 C270.095954,141.988192 270.481003,143.356574 271.022416,144.665641 Z" id="Path" fill="#000000" opacity="0.1"></path>
            <path d="M278.394408,156.699402 C275.446526,159.098842 271.32406,159.135405 267.105616,158.107073 C258.467634,155.995567 249.450311,149.386824 249.450311,149.386824 C250.064246,148.705875 250.723909,148.06759 251.424707,147.476413 C254.980448,144.423412 263.129402,139.025816 274.038854,141.708618 C276.706868,142.321302 279.057003,143.892396 280.643026,146.123587 C282.448319,148.765255 283.389813,152.636351 278.394408,156.699402 Z" id="Path" fill="#38D39F"></path>
            <path d="M274.920934,151.886812 C274.920934,151.886812 268.348755,146.28812 259.294869,153.714956" id="Path" fill="#000000" opacity="0.1"></path>
            <path d="M90.1000996,199.052939 C90.1000996,199.052939 68.9210461,182.755031 67.8561519,197.531009 C66.7912578,212.306986 72.1202989,226.173462 76.69066,227.389178 C81.2610212,228.604894 90.1000996,199.052939 90.1000996,199.052939 Z" id="Path" fill="#38D39F"></path>
            <path d="M90.1000996,199.052939 C90.1000996,199.052939 68.9210461,182.755031 67.8561519,197.531009 C66.7912578,212.306986 72.1202989,226.173462 76.69066,227.389178 C81.2610212,228.604894 90.1000996,199.052939 90.1000996,199.052939 Z" id="Path" fill="#000000" opacity="0.2"></path>
            <path d="M76.2336239,204.235729 C76.2336239,204.235729 76.7317933,217.832553 80.9593773,215.661631 C85.1869614,213.49071 78.9758406,204.843587 76.2336239,204.235729 Z" id="Path" fill="#000000" opacity="0.1"></path>
            <path d="M142.138232,314.925305 C141.640099,317.019189 140.871938,319.039452 139.853051,320.93533 C139.59254,321.428929 139.309178,321.936239 138.998394,322.45269 C134.01213,330.743325 122.485679,334.184807 122.485679,332.356663 C122.485679,330.528518 121.347659,325.802765 118.45005,327.173873 C115.552441,328.544981 111.137472,328.243337 111.137472,328.243337 C103.162192,327.635479 104.510448,319.774458 107.152117,313.115442 C108.030697,310.926562 109.034797,308.790179 110.159415,306.716936 C111.155753,304.888792 111.900722,303.691357 111.900722,303.691357 L142.37132,308.567933 C142.37132,308.567933 143.052304,310.971943 142.138232,314.925305 Z" id="Path" fill="#38D39F"></path>
            <path d="M267.105616,158.107073 C258.467634,155.995567 249.450311,149.386824 249.450311,149.386824 C250.064246,148.705875 250.723909,148.06759 251.424707,147.476413 C252.740971,148.171108 254.063329,148.909983 255.391781,149.693039 C259.556242,152.117034 263.478789,154.934595 267.105616,158.107073 Z" id="Path" fill="#000000" opacity="0.1"></path>
            <path d="M142.138232,314.925305 C133.870448,314.184907 121.896102,312.151096 110.145704,306.739788 C111.142042,304.911644 111.887011,303.714209 111.887011,303.714209 L142.357609,308.590785 C142.357609,308.590785 143.052304,310.971943 142.138232,314.925305 Z" id="Path" fill="#000000" opacity="0.1"></path>
            <path d="M270.473973,275.37797 C270.473973,275.37797 269.925529,285.144832 264.413674,296.182254 C260.169506,304.862855 253.622797,312.211105 245.487808,317.425293 C245.487808,317.425293 240.615803,321.387796 240.309589,310.418929 C240.309589,310.418929 238.17523,308.133748 223.550075,318.119988 C223.550075,318.119988 214.724707,323.513014 217.151569,301.013126 C217.151569,301.013126 217.151569,300.985704 217.151569,300.971993 C217.151569,300.958281 216.932192,301.113674 216.53,301.355903 L216.502578,301.355903 C215.460535,301.995753 213.248481,303.307447 210.615953,304.628281 C205.794222,307.050573 199.546538,309.513998 196.447833,307.960075 C195.736206,313.654848 193.979154,319.169266 191.265044,324.22599 C188.193761,329.815542 183.349178,335.281694 175.762379,337.749689 C171.861817,339.000391 167.589357,337.958759 164.702105,335.053176 L163.833736,334.184807 C163.833736,334.184807 157.129016,338.755168 153.778941,337.228667 C150.428867,335.702167 147.68208,331.44259 152.252441,323.517584 C152.252441,323.517584 152.49467,322.859452 152.791743,321.895106 C153.536712,319.449963 154.619888,315.039564 152.864869,314.376862 C152.864869,314.376862 81.8688792,318.033151 72.4265131,254.962167 C62.9841469,191.891183 125.442702,168.737733 143.111719,171.173736 C143.111719,171.173736 190.035616,112.065255 254.934745,150.150075 C319.833873,188.234894 270.473973,275.37797 270.473973,275.37797 Z" id="Path" fill="#38D39F"></path>
            <path d="M143.111719,171.173725 C143.111719,171.173725 220.45137,170.872092 215.145181,271.113823" id="Path" stroke="#000000" opacity="0.1"></path>
            <path d="M139.853051,320.93533 C139.59254,321.428929 139.309178,321.936239 138.998394,322.45269 C134.01213,330.743325 122.485679,334.184807 122.485679,332.356663 C122.485679,330.528518 121.347659,325.802765 118.45005,327.173873 C115.552441,328.544981 111.137472,328.243337 111.137472,328.243337 C103.162192,327.635479 104.510448,319.774458 107.152117,313.115442 C114.629228,316.867709 128.152927,322.45726 139.853051,320.93533 Z" id="Path" fill="#000000" opacity="0.2"></path>
            <path d="M191.265044,324.22599 C188.193761,329.815542 183.349178,335.281694 175.762379,337.749689 C171.861817,339.000391 167.589357,337.958759 164.702105,335.053176 L163.833736,334.184807 C163.833736,334.184807 157.129016,338.755168 153.778941,337.228667 C150.428867,335.702167 147.68208,331.44259 152.252441,323.517584 C152.252441,323.517584 152.49467,322.859452 152.791743,321.895106 C158.765205,324.002042 174.587796,328.485567 191.265044,324.22599 Z" id="Path" fill="#000000" opacity="0.2"></path>
            <path d="M217.151569,300.971993 C244.724558,286.653051 249.450311,275.227148 249.450311,275.227148" id="Path" fill="#000000" opacity="0.1"></path>
            <path d="M264.413674,296.182254 C260.169506,304.862855 253.622797,312.211105 245.487808,317.425293 C245.487808,317.425293 240.615803,321.387796 240.309589,310.418929 C240.309589,310.418929 238.17523,308.133748 223.550075,318.119988 C223.550075,318.119988 214.724707,323.513014 217.151569,301.013126 L224.464147,296.959215 C240.222752,305.720598 256.054483,300.377846 264.413674,296.182254 Z" id="Path" fill="#000000" opacity="0.2"></path>
            <path d="M151.342939,180.012814 C151.342939,180.012814 166.882167,156.246936 178.609714,163.710336 C190.33726,171.173736 176.479925,199.052939 176.479925,199.052939 C176.479925,199.052939 153.472727,198.595903 151.342939,180.012814 Z" id="Path" fill="#38D39F"></path>
            <path d="M151.342939,180.012814 C151.342939,180.012814 166.882167,156.246936 178.609714,163.710336 C190.33726,171.173736 176.479925,199.052939 176.479925,199.052939 C176.479925,199.052939 153.472727,198.595903 151.342939,180.012814 Z" id="Path" fill="#000000" opacity="0.2"></path>
            <path d="M176.630747,173.458917 C176.630747,173.458917 156.214944,183.362889 162.462628,189.153537 C168.710311,194.944184 176.630747,173.458917 176.630747,173.458917 Z" id="Path" fill="#000000" opacity="0.1"></path>
            <path d="M230.711831,146.644608 C225.496598,147.080942 220.332928,147.998928 215.286862,149.386824 L215.145181,149.427958 C207.997136,151.416065 199.880174,154.761569 194.299763,160.34198 C194.299763,160.34198 181.35193,154.857547 177.846463,155.771619 C177.846463,155.771619 188.358294,142.99746 216.625978,142.672964 L216.694533,142.672964 C216.694533,142.672964 224.007111,143.294533 230.711831,146.644608 Z" id="Path"></path>
            <ellipse id="Oval" fill="#000000" opacity="0.1" transform="translate(122.109900, 246.891796) rotate(-13.000000) translate(-122.109900, -246.891796) " cx="122.1099" cy="246.891796" rx="28.5144832" ry="23.615056"></ellipse>
            <ellipse id="Oval" fill="#38D39F" transform="translate(122.109945, 245.978300) rotate(-13.000000) translate(-122.109945, -245.978300) " cx="122.109945" cy="245.9783" rx="28.5144832" ry="23.615056"></ellipse>
            <ellipse id="Oval" fill="#000000" opacity="0.2" transform="translate(122.109945, 245.978300) rotate(-13.000000) translate(-122.109945, -245.978300) " cx="122.109945" cy="245.9783" rx="28.5144832" ry="23.615056"></ellipse>
            <path d="M110.054296,245.972249 C110.054296,245.972249 110.360511,254.811345 112.951905,252.224521 C115.5433,249.637696 113.102727,245.963126 110.054296,245.972249 Z" id="Path" fill="#000000" opacity="0.1"></path>
            <path d="M124.834844,239.244695 C124.834844,239.244695 125.136488,248.083773 127.727883,245.496949 C130.319278,242.910125 127.878705,239.217273 124.834844,239.244695 Z" id="Path" fill="#000000" opacity="0.1"></path>
            <path d="M149.843861,289.852304 C149.843861,289.852304 156.214944,296.099988 163.984558,287.416301" id="Path" fill="#000000" opacity="0.1"></path>
            <path d="M177.846463,155.78533 C181.35193,154.871258 194.299763,160.355691 194.299763,160.355691 C199.880174,154.77528 208.010847,151.429776 215.145181,149.441669 L216.635118,142.686675 C188.340012,143.011171 177.846463,155.78533 177.846463,155.78533 Z" id="Path" fill="#000000" opacity="0.15"></path>
            <path d="M216.694533,142.686675 L215.286862,149.400535 C220.332928,148.012639 225.496598,147.094653 230.711831,146.658319 C224.007111,143.294533 216.694533,142.686675 216.694533,142.686675 Z" id="Path" fill="#000000" opacity="0.3"></path>
            <polygon id="Path" fill="#000000" opacity="0.15" points="216.635118 142.686675 215.154321 149.441669 215.296002 149.400535 216.703674 142.686675"></polygon>
            <g id="Group" opacity="0.1" transform="translate(71.297634, 170.931507)" fill="#FFFFFF">
                <path d="M84.1540598,155.447123 C84.1540598,155.447123 84.3962889,154.788991 84.6933624,153.824645 C85.4383313,151.379502 86.5215068,146.969103 84.7664882,146.306401 C84.7664882,146.306401 83.9529639,146.347534 82.4813076,146.342964 C82.3210496,147.95369 81.98856,149.542591 81.4895392,151.082428 C81.1924658,152.046775 80.9502366,152.704907 80.9502366,152.704907 C76.3798755,160.629913 79.1220922,164.89406 82.4767372,166.41599 L82.6549813,166.479975 C81.3067248,164.171943 81.1970361,160.575068 84.1540598,155.447123 Z" id="Path"></path>
                <path d="M4.328132,86.8917061 C-5.11880448,23.8207223 59.3552802,-1.80986301 77.0242964,0.644420922 L71.8140847,0.379339975 C54.1450685,-2.05666252 -8.31805729,21.096787 1.1288792,84.1677709 C4.09961395,103.998568 13.1580697,117.229763 24.1772105,126.055131 C14.6251557,117.280037 7.00636364,104.766389 4.328132,86.8917061 Z" id="Path"></path>
                <path d="M149.048618,132.942665 C149.048618,132.942665 149.048618,132.915243 149.048618,132.901532 C149.048618,132.887821 148.82924,133.043213 148.427049,133.285442 L148.399626,133.285442 C147.782628,133.660212 146.754296,134.27721 145.474595,134.990187 C145.017559,145.387758 147.709502,147.640946 149.825579,147.837472 C148.751544,145.41061 148.18939,140.954508 149.048618,132.942665 Z" id="Path"></path>
                <path d="M172.211208,142.348468 C172.211208,142.348468 171.662765,141.768032 169.240473,142.485579 C169.871183,147.019377 171.617061,147.512976 172.860199,147.243325 C172.434044,145.64645 172.215909,144.001223 172.211208,142.348468 Z" id="Path"></path>
            </g>
            <path d="M152.864869,314.376862 C152.864869,314.376862 192.476189,311.940859 196.434122,307.978356" id="Path" fill="#000000" opacity="0.1"></path>
            <ellipse id="Oval" fill="#FBD56F" cx="247.969514" cy="303.714209" rx="17.1662765" ry="18.2220299"></ellipse>
            <ellipse id="Oval" fill="#000000" opacity="0.1" cx="247.969514" cy="303.714209" rx="17.1662765" ry="18.2220299"></ellipse>
            <ellipse id="Oval" fill="#FBD56F" cx="250.931108" cy="304.120971" rx="17.1662765" ry="17.8152677"></ellipse>
            <path d="M257.887198,320.263487 L256.100187,319.271719 C256.100187,319.271719 255.263811,322.754334 255.538032,325.24061 C255.591038,325.752342 255.95487,326.178025 256.452105,326.310075 C260.56543,327.329265 280.135716,331.675679 293.6,325.551395 C293.997299,325.371341 294.268865,324.993585 294.312976,324.559626 C294.48208,323.033126 293.897073,319.884147 293.663985,319.271719 C293.174956,317.950884 257.887198,320.263487 257.887198,320.263487 Z" id="Path" fill="#FBD56F"></path>
            <path d="M257.887198,320.263487 L256.100187,319.271719 C256.100187,319.271719 255.263811,322.754334 255.538032,325.24061 C255.591038,325.752342 255.95487,326.178025 256.452105,326.310075 C260.56543,327.329265 280.135716,331.675679 293.6,325.551395 C293.997299,325.371341 294.268865,324.993585 294.312976,324.559626 C294.48208,323.033126 293.897073,319.884147 293.663985,319.271719 C293.174956,317.950884 257.887198,320.263487 257.887198,320.263487 Z" id="Path" fill="#000000" opacity="0.1"></path>
            <ellipse id="Oval" fill="#FBD56F" cx="274.888941" cy="319.271719" rx="18.7887547" ry="4.23672478"></ellipse>
            <path d="M265.080946,314.015803 L263.298506,313.024035 C263.298506,313.024035 262.46213,316.50665 262.736351,318.992927 C262.788617,319.50401 263.153164,319.928707 263.650423,320.057821 C267.763748,321.081582 287.334035,325.427995 300.798319,319.303711 C301.194399,319.122173 301.465389,318.745219 301.511295,318.311943 C301.675828,316.785442 301.090822,313.636463 300.857733,313.024035 C300.350423,311.7032 265.080946,314.015803 265.080946,314.015803 Z" id="Path" fill="#FBD56F"></path>
            <path d="M265.080946,314.015803 L263.298506,313.024035 C263.298506,313.024035 262.46213,316.50665 262.736351,318.992927 C262.788617,319.50401 263.153164,319.928707 263.650423,320.057821 C267.763748,321.081582 287.334035,325.427995 300.798319,319.303711 C301.194399,319.122173 301.465389,318.745219 301.511295,318.311943 C301.675828,316.785442 301.090822,313.636463 300.857733,313.024035 C300.350423,311.7032 265.080946,314.015803 265.080946,314.015803 Z" id="Path" fill="#000000" opacity="0.1"></path>
            <ellipse id="Oval" fill="#FBD56F" cx="282.064408" cy="313.024035" rx="18.7887547" ry="4.23672478"></ellipse>
            <path d="M271.410897,305.802864 L269.623885,304.811096 C269.623885,304.811096 268.787509,308.293711 269.061731,310.779988 C269.114737,311.291719 269.478569,311.717403 269.975803,311.849452 C274.089128,312.868643 293.663985,317.215056 307.123699,311.090772 C307.52095,310.909741 307.793561,310.532947 307.841245,310.099004 C308.005778,308.572503 307.420772,305.423524 307.187684,304.811096 C306.698655,303.490262 271.410897,305.802864 271.410897,305.802864 Z" id="Path" fill="#FBD56F"></path>
            <path d="M271.410897,305.802864 L269.623885,304.811096 C269.623885,304.811096 268.787509,308.293711 269.061731,310.779988 C269.114737,311.291719 269.478569,311.717403 269.975803,311.849452 C274.089128,312.868643 293.663985,317.215056 307.123699,311.090772 C307.52095,310.909741 307.793561,310.532947 307.841245,310.099004 C308.005778,308.572503 307.420772,305.423524 307.187684,304.811096 C306.698655,303.490262 271.410897,305.802864 271.410897,305.802864 Z" id="Path" fill="#000000" opacity="0.1"></path>
            <ellipse id="Oval" fill="#FBD56F" cx="288.41264" cy="304.811096" rx="18.7887547" ry="4.23672478"></ellipse>
            <path d="M264.381681,297.260859 L262.59467,296.264521 C262.59467,296.264521 261.762864,299.751706 262.032516,302.233412 C262.086776,302.744605 262.450081,303.169672 262.946588,303.302877 C267.059913,304.322067 286.630199,308.668481 300.089913,302.548767 C300.487766,302.368473 300.760663,301.991284 300.80746,301.556999 C300.971993,300.030498 300.386986,296.881519 300.153898,296.264521 C299.66944,294.939116 264.381681,297.260859 264.381681,297.260859 Z" id="Path" fill="#FBD56F"></path>
            <path d="M264.381681,297.260859 L262.59467,296.264521 C262.59467,296.264521 261.762864,299.751706 262.032516,302.233412 C262.086776,302.744605 262.450081,303.169672 262.946588,303.302877 C267.059913,304.322067 286.630199,308.668481 300.089913,302.548767 C300.487766,302.368473 300.760663,301.991284 300.80746,301.556999 C300.971993,300.030498 300.386986,296.881519 300.153898,296.264521 C299.66944,294.939116 264.381681,297.260859 264.381681,297.260859 Z" id="Path" fill="#000000" opacity="0.1"></path>
            <ellipse id="Oval" fill="#FBD56F" cx="281.383425" cy="296.25995" rx="18.7887547" ry="4.23672478"></ellipse>
            <path d="M280.19056,290.405318 L278.40812,289.408979 C278.40812,289.408979 277.571743,292.896164 277.845965,295.37787 C277.897703,295.890145 278.262069,296.316454 278.760037,296.447335 C282.873362,297.466526 302.443649,301.812939 315.903362,295.693225 C316.300016,295.511465 316.572345,295.135061 316.620909,294.701457 C316.785442,293.174956 316.200436,290.021407 315.967347,289.408979 C315.478319,288.079004 280.19056,290.405318 280.19056,290.405318 Z" id="Path" fill="#FBD56F"></path>
            <path d="M280.19056,290.405318 L278.40812,289.408979 C278.40812,289.408979 277.571743,292.896164 277.845965,295.37787 C277.897703,295.890145 278.262069,296.316454 278.760037,296.447335 C282.873362,297.466526 302.443649,301.812939 315.903362,295.693225 C316.300016,295.511465 316.572345,295.135061 316.620909,294.701457 C316.785442,293.174956 316.200436,290.021407 315.967347,289.408979 C315.478319,288.079004 280.19056,290.405318 280.19056,290.405318 Z" id="Path" fill="#000000" opacity="0.1"></path>
            <ellipse id="Oval" fill="#FBD56F" cx="297.192304" cy="289.399838" rx="18.7887547" ry="4.23672478"></ellipse>
            <path d="M269.509626,285.784682 L267.722615,284.788344 C267.722615,284.788344 266.890809,288.275529 267.160461,290.757235 C267.214721,291.268428 267.578026,291.693496 268.074533,291.8267 C272.187858,292.84589 291.758144,297.192304 305.217858,291.07259 C305.615712,290.892296 305.888608,290.515107 305.935405,290.080822 C306.099938,288.554321 305.514932,285.400772 305.281843,284.788344 C304.797385,283.467509 269.509626,285.784682 269.509626,285.784682 Z" id="Path" fill="#FBD56F"></path>
            <path d="M269.509626,285.784682 L267.722615,284.788344 C267.722615,284.788344 266.890809,288.275529 267.160461,290.757235 C267.214721,291.268428 267.578026,291.693496 268.074533,291.8267 C272.187858,292.84589 291.758144,297.192304 305.217858,291.07259 C305.615712,290.892296 305.888608,290.515107 305.935405,290.080822 C306.099938,288.554321 305.514932,285.400772 305.281843,284.788344 C304.797385,283.467509 269.509626,285.784682 269.509626,285.784682 Z" id="Path" fill="#000000" opacity="0.1"></path>
            <ellipse id="Oval" fill="#FBD56F" cx="286.51137" cy="284.788344" rx="18.7887547" ry="4.23672478"></ellipse>
            <path d="M276.63939,276.881619 L274.856949,275.88528 C274.856949,275.88528 274.020573,279.372466 274.294795,281.854172 C274.346533,282.366446 274.710899,282.792755 275.208867,282.923636 C279.322192,283.942827 298.892478,288.28924 312.356762,282.169527 C312.753449,281.988727 313.024726,281.611375 313.069738,281.177758 C313.234271,279.651258 312.649265,276.502279 312.416177,275.88528 C311.931719,274.564446 276.63939,276.881619 276.63939,276.881619 Z" id="Path" fill="#FBD56F"></path>
            <path d="M276.63939,276.881619 L274.856949,275.88528 C274.856949,275.88528 274.020573,279.372466 274.294795,281.854172 C274.346533,282.366446 274.710899,282.792755 275.208867,282.923636 C279.322192,283.942827 298.892478,288.28924 312.356762,282.169527 C312.753449,281.988727 313.024726,281.611375 313.069738,281.177758 C313.234271,279.651258 312.649265,276.502279 312.416177,275.88528 C311.931719,274.564446 276.63939,276.881619 276.63939,276.881619 Z" id="Path" fill="#000000" opacity="0.1"></path>
            <ellipse id="Oval" fill="#FBD56F" cx="293.645704" cy="275.88528" rx="18.7887547" ry="4.23672478"></ellipse>
            <path d="M280.163138,266.314944 L278.376127,265.318605 C278.376127,265.318605 277.544321,268.805791 277.813973,271.287497 C277.868233,271.79869 278.231538,272.223757 278.728045,272.356961 C282.84137,273.376152 302.411656,277.722565 315.87137,271.602852 C316.269223,271.422557 316.54212,271.045369 316.588917,270.611083 C316.75345,269.084583 316.168443,265.935604 315.935355,265.318605 C315.446326,263.997771 280.163138,266.314944 280.163138,266.314944 Z" id="Path" fill="#FBD56F"></path>
            <path d="M280.163138,266.314944 L278.376127,265.318605 C278.376127,265.318605 277.544321,268.805791 277.813973,271.287497 C277.868233,271.79869 278.231538,272.223757 278.728045,272.356961 C282.84137,273.376152 302.411656,277.722565 315.87137,271.602852 C316.269223,271.422557 316.54212,271.045369 316.588917,270.611083 C316.75345,269.084583 316.168443,265.935604 315.935355,265.318605 C315.446326,263.997771 280.163138,266.314944 280.163138,266.314944 Z" id="Path" fill="#000000" opacity="0.1"></path>
            <ellipse id="Oval" fill="#FBD56F" cx="297.160311" cy="265.318605" rx="18.7887547" ry="4.23672478"></ellipse>
            <path d="M311.876874,322.717771 L310.089863,321.721432 C310.089863,321.721432 309.253487,325.208618 309.527709,327.690324 C309.580715,328.202055 309.944547,328.627739 310.441781,328.759788 C314.555106,329.778979 334.125392,334.125392 347.589676,328.005679 C347.986455,327.822593 348.257395,327.443972 348.302653,327.00934 C348.471756,325.482839 347.88675,322.333861 347.653661,321.721432 C347.164633,320.400598 311.876874,322.717771 311.876874,322.717771 Z" id="Path" fill="#FBD56F"></path>
            <path d="M311.876874,322.717771 L310.089863,321.721432 C310.089863,321.721432 309.253487,325.208618 309.527709,327.690324 C309.580715,328.202055 309.944547,328.627739 310.441781,328.759788 C314.555106,329.778979 334.125392,334.125392 347.589676,328.005679 C347.986455,327.822593 348.257395,327.443972 348.302653,327.00934 C348.471756,325.482839 347.88675,322.333861 347.653661,321.721432 C347.164633,320.400598 311.876874,322.717771 311.876874,322.717771 Z" id="Path" fill="#000000" opacity="0.1"></path>
            <ellipse id="Oval" fill="#FBD56F" cx="328.878618" cy="321.721432" rx="18.7887547" ry="4.23672478"></ellipse>
            <path d="M318.220535,314.504832 L316.433524,313.508493 C316.433524,313.508493 315.601719,316.995679 315.87137,319.477385 C315.92563,319.988578 316.288936,320.413645 316.785442,320.546849 C320.898767,321.56604 340.469054,325.912453 353.928767,319.79274 C354.326621,319.612445 354.599517,319.235257 354.646314,318.800971 C354.810847,317.274471 354.225841,314.120922 353.992752,313.508493 C353.508294,312.187659 318.220535,314.504832 318.220535,314.504832 Z" id="Path" fill="#FBD56F"></path>
            <path d="M318.220535,314.504832 L316.433524,313.508493 C316.433524,313.508493 315.601719,316.995679 315.87137,319.477385 C315.92563,319.988578 316.288936,320.413645 316.785442,320.546849 C320.898767,321.56604 340.469054,325.912453 353.928767,319.79274 C354.326621,319.612445 354.599517,319.235257 354.646314,318.800971 C354.810847,317.274471 354.225841,314.120922 353.992752,313.508493 C353.508294,312.187659 318.220535,314.504832 318.220535,314.504832 Z" id="Path" fill="#000000" opacity="0.1"></path>
            <ellipse id="Oval" fill="#FBD56F" cx="335.222279" cy="313.508493" rx="18.7887547" ry="4.23672478"></ellipse>
            <path d="M311.19132,305.944545 L309.408879,304.952777 C309.408879,304.952777 308.572503,308.435392 308.846725,310.921669 C308.89899,311.432752 309.263537,311.857449 309.760797,311.986563 C313.874122,313.010324 333.444408,317.356737 346.908692,311.232453 C347.305991,311.052399 347.577557,310.674643 347.621669,310.240685 C347.786202,308.714184 347.201196,305.565205 346.968107,304.952777 C346.483649,303.659365 311.19132,305.944545 311.19132,305.944545 Z" id="Path" fill="#FBD56F"></path>
            <path d="M311.19132,305.944545 L309.408879,304.952777 C309.408879,304.952777 308.572503,308.435392 308.846725,310.921669 C308.89899,311.432752 309.263537,311.857449 309.760797,311.986563 C313.874122,313.010324 333.444408,317.356737 346.908692,311.232453 C347.305991,311.052399 347.577557,310.674643 347.621669,310.240685 C347.786202,308.714184 347.201196,305.565205 346.968107,304.952777 C346.483649,303.659365 311.19132,305.944545 311.19132,305.944545 Z" id="Path" fill="#000000" opacity="0.1"></path>
            <ellipse id="Oval" fill="#FBD56F" cx="328.197634" cy="304.961918" rx="18.7887547" ry="4.23672478"></ellipse>
            <path d="M327.00477,299.089004 L325.217758,298.097235 C325.217758,298.097235 324.381382,301.579851 324.655604,304.038705 C324.707342,304.550979 325.071708,304.977288 325.569676,305.108169 C329.683001,306.13193 349.253288,310.473773 362.717572,304.35406 C363.11487,304.174006 363.386437,303.79625 363.430548,303.362291 C363.595081,301.835791 363.014645,298.686812 362.781557,298.074384 C362.292528,296.803823 327.00477,299.089004 327.00477,299.089004 Z" id="Path" fill="#FBD56F"></path>
            <path d="M327.00477,299.089004 L325.217758,298.097235 C325.217758,298.097235 324.381382,301.579851 324.655604,304.038705 C324.707342,304.550979 325.071708,304.977288 325.569676,305.108169 C329.683001,306.13193 349.253288,310.473773 362.717572,304.35406 C363.11487,304.174006 363.386437,303.79625 363.430548,303.362291 C363.595081,301.835791 363.014645,298.686812 362.781557,298.074384 C362.292528,296.803823 327.00477,299.089004 327.00477,299.089004 Z" id="Path" fill="#000000" opacity="0.1"></path>
            <ellipse id="Oval" fill="#FBD56F" cx="344.006513" cy="298.101806" rx="18.7887547" ry="4.23672478"></ellipse>
            <path d="M316.319265,294.48208 L314.536824,293.490311 C314.536824,293.490311 313.700448,296.972927 313.97467,299.459203 C314.028207,299.969739 314.392216,300.393809 314.888742,300.524097 C319.002067,301.547858 338.572354,305.889701 352.036638,299.769988 C352.433936,299.589933 352.705503,299.212178 352.749614,298.778219 C352.914147,297.251719 352.329141,294.10274 352.096052,293.490311 C351.611594,292.169477 316.319265,294.48208 316.319265,294.48208 Z" id="Path" fill="#FBD56F"></path>
            <path d="M316.319265,294.48208 L314.536824,293.490311 C314.536824,293.490311 313.700448,296.972927 313.97467,299.459203 C314.028207,299.969739 314.392216,300.393809 314.888742,300.524097 C319.002067,301.547858 338.572354,305.889701 352.036638,299.769988 C352.433936,299.589933 352.705503,299.212178 352.749614,298.778219 C352.914147,297.251719 352.329141,294.10274 352.096052,293.490311 C351.611594,292.169477 316.319265,294.48208 316.319265,294.48208 Z" id="Path" fill="#000000" opacity="0.1"></path>
            <ellipse id="Oval" fill="#FBD56F" cx="333.325579" cy="293.490311" rx="18.7887547" ry="4.23672478"></ellipse>
            <path d="M323.453599,285.579016 L321.666588,284.587248 C321.666588,284.587248 320.830212,288.069863 321.104433,290.556139 C321.157439,291.067871 321.521271,291.493555 322.018506,291.625604 C326.131831,292.644795 345.702117,296.991208 359.161831,290.866924 C359.559082,290.685893 359.831693,290.309099 359.879377,289.875156 C360.04391,288.348655 359.458904,285.199676 359.225816,284.587248 C358.741357,283.266413 323.453599,285.579016 323.453599,285.579016 Z" id="Path" fill="#FBD56F"></path>
            <path d="M323.453599,285.579016 L321.666588,284.587248 C321.666588,284.587248 320.830212,288.069863 321.104433,290.556139 C321.157439,291.067871 321.521271,291.493555 322.018506,291.625604 C326.131831,292.644795 345.702117,296.991208 359.161831,290.866924 C359.559082,290.685893 359.831693,290.309099 359.879377,289.875156 C360.04391,288.348655 359.458904,285.199676 359.225816,284.587248 C358.741357,283.266413 323.453599,285.579016 323.453599,285.579016 Z" id="Path" fill="#000000" opacity="0.1"></path>
            <ellipse id="Oval" fill="#FBD56F" cx="340.455342" cy="284.587248" rx="18.7887547" ry="4.23672478"></ellipse>
            <path d="M326.968207,275.012341 L325.185766,274.020573 C325.185766,274.020573 324.34939,277.503188 324.623611,279.989465 C324.676617,280.501196 325.040449,280.92688 325.537684,281.058929 C329.651009,282.07812 349.221295,286.424533 362.685579,280.300249 C363.082878,280.120195 363.354444,279.742439 363.398555,279.308481 C363.563088,277.78198 362.978082,274.633001 362.744994,274.020573 C362.260535,272.699738 326.968207,275.012341 326.968207,275.012341 Z" id="Path" fill="#FBD56F"></path>
            <path d="M326.968207,275.012341 L325.185766,274.020573 C325.185766,274.020573 324.34939,277.503188 324.623611,279.989465 C324.676617,280.501196 325.040449,280.92688 325.537684,281.058929 C329.651009,282.07812 349.221295,286.424533 362.685579,280.300249 C363.082878,280.120195 363.354444,279.742439 363.398555,279.308481 C363.563088,277.78198 362.978082,274.633001 362.744994,274.020573 C362.260535,272.699738 326.968207,275.012341 326.968207,275.012341 Z" id="Path" fill="#000000" opacity="0.1"></path>
            <ellipse id="Oval" fill="#FBD56F" cx="343.974521" cy="274.020573" rx="18.7887547" ry="4.23672478"></ellipse>
            <path d="M186.744956,143.696725 C186.744956,133.861308 194.427733,125.872316 203.911233,125.872316 C204.840819,125.873276 205.768728,125.951239 206.685442,126.105405 C204.850902,125.412695 202.906034,125.058097 200.945068,125.058792 C191.466139,125.058792 183.783362,133.216887 183.783362,143.280822 C183.783362,150.840199 188.120635,157.320971 194.295193,160.081469 C194.592267,159.820959 194.962466,159.510174 195.40122,159.167397 C189.990557,155.896813 186.701714,150.018919 186.744956,143.696725 Z" id="Path" fill="#FBD56F"></path>
            <path d="M186.744956,143.696725 C186.744956,133.861308 194.427733,125.872316 203.911233,125.872316 C204.840819,125.873276 205.768728,125.951239 206.685442,126.105405 C204.850902,125.412695 202.906034,125.058097 200.945068,125.058792 C191.466139,125.058792 183.783362,133.216887 183.783362,143.280822 C183.783362,150.840199 188.120635,157.320971 194.295193,160.081469 C194.592267,159.820959 194.962466,159.510174 195.40122,159.167397 C189.990557,155.896813 186.701714,150.018919 186.744956,143.696725 Z" id="Path" fill="#000000" opacity="0.1"></path>
            <path d="M218.111345,143.308244 C218.110125,145.295228 217.801794,147.270085 217.197273,149.162877 C218.239315,148.911507 219.327061,148.705841 220.4468,148.468182 C220.862412,146.91175 221.072906,145.307691 221.072939,143.696725 C221.072939,134.839365 214.843537,127.499365 206.685442,126.119116 C213.344458,128.641955 218.111345,135.378667 218.111345,143.308244 Z" id="Path" fill="#FBD56F"></path>
            <path d="M186.744956,143.696725 C186.701062,150.021466 189.991966,155.901679 195.405791,159.171968 C198.637036,156.603425 205.762229,151.882242 217.201843,149.149166 C217.806364,147.256374 218.114695,145.281517 218.115915,143.294533 C218.115915,135.364956 213.349029,128.628244 206.690012,126.119116 C205.773299,125.96495 204.845389,125.886987 203.915803,125.886027 C194.427733,125.899738 186.744956,133.875019 186.744956,143.696725 Z" id="Path" fill="#FBD56F"></path>
            <path d="M440.212615,347.63995 C437.598369,347.548543 437.502391,346.533923 434.143176,344.783474 C432.241905,343.796276 429.362578,340.92609 427.214508,338.618057 L426.711768,338.074184 L427.625841,338.074184 C427.625841,338.074184 426.784894,330.702192 427.534433,328.933462 C428.283973,327.164732 427.721818,316.767161 427.721818,316.767161 C427.721818,316.767161 428.178854,308.837584 427.347049,306.995729 C426.515243,305.153873 427.625841,293.357771 427.625841,293.357771 C427.625841,293.357771 428.37538,286.351407 428.539913,272.064458 C428.704446,257.777509 420.313263,257.320473 420.313263,257.320473 C420.313263,257.320473 419.193524,257.233636 417.49335,257.069103 L416.981469,257.018829 C418.082927,254.733649 418.727347,252.987771 418.727347,252.987771 C418.727347,252.987771 417.324247,239.624035 416.949477,237.320573 C416.574707,235.017111 414.339801,225.506189 414.339801,225.506189 C414.339801,225.506189 412.753885,221.452279 411.816961,218.595803 C410.880037,215.739328 408.082976,212.421245 408.082976,212.421245 C408.082976,212.421245 403.055579,202.466999 401.638767,200.995342 C400.989776,200.314359 400.075704,199.45056 399.285031,198.710162 L398.873699,198.335392 C399.087724,197.297553 399.200985,196.241465 399.211905,195.181843 C399.211905,195.181843 393.978842,190.017335 393.604072,188.728493 C393.229303,187.439651 388.284172,182.645342 388.284172,182.645342 C388.284172,182.645342 385.47797,177.485405 382.306139,177.393998 C380.804536,177.307331 379.298237,177.351679 377.804334,177.526538 C378.457895,175.113387 379.230286,172.585978 379.920411,170.415056 C379.998107,170.172827 380.075803,169.95802 380.148929,169.70665 C382.686883,167.989058 384.679077,165.579709 385.889303,162.764271 C385.953288,162.61345 386.012702,162.462628 386.072117,162.307235 L386.172665,162.307235 C386.30438,162.304335 386.435726,162.292117 386.565716,162.270672 C387.612329,162.092428 388.498979,160.899564 388.014521,159.985492 C388.078689,160.092894 388.195658,160.157488 388.320735,160.154595 C388.668082,160.154595 389.093126,159.638144 389.175392,159.194819 C389.175392,159.117123 389.198244,159.039427 389.207385,158.961731 C389.216526,158.884035 389.239377,158.769776 389.253088,158.673798 C389.2668,158.577821 389.253088,158.490984 389.253088,158.399577 C389.253088,158.308169 389.253088,158.212192 389.253088,158.120785 C389.253088,158.029377 389.253088,157.94254 389.253088,157.855704 C389.253088,157.768867 389.253088,157.650037 389.253088,157.549489 C389.253088,157.448941 389.253088,157.389527 389.253088,157.30726 C389.253088,157.224994 389.253088,157.060461 389.225666,156.937061 C389.225666,156.886787 389.225666,156.836513 389.225666,156.786239 C389.171041,156.282889 389.070064,155.785657 388.924022,155.300872 C388.412142,153.586986 387.328966,151.886812 387.744869,150.150075 L387.744869,150.09523 C388.092217,148.724122 389.262229,147.764346 389.975205,146.557771 C390.043761,146.443512 390.103176,146.324682 390.16259,146.205853 C390.16259,146.183001 390.185442,146.160149 390.194583,146.141868 C390.240286,146.050461 390.276849,145.959054 390.313412,145.867646 L390.386538,145.689402 C390.418531,145.611706 390.441382,145.52944 390.468804,145.447173 C390.496227,145.364907 390.519078,145.300922 390.53736,145.223225 C390.555641,145.145529 390.573923,145.076974 390.592204,145.003848 C390.610486,144.930722 390.633337,144.830174 390.651619,144.738767 C390.6699,144.64736 390.651619,144.610797 390.683611,144.546812 C390.715604,144.482827 390.711034,144.345716 390.720174,144.245168 C390.729315,144.14462 390.720174,144.135479 390.720174,144.080635 C390.720174,144.025791 390.720174,143.856687 390.720174,143.742428 L390.720174,143.605318 C390.720174,143.481918 390.720174,143.353948 390.720174,143.230548 C390.720174,143.193985 390.720174,143.157422 390.720174,143.120859 C390.720174,142.988319 390.720174,142.855778 390.683611,142.723238 C390.683611,142.723238 390.683611,142.686675 390.683611,142.668394 C390.525462,141.509947 390.063438,140.414019 389.344496,139.491993 C387.687096,137.51686 385.195945,136.438095 382.621494,136.580672 C381.920505,136.66055 381.213556,136.674322 380.509988,136.621806 C379.335405,136.448132 378.343636,135.707733 377.411283,134.985616 L369.586824,128.95731 C368.713211,128.201317 367.71189,127.607024 366.629801,127.202291 C365.523773,126.864085 364.198369,126.978344 363.380274,127.787298 C361.913188,129.231532 362.845542,131.717808 362.260535,133.678493 C361.748655,135.378667 360.107895,136.530399 358.412291,137.101694 C356.716687,137.672989 354.897684,137.800959 353.151806,138.216862 C352.634091,138.2997 352.148889,138.522546 351.748705,138.861283 C351.298246,139.410815 351.078683,140.113744 351.136276,140.821968 C351.124445,142.55884 351.542066,144.271714 352.351993,145.808232 C352.681059,146.429801 353.07868,147.065081 353.430598,147.704932 L353.517435,147.864894 L353.631694,148.084271 C353.691108,148.207671 353.750523,148.326501 353.805367,148.44533 L353.873923,148.600722 L353.979041,148.861233 C353.979041,148.916077 354.020174,148.970922 354.038456,149.021196 C354.056737,149.071469 354.102441,149.226862 354.134433,149.32741 C354.318292,149.920689 354.335682,150.553067 354.184707,151.155554 C353.915056,152.147323 353.142665,152.910573 352.457111,153.682964 C351.90211,154.289643 351.506369,155.024592 351.30538,155.821893 C351.271844,156.009313 351.271844,156.201198 351.30538,156.388618 C351.30538,156.411469 351.30538,156.434321 351.30538,156.457173 C351.31546,156.498902 351.327663,156.540089 351.341943,156.580573 C351.352177,156.610303 351.364392,156.639313 351.378506,156.66741 C351.391865,156.700262 351.407126,156.732308 351.424209,156.763387 C351.458842,156.813178 351.498676,156.85914 351.543039,156.900498 L351.611594,156.950772 C351.648844,156.978789 351.688626,157.00327 351.730423,157.023898 L351.80812,157.060461 L352.000075,157.110735 L352.054919,157.110735 C352.155341,157.117864 352.256141,157.117864 352.356563,157.110735 L352.44797,157.110735 C352.543094,157.10447 352.637733,157.092258 352.731333,157.074172 L352.836451,157.074172 C352.990921,157.045152 353.143534,157.006999 353.293487,156.959913 C353.818519,156.802502 354.329197,156.600677 354.819988,156.356625 C354.819988,156.411469 354.819988,156.470884 354.819988,156.525729 C354.819988,156.580573 354.819988,156.722254 354.819988,156.818232 C354.84589,158.626266 355.18772,160.415848 355.830037,162.106139 C356.831326,164.739685 358.51043,167.062052 360.697472,168.838281 C360.67005,168.993674 360.642628,169.153636 360.610635,169.318169 C360.153599,171.525654 359.216675,173.742279 358.636239,173.573176 C358.067831,173.444699 357.486818,173.380312 356.904072,173.38122 L356.396762,173.38122 C355.868301,173.321166 355.334738,173.321166 354.806276,173.38122 C354.570531,173.398674 354.333764,173.365963 354.111582,173.285243 C352.602469,172.809141 350.997971,172.719566 349.445243,173.024732 C346.218568,173.687435 341.30543,174.89858 339.957173,176.347385 C337.900511,178.55944 334.929776,180.680087 331.552279,189.893935 C331.552279,189.893935 329.870386,195.515479 328.563263,196.255878 C328.851163,196.105551 329.147166,195.971282 329.449913,195.853686 C329.276034,196.157869 329.03729,196.420019 328.750648,196.621507 C329.223262,196.380076 329.713735,196.17533 330.217733,196.009078 C329.198543,202.014533 330.711333,219.18995 330.711333,219.18995 C330.711333,219.18995 329.495616,222.151544 331.081532,223.906563 C332.027597,224.944035 332.539477,226.566513 332.804558,227.718244 L332.571469,228.074732 C331.730523,229.377285 330.606214,231.07746 329.870386,232.014384 C328.563263,233.673425 328.933462,238.92934 328.933462,238.92934 C328.933462,238.92934 328.65467,241.415616 327.722316,242.338829 C326.789963,243.262042 326.972777,246.671532 326.972777,246.671532 L324.582478,255.670573 C324.582478,255.670573 322.338431,257.695243 322.338431,258.618456 C322.338431,259.541669 320.565131,262.119352 320.565131,262.119352 C320.565131,262.119352 317.854907,266.543462 320.565131,265.899041 C321.555007,265.612645 322.484304,265.147996 323.307347,264.527933 L323.307347,264.596488 C323.307347,264.756451 323.307347,264.920984 323.307347,265.090087 C323.229651,269.907248 323.764384,276.689664 327.310984,276.689664 C332.795417,276.689664 347.018381,283.229851 347.018381,283.229851 C349.91142,285.441905 353.83279,284.706077 353.83279,284.706077 C353.83279,284.706077 346.890411,291.602752 347.091507,294.463798 C347.292603,297.324844 343.170137,302.018605 343.170137,302.018605 L330.464533,326.812814 C330.535484,328.540713 330.843039,330.250721 331.378605,331.895056 L331.195791,332.050448 C326.314645,336.511121 325.889601,345.336488 325.889601,345.336488 L324.769863,349.852005 L341.767036,357.319975 C341.767036,357.319975 363.809888,357.777011 367.639851,356.766961 C371.469813,355.756912 370.628867,351.511046 365.583188,350.683811 C360.537509,349.856575 359.326364,347.63995 357.644471,346.6299 C356.511021,345.944346 352.484533,341.524807 349.984545,338.723176 C349.947983,338.677472 349.91142,338.640909 349.874857,338.599776 L350.455293,335.400523 C351.575031,334.847509 353.256924,329.317372 353.256924,329.317372 C353.256924,329.317372 353.256924,327.105318 354.376663,326.460897 C355.496401,325.816476 357.831856,319.180311 357.831856,319.180311 C357.831856,319.180311 362.859253,310.793699 362.598742,309.687671 C362.338232,308.581644 366.255031,302.9601 366.255031,302.9601 C366.255031,302.9601 372.886625,296.50675 372.603263,295.355019 C372.3199,294.203288 377.927733,288.302951 377.927733,288.302951 C379.952912,286.758497 381.640499,284.815827 382.886575,282.59457 L384.504483,282.329489 C391.839913,281.127484 404.024496,278.956563 405.386463,278.348705 C407.255741,277.521469 406.880971,281.209751 406.136002,284.340448 C405.391034,287.471146 404.828879,302.498493 405.678966,304.450037 C406.529054,306.401582 406.136002,309.523138 406.136002,309.523138 L405.016264,326.387771 L405.761233,329.984645 C405.761233,329.984645 403.238394,332.009315 404.266725,333.20675 C405.295056,334.404184 404.362702,339.568692 404.362702,339.568692 C404.449539,339.5367 404.554658,339.504707 404.668917,339.472715 C404.58208,339.673811 404.495243,339.884047 404.417547,340.098854 C402.968742,344.212179 403.800548,350.994595 403.800548,350.994595 L403.800548,356.341918 C403.800548,356.341918 429.673362,356.798954 435.368032,356.798954 C441.062702,356.798954 448.914583,354.033885 449.38076,351.821831 C449.846936,349.609776 442.826862,347.735928 440.212615,347.63995 Z M366.629801,251.694359 L364.938767,251.83604 C365.497351,251.753118 366.060641,251.705796 366.62523,251.694359 L366.629801,251.694359 Z M376.963387,180.949738 C377.201046,179.880274 377.488979,178.737684 377.808904,177.558531 L376.963387,180.949738 Z M380.16264,254.276613 C378.547304,254.913242 376.750579,254.913242 375.135243,254.276613 C375.135243,254.276613 375.22665,247.827833 375.976189,245.13589 C376.725729,242.443948 377.749489,237.576513 377.749489,237.576513 C377.749489,237.576513 378.590436,230.848941 379.431382,227.805081 C380.272329,224.76122 383.544707,207.805181 385.22203,206.699153 C386.899352,205.593126 387.836276,207.530959 387.836276,207.530959 C387.836276,207.530959 388.087646,207.530959 388.50812,207.480685 C388.590386,207.654359 388.677223,207.846314 388.777771,208.042839 C390.770448,212.069328 396.61594,220.341681 396.61594,220.341681 C398.350855,221.41166 399.8199,222.861951 400.91208,224.582976 C402.502565,227.252067 402.968742,233.522603 402.968742,233.522603 C402.968742,233.522603 406.519913,247.439352 408.197235,249.372615 C409.038182,250.341532 408.654271,250.917397 408.082976,251.251034 C406.889511,251.908387 405.876893,252.850356 405.135093,253.99325 C404.897435,254.37259 404.641494,254.788493 404.385554,255.236389 C403.741133,255.085567 403.169838,254.930174 402.68995,254.779352 C398.078456,253.23 382.676339,253.170585 380.15807,254.299465 L380.16264,254.276613 Z" id="Shape" fill="url(#linearGradient-1)" fill-rule="nonzero"></path>
            <path d="M403.174408,351.012877 L403.174408,356.314496 C403.174408,356.314496 428.489639,356.771532 434.065479,356.771532 C439.64132,356.771532 447.319527,354.029315 447.776563,351.835542 C448.233599,349.641768 441.378057,347.813624 438.818655,347.722217 C436.259253,347.630809 436.167846,346.62533 432.877186,344.888593 C431.021619,343.910535 428.201706,341.0632 426.09934,338.77345 C424.476862,337.00472 423.279427,335.574197 423.279427,335.574197 C423.279427,335.574197 409.664321,335.299975 405.733811,337.493748 C404.819738,337.996488 404.20274,338.988257 403.777696,340.235965 C402.360884,344.303587 403.174408,351.012877 403.174408,351.012877 Z" id="Path" fill="#434175"></path>
            <path d="M403.777696,340.222254 C406.634172,339.230486 423.347983,338.851146 426.09934,338.787161 C424.476862,337.018431 423.279427,335.587908 423.279427,335.587908 C423.279427,335.587908 409.664321,335.313686 405.733811,337.50746 C404.828879,337.991918 404.20274,338.983686 403.777696,340.222254 Z" id="Path" fill="#000000" opacity="0.1"></path>
            <path d="M330.331993,255.670573 L331.808219,256.584645 L332.361233,256.918281 L334.509303,258.216264 C345.999191,265.135791 377.329016,283.901694 379.047472,283.750872 C379.504508,283.714309 380.848194,283.508643 382.703761,283.206999 L384.289676,282.946488 C391.465143,281.753624 403.389215,279.600984 404.723761,278.997696 C406.551905,278.175031 406.186276,281.83132 405.455019,284.939166 C404.723761,288.047011 404.175318,302.946389 404.997983,304.86594 C405.820648,306.785492 405.455019,309.893337 405.455019,309.893337 L404.358132,326.620859 L405.08939,330.185741 C405.08939,330.185741 402.621395,332.1967 403.626874,333.384994 C404.632354,334.573288 403.718281,339.692092 403.718281,339.692092 C406.643313,338.595205 426.47411,338.229577 426.47411,338.229577 C426.47411,338.229577 425.651445,330.916999 426.382702,329.180262 C427.11396,327.443524 426.565517,317.114508 426.565517,317.114508 C426.565517,317.114508 427.022553,309.253487 426.199888,307.425342 C425.377223,305.597198 426.47411,293.901644 426.47411,293.901644 C426.47411,293.901644 427.205367,286.954695 427.388182,272.791146 C427.570996,258.627597 419.344346,258.16599 419.344346,258.16599 C419.344346,258.16599 418.24746,258.079153 416.60213,257.919191 C413.343462,257.608406 407.918443,257.005118 404.289577,256.219016 C403.546318,256.067652 402.812336,255.873856 402.091233,255.63858 C397.612279,254.11208 382.530087,254.052665 380.066663,255.149552 C378.485225,255.781774 376.72125,255.781774 375.139813,255.149552 L373.220262,252.041706 L354.888543,253.60477 L352.946139,253.769303 L334.897783,255.309514 L333.654645,255.414633 L330.331993,255.670573 Z" id="Path" fill="#565387"></path>
            <path d="M403.814259,269.710722 C409.13873,272.306687 414.220971,263.10198 416.61127,257.91005 C413.352603,257.599265 407.927584,256.995978 404.298717,256.209875 C401.890137,260.213512 398.709166,267.219875 403.814259,269.710722 Z" id="Path" fill="#000000" opacity="0.1"></path>
            <path d="M387.817995,207.521818 C387.931493,208.150742 388.1493,208.756277 388.462416,209.3134 C390.41396,213.303325 396.136052,221.507123 396.136052,221.507123 C397.838004,222.572146 399.275762,224.009904 400.340785,225.711856 C401.894707,228.362665 402.351743,234.578356 402.351743,234.578356 C402.351743,234.578356 405.825218,248.376276 407.470548,250.295828 C408.293213,251.255604 407.927584,251.826899 407.356289,252.160535 C406.18882,252.809845 405.198555,253.735766 404.472391,254.857049 C402.072951,258.714433 398.247559,266.356077 403.631445,268.979465 C410.944022,272.544346 417.799564,253.86071 417.799564,253.86071 C417.799564,253.86071 416.428456,240.606663 416.062827,238.321482 C415.697198,236.036301 413.507995,226.621357 413.507995,226.621357 C413.507995,226.621357 411.954072,222.59944 411.04,219.765816 C410.125928,216.932192 407.383711,213.641532 407.383711,213.641532 C407.383711,213.641532 402.447721,203.774122 401.076613,202.311606 C400.441333,201.630623 399.550112,200.775965 398.791432,200.053848 C397.87736,199.217472 397.164384,198.56391 397.164384,198.56391 C397.164384,198.56391 387.726588,205.332615 387.817995,207.521818 Z" id="Path" fill="#EE8E9E"></path>
            <path d="M325.86675,349.91599 L342.502864,357.319975 C342.502864,357.319975 364.070399,357.777011 367.818095,356.771532 C371.565791,355.766052 370.743126,351.56132 365.807136,350.738655 C360.871146,349.91599 359.682852,347.722217 358.037522,346.716737 C356.926924,346.040324 352.987273,341.657347 350.54213,338.878568 C349.362976,337.539452 348.531171,336.593387 348.531171,336.593387 C348.531171,336.593387 345.331918,328.092516 336.469988,330.012067 C334.850132,330.365462 333.358011,331.155781 332.155567,332.297248 C327.379539,336.716787 326.963636,345.469029 326.963636,345.469029 L325.86675,349.91599 Z" id="Path" fill="#434175"></path>
            <path d="M332.361233,256.913711 L334.509303,258.211694 C345.999191,265.13122 377.329016,283.897123 379.047472,283.746301 C379.504508,283.709738 380.848194,283.504072 382.703761,283.202428 L384.289676,282.941918 L384.349091,282.8368 C385.27288,281.230335 385.976905,279.507165 386.442316,277.713425 C388.366438,270.405417 378.882939,264.811295 378.882939,264.811295 L376.87198,263.248232 C374.5868,259.399988 358.133499,255.76198 358.133499,255.76198 L356.012852,254.336027 L354.883973,253.577347 L354.582329,253.376252 L352.009215,251.648655 L339.125367,252.562727 L335.295405,255.021582 L334.893213,255.282092 L333.471831,256.196164 L332.361233,256.913711 Z" id="Path" fill="#000000" opacity="0.1"></path>
            <path d="M332.141856,332.265255 C335.638182,344.363001 350.254197,340.414209 350.254197,340.414209 L350.528418,338.878568 C349.349265,337.539452 348.51746,336.593387 348.51746,336.593387 C348.51746,336.593387 345.318207,328.092516 336.456276,330.012067 C334.839824,330.356335 333.348044,331.135411 332.141856,332.265255 Z" id="Path" fill="#000000" opacity="0.1"></path>
            <path d="M328.321034,277.347796 C333.71406,277.347796 347.603387,283.837709 347.603387,283.837709 C350.437011,286.031482 354.276115,285.300224 354.276115,285.300224 C354.276115,285.300224 347.51198,292.155766 347.694795,294.98939 C347.877609,297.823014 343.860262,302.484782 343.860262,302.484782 L331.428879,327.068755 C332.342951,344.522964 350.254197,339.682951 350.254197,339.682951 L350.985455,335.569626 C352.082341,335.021183 353.727671,329.53675 353.727671,329.53675 C353.727671,329.53675 353.727671,327.342976 354.824558,326.703126 C355.921445,326.063275 358.206625,319.481955 358.206625,319.481955 C358.206625,319.481955 363.142615,311.163898 362.868394,310.067011 C362.594172,308.970125 366.433275,303.398854 366.433275,303.398854 C366.433275,303.398854 372.923188,297.000349 372.648966,295.857758 C372.374745,294.715168 377.859178,288.865106 377.859178,288.865106 C379.843334,287.32643 381.493261,285.3997 382.708331,283.202428 C383.641186,281.592866 384.352947,279.864963 384.824408,278.065342 C386.373761,272.178717 380.509988,267.416401 378.165392,265.789352 C377.598667,265.391731 377.25132,265.181494 377.25132,265.181494 L375.240361,263.618431 C374.202889,261.867983 370.212964,260.158667 366.209328,258.819552 C363.311719,257.855205 360.386687,257.078244 358.51741,256.612067 C357.246849,256.319564 356.488169,256.127609 356.488169,256.127609 L354.367522,254.701656 L353.622553,254.203487 L352.941569,253.746451 L350.345604,252.014284 L344.614371,252.421046 L337.461756,252.928356 L333.636364,255.405492 L331.808219,256.584645 L324.664745,261.155006 C324.664745,261.155006 324.47736,262.914595 324.417945,265.268331 C324.417945,265.451146 324.417945,265.63396 324.417945,265.825915 C324.331108,270.624795 324.842989,277.347796 328.321034,277.347796 Z" id="Path" fill="#565387"></path>
            <path d="M355.830037,174.985417 L357.749589,181.840959 C357.749589,181.840959 361.131656,193.632491 361.497285,194.455156 C361.862914,195.277821 370.729415,203.595878 371.095044,203.778692 C371.460672,203.961507 376.286974,206.699153 376.286974,206.699153 C376.286974,206.699153 376.670884,191.616961 376.286974,187.233985 C376.254868,186.269769 376.33462,185.305081 376.524633,184.359228 C377.105068,180.922316 378.581295,175.881208 379.806152,171.996401 C380.829913,168.746874 381.67543,166.306301 381.67543,166.306301 C381.67543,166.306301 360.29071,165.392229 361.021968,167.494595 C361.296189,168.289838 361.209352,169.615243 360.939701,170.949788 C360.482665,173.138991 359.568593,175.341905 359.011009,175.168232 C358.454399,175.043722 357.885771,174.980882 357.315405,174.980847 C356.547584,174.957995 355.830037,174.985417 355.830037,174.985417 Z" id="Path" fill="#EE8E9E"></path>
            <path d="M360.957983,170.949788 C366.324672,175.429132 373.995218,175.854654 379.824433,171.996401 C380.848194,168.746874 381.693711,166.306301 381.693711,166.306301 C381.693711,166.306301 360.308991,165.392229 361.040249,167.494595 C361.314471,168.289838 361.227634,169.615243 360.957983,170.949788 Z" id="Path" fill="#000000" opacity="0.1"></path>
            <path d="M386.908493,158.267036 C386.909397,159.943967 386.642478,161.610282 386.117821,163.203026 C385.985837,163.614135 385.8333,164.018358 385.660785,164.414172 C383.141868,170.380105 377.240016,174.207278 370.765501,174.073316 C364.290985,173.939353 358.552491,169.871332 356.282503,163.806314 C355.654613,162.128632 355.320657,160.35526 355.295305,158.56411 C355.295305,158.468132 355.295305,158.367584 355.295305,158.271606 C355.198173,152.55875 358.19034,147.237793 363.122265,144.352957 C368.054189,141.468121 374.15875,141.468121 379.090674,144.352957 C384.022599,147.237793 387.014766,152.55875 386.917634,158.271606 L386.908493,158.267036 Z" id="Path" fill="#EE8E9E"></path>
            <path d="M355.830037,174.985417 L357.749589,181.840959 C357.749589,181.840959 361.131656,193.632491 361.497285,194.455156 C361.862914,195.277821 370.729415,203.595878 371.095044,203.778692 C371.460672,203.961507 376.286974,206.699153 376.286974,206.699153 C376.286974,206.699153 376.670884,191.616961 376.286974,187.233985 C376.254868,186.269769 376.33462,185.305081 376.524633,184.359228 L375.281494,189.427758 L375.372902,199.57396 L376.104159,200.122403 L374.458829,202.590399 L374.458829,200.762254 C374.458829,200.762254 368.608767,195.095006 367.694695,192.718418 C366.780623,190.341831 363.489963,186.03655 363.489963,186.03655 C363.489963,186.03655 359.742267,179.738593 359.650859,178.641706 C359.582304,177.787049 358.005529,175.808082 357.315405,174.985417 C356.547584,174.957995 355.830037,174.985417 355.830037,174.985417 Z" id="Path" fill="#000000" opacity="0.1"></path>
            <path d="M387.817995,207.521818 C387.931493,208.150742 388.1493,208.756277 388.462416,209.3134 C390.464234,209.107733 397.269502,207.837173 398.76858,200.058418 C397.854508,199.222042 397.141532,198.568481 397.141532,198.568481 C397.141532,198.568481 387.726588,205.332615 387.817995,207.521818 Z" id="Path" fill="#000000" opacity="0.1"></path>
            <path d="M324.404234,265.848767 C326.232379,264.541644 328.005679,262.763773 329.052291,262.270174 C330.606214,261.538917 332.982802,259.162329 332.982802,259.162329 C332.982802,259.162329 333.58609,258.750996 334.509303,258.211694 C336.204907,257.215355 338.988257,255.775691 341.118045,255.597447 C343.023885,255.437484 349.344695,255.030722 354.372092,254.719938 L360.880286,254.317746 C360.880286,254.317746 366.821756,252.21538 369.381158,253.586488 C371.214185,254.504754 373.146317,255.210135 375.139813,255.688854 C375.139813,255.688854 375.139813,255.487758 375.139813,255.144981 L373.220262,252.037136 L352.946139,253.764732 L350.345604,252.014284 L337.461756,252.928356 L333.636364,255.405492 L330.336563,255.688854 L331.81279,256.602927 L324.669315,261.173288 C324.669315,261.173288 324.445367,263.216239 324.404234,265.848767 Z" id="Path" fill="#000000" opacity="0.1"></path>
            <path d="M321.753425,266.63944 C322.722439,266.349868 323.630178,265.885155 324.431656,265.268331 C326.259801,263.965778 328.01939,262.187908 329.066002,261.698879 C330.619925,260.967621 332.996513,258.591034 332.996513,258.591034 C332.996513,258.591034 337.841096,255.300374 341.131756,255.026152 C342.045828,254.953026 343.901395,254.820486 346.159153,254.674234 C348.416912,254.527983 351.18655,254.349738 353.617983,254.217198 L357.493649,253.974969 L360.871146,253.764732 C360.871146,253.764732 366.812615,251.662366 369.372017,253.033474 C371.205044,253.95174 373.137177,254.657122 375.130672,255.135841 C375.130672,255.135841 375.22208,248.737335 375.953337,246.086526 C376.684595,243.435716 377.690075,238.595704 377.690075,238.595704 C377.690075,238.595704 378.51274,231.922976 379.335405,228.906538 C380.15807,225.8901 383.352752,209.071171 384.998082,207.974284 C386.643412,206.877397 387.557484,208.796949 387.557484,208.796949 C387.557484,208.796949 398.526351,208.614134 398.709166,196.552951 C398.709166,196.552951 393.590361,191.434147 393.224732,190.154446 C392.859103,188.874745 388.014521,184.121569 388.014521,184.121569 C388.014521,184.121569 385.272304,179.002765 382.164458,178.911357 C380.696205,178.826799 379.223344,178.872683 377.7632,179.048468 L375.130672,189.788817 L375.22208,199.935019 L375.953337,200.483462 L374.308007,202.951457 L374.308007,201.123313 C374.308007,201.123313 368.457945,195.456065 367.543873,193.079477 C366.629801,190.702889 363.339141,186.397609 363.339141,186.397609 C363.339141,186.397609 359.591445,180.099651 359.500037,179.002765 C359.40863,177.905878 356.849228,174.967136 356.849228,174.967136 C356.332992,174.907115 355.811541,174.907115 355.295305,174.967136 C355.064051,174.984458 354.83178,174.951721 354.614321,174.871158 C353.137528,174.397994 351.564349,174.309896 350.04396,174.615218 C346.885841,175.26878 342.077821,176.470785 340.761557,177.905878 C338.750598,180.099651 335.825567,182.202017 332.534907,191.34274 L350.263337,197.741245 L348.718555,200.629714 L334.609851,227.448593 C334.609851,227.448593 334.152814,228.211843 333.508394,229.208182 C332.685729,230.501594 331.584271,232.188057 330.862154,233.115841 C329.582453,234.761171 329.948082,239.971382 329.948082,239.971382 C329.948082,239.971382 329.673861,242.439377 328.759788,243.35345 C327.845716,244.267522 328.028531,247.649589 328.028531,247.649589 L325.651943,256.51609 C325.651943,256.51609 323.458169,258.527049 323.458169,259.441121 C323.458169,260.355193 321.721432,262.914595 321.721432,262.914595 C321.721432,262.914595 319.088904,267.297572 321.753425,266.63944 Z" id="Path" fill="#434175"></path>
            <path d="M415.326999,273.239041 C415.326999,273.239041 409.572914,275.154022 408.014421,277.896239 C406.455928,280.638456 415.326999,273.239041 415.326999,273.239041 Z" id="Path" fill="#000000" opacity="0.1"></path>
            <path d="M412.406538,267.206164 C412.223724,267.480386 404.518095,275.208867 405.002553,277.073574 C405.487011,278.938281 412.406538,267.206164 412.406538,267.206164 Z" id="Path" fill="#000000" opacity="0.1"></path>
            <path d="M370.089564,272.690598 C370.089564,272.690598 361.515567,276.739938 360.766027,278.522379 C360.016488,280.304819 370.089564,272.690598 370.089564,272.690598 Z" id="Path" fill="#000000" opacity="0.1"></path>
            <path d="M369.541121,277.896239 C369.541121,277.896239 361.771507,281.186899 360.729465,282.009564 C359.687422,282.832229 369.541121,277.896239 369.541121,277.896239 Z" id="Path" fill="#000000" opacity="0.1"></path>
            <path d="M365.976239,284.920884 C365.976239,284.920884 362.543898,287.480286 360.647198,285.469328 C358.750498,283.458369 365.976239,284.920884 365.976239,284.920884 Z" id="Path" fill="#000000" opacity="0.1"></path>
            <path d="M378.882939,218.216463 C378.700125,218.490685 367.274222,239.05731 364.257783,240.611233 C361.241345,242.165156 378.882939,218.216463 378.882939,218.216463 Z" id="Path" fill="#000000" opacity="0.1"></path>
            <path d="M378.316214,225.986077 C378.316214,226.443113 367.164533,250.295828 365.336389,250.57005 C363.508244,250.844271 378.316214,225.986077 378.316214,225.986077 Z" id="Path" fill="#000000" opacity="0.1"></path>
            <path d="M335.921544,241.33792 C335.921544,241.33792 330.537659,252.841519 328.426152,253.495081 C326.314645,254.148643 335.921544,241.33792 335.921544,241.33792 Z" id="Path" fill="#000000" opacity="0.1"></path>
            <path d="M335.007472,236.223686 C335.007472,236.223686 333.151905,240.241034 332.023026,240.241034 C330.894147,240.241034 335.007472,236.223686 335.007472,236.223686 Z" id="Path" fill="#000000" opacity="0.1"></path>
            <path d="M386.908493,158.267036 C386.909397,159.943967 386.642478,161.610282 386.117821,163.203026 C385.985837,163.614135 385.8333,164.018358 385.660785,164.414172 C384.852099,164.289629 384.090618,163.953821 383.4533,163.440685 C382.774727,162.98098 382.207819,162.375028 381.794259,161.667385 C381.482468,160.913465 381.212409,160.142955 380.985305,159.359352 C380.242609,157.558366 378.582809,156.300836 376.648032,156.073263 C377.173624,156.987335 376.337248,158.198481 375.308917,158.358443 C374.280585,158.518406 373.279676,157.901407 372.5667,157.138157 C371.853724,156.374907 371.346413,155.447123 370.642578,154.683873 C369.938742,153.920623 368.933263,153.312765 367.900361,153.463587 C366.986289,153.600697 366.287024,154.295392 365.523773,154.811843 C364.760523,155.328294 363.695629,155.675641 362.964371,155.122628 C362.553039,154.816413 362.351943,154.295392 361.958892,153.961756 C360.948842,153.116239 359.376638,153.989178 358.631669,155.081494 C357.484508,156.772528 356.803524,157.796289 355.295305,158.559539 C355.295305,158.463562 355.295305,158.363014 355.295305,158.267036 C355.198173,152.55418 358.19034,147.233222 363.122265,144.348386 C368.054189,141.463551 374.15875,141.463551 379.090674,144.348386 C384.022599,147.233222 387.014766,152.55418 386.917634,158.267036 L386.908493,158.267036 Z" id="Path" fill="#000000" opacity="0.1"></path>
            <path d="M358.631669,154.624458 C359.376638,153.527572 360.948842,152.654633 361.958892,153.50472 C362.351943,153.833786 362.553039,154.354807 362.964371,154.665592 C363.695629,155.218605 364.765093,154.871258 365.523773,154.354807 C366.282453,153.838356 366.990859,153.143661 367.900361,153.00655 C368.928692,152.846588 369.929601,153.463587 370.642578,154.226837 C371.355554,154.990087 371.858294,155.91787 372.5667,156.681121 C373.275106,157.444371 374.276015,158.052229 375.308917,157.896837 C376.341818,157.741445 377.173624,156.525729 376.648032,155.611656 C378.581857,155.83892 380.240421,157.09684 380.980735,158.897746 C381.209898,159.680688 381.47992,160.451088 381.789689,161.205778 C382.205107,161.912249 382.773575,162.516636 383.4533,162.974508 C384.289676,163.591507 385.308867,164.107958 386.332628,163.929714 C387.356389,163.751469 388.224757,162.558605 387.74944,161.644533 C388.073935,162.142702 388.777771,161.448007 388.882889,160.863001 C389.115467,159.57846 389.043459,158.257272 388.672653,157.005616 C388.169913,155.305442 387.109589,153.623549 387.516351,151.895953 C387.840847,150.524844 389.006289,149.551357 389.714695,148.340212 C390.971544,146.192142 390.628767,143.312814 389.111407,141.338418 C387.501294,139.384928 385.057712,138.314164 382.530087,138.454521 C381.844098,138.530557 381.152534,138.542797 380.464284,138.491083 C379.317123,138.32198 378.343636,137.577011 377.429564,136.868605 L369.765068,130.899714 C368.91414,130.147722 367.933949,129.556201 366.87203,129.153836 C365.793425,128.820199 364.495442,128.934458 363.672777,129.734271 C362.237684,131.169365 363.147186,133.63736 362.57132,135.579763 C362.073151,137.261656 360.468954,138.404247 358.809913,138.970971 C357.150872,139.537696 355.373001,139.665666 353.663686,140.076999 C353.156826,140.161172 352.682665,140.382448 352.292578,140.716849 C351.850428,141.264897 351.636051,141.962032 351.693861,142.663823 C351.682001,144.382839 352.089903,146.078771 352.882154,147.604384 C353.768804,149.309128 355.167335,151.059577 354.678306,152.919714 C354.413225,153.902341 353.654545,154.656451 352.987273,155.424271 C351.543039,157.087883 351.05401,159.537597 353.777945,158.687509 C356.415044,157.864844 357.150872,156.79995 358.631669,154.624458 Z" id="Path" fill="#434175"></path>
            <g id="Group" opacity="0.1" transform="translate(351.460772, 141.681196)" fill="#000000">
                <path d="M37.4175467,17.3947945 C37.307858,17.9798007 36.6085928,18.6744956 36.2795268,18.1763263 C36.7365629,19.0903985 35.8864757,20.274122 34.8627148,20.4615068 C33.8389539,20.6488917 32.8243337,20.1187298 31.9833873,19.5063014 C31.3048146,19.046596 30.7379059,18.440644 30.3243462,17.7330012 C29.9404359,17.0154545 29.8170361,16.1836488 29.5153923,15.4249689 C28.7711005,13.6252133 27.1121429,12.3683213 25.1781196,12.1388792 C25.7082814,13.0529514 24.867335,14.2686675 23.8390037,14.4240598 C22.8106725,14.5794521 21.8097634,13.9670237 21.096787,13.2037733 C20.3838107,12.440523 19.8765006,11.5173101 19.172665,10.7494894 C18.4688294,9.98166874 17.4633499,9.37838107 16.4304483,9.52920299 C15.5163761,9.67088418 14.8171108,10.3610087 14.0538605,10.8774595 C13.2906102,11.3939103 12.2257161,11.7458281 11.4944583,11.1928144 C11.0831258,10.8820299 10.8866002,10.3610087 10.4935492,10.0319427 C9.47892902,9.18185554 7.90672478,10.0547945 7.16175592,11.1471108 C5.68552927,13.3226027 4.94970112,14.3966376 2.32631382,15.223873 C1.46708593,15.4935243 0.927783313,15.4341096 0.635280199,15.173599 C0.063985056,16.4944334 0.324495641,17.6553051 2.32631382,17.0245953 C4.94970112,16.1973599 5.68552927,15.1278954 7.16175592,12.9524035 C7.90672478,11.8555168 9.47892902,10.9825778 10.4935492,11.832665 C10.8866002,12.161731 11.0831258,12.6827522 11.4944583,12.9935367 C12.2302864,13.5465504 13.2951806,13.199203 14.0538605,12.6827522 C14.8125405,12.1663014 15.5209465,11.4716065 16.4304483,11.3344956 C17.4587796,11.174533 18.4596887,11.7915318 19.172665,12.5547821 C19.8856413,13.3180324 20.3883811,14.2458157 21.096787,15.009066 C21.805193,15.7723163 22.8061021,16.3801743 23.8390037,16.2247821 C24.8719054,16.0693898 25.7082814,14.8536737 25.1781196,13.9396015 C27.1136513,14.1652969 28.7742992,15.4234696 29.5153923,17.2256912 C29.7424957,18.0092939 30.0125555,18.7798033 30.3243462,19.5337235 C30.7384531,20.2397083 31.3053227,20.8440568 31.9833873,21.3024533 C32.8243337,21.9194521 33.8389539,22.4359029 34.8627148,22.2576588 C35.8864757,22.0794147 36.7548443,20.8865504 36.2795268,19.9724782 C36.6085928,20.4706476 37.307858,19.7759527 37.4175467,19.1909465 C37.5590861,18.4022088 37.5867902,17.59725 37.4998132,16.8006476 C37.4845787,16.9986966 37.4571565,17.1967455 37.4175467,17.3947945 Z" id="Path"></path>
                <path d="M3.1992528,9.51549191 C3.1992528,9.48806974 3.1992528,9.46978829 3.22210461,9.44236613 C3.72027397,7.5867995 2.30803238,5.83635118 1.42595268,4.13160648 C0.804614408,2.92862809 0.419843329,1.61761373 0.292503113,0.269651308 C0.258332183,0.508885798 0.240010806,0.750117253 0.23765878,0.991768369 C0.228001034,2.71053034 0.635777871,4.40594096 1.42595268,5.93232877 C2.04752179,7.09777086 2.89303861,8.28606476 3.1992528,9.51549191 Z" id="Path"></path>
                <path d="M38.2447821,4.87200498 C37.5363761,6.08315068 36.370934,7.06120797 36.0464384,8.42774595 C35.9161034,9.00395036 35.9161034,9.60198986 36.0464384,10.1781943 C36.3846451,8.83907846 37.5272354,7.87016189 38.2265006,6.67272727 C38.8908573,5.50362524 39.1389884,4.14373758 38.9303362,2.81534247 C38.8397471,3.53941263 38.6067528,4.23839535 38.2447821,4.87200498 Z" id="Path"></path>
            </g>
            <path d="M333.526675,229.208182 C333.646891,229.713192 333.739955,230.224282 333.805467,230.739253 C333.805467,230.739253 341.026638,247.649589 341.94071,248.650498 C342.219502,248.961283 343.279826,250.478643 344.614371,252.439328 L346.145442,254.697086 C348.887659,258.810411 351.990934,263.458468 351.990934,263.458468 L358.77335,269.381656 C358.77335,269.381656 373.485342,270.556239 378.160822,265.784782 C377.594097,265.387161 377.24675,265.176924 377.24675,265.176924 L375.235791,263.613861 C374.198319,261.863412 370.208394,260.154097 366.204757,258.814981 C362.502765,258.842403 359.472615,259.144047 359.472615,259.144047 L358.512839,256.607497 L357.50736,253.961258 L352.374844,240.515255 C352.374844,240.515255 349.075044,223.518082 347.978157,222.690847 C346.88127,221.863611 347.160062,219.30878 347.160062,219.30878 C347.160062,219.30878 349.166451,212.087609 348.435193,211.08213 C347.703935,210.07665 349.623487,202.677235 349.623487,202.677235 C349.435294,201.953156 349.139496,201.261422 348.745978,200.625143 L334.637273,227.444022 C334.637273,227.444022 334.157385,228.211843 333.526675,229.208182 Z" id="Path" fill="#000000" opacity="0.1"></path>
            <path d="M349.797161,202.133362 C349.797161,202.133362 347.877609,209.532777 348.608867,210.538257 C349.340125,211.543736 347.329166,218.764907 347.329166,218.764907 C347.329166,218.764907 347.059514,221.324309 348.151831,222.146974 C349.244147,222.969639 352.548518,239.971382 352.548518,239.971382 L359.628007,258.618456 C359.628007,258.618456 381.785118,256.424682 379.504508,263.371631 C377.223898,270.31858 358.937883,268.856065 358.937883,268.856065 L352.173748,262.914595 C352.173748,262.914595 343.033026,249.112105 342.118954,248.106625 C341.204882,247.101146 333.983711,230.19538 333.983711,230.19538 C333.983711,230.19538 333.618082,226.813313 332.064159,225.076575 C330.510237,223.339838 331.698531,220.401096 331.698531,220.401096 C331.698531,220.401096 329.778979,198.298829 331.789938,195.64802 C333.800897,192.99721 347.694795,194.180934 349.797161,202.133362 Z" id="Path" fill="#EE8E9E"></path>
            <path d="M338.467235,188.239465 L332.70858,191.712939 C332.70858,191.712939 331.06325,197.28878 329.783549,198.020037 C329.783549,198.020037 341.300859,191.621532 349.979975,206.333524 C349.979975,206.333524 349.705753,204.418543 350.894047,203.504471 C352.082341,202.590399 351.80812,198.659888 351.80812,198.659888 C352.124303,198.038847 352.399122,197.397601 352.630785,196.740336 C353.45345,194.729377 349.175592,183.212067 338.467235,188.239465 Z" id="Path" fill="#000000" opacity="0.1"></path>
            <path d="M338.284421,187.873836 L332.525766,191.34731 C332.525766,191.34731 330.880436,196.923151 329.600735,197.654408 C329.600735,197.654408 341.118045,191.255903 349.797161,205.967895 C349.797161,205.967895 349.522939,204.052914 350.711233,203.138842 C351.899527,202.22477 351.625305,198.294259 351.625305,198.294259 C351.941488,197.673218 352.216308,197.031972 352.44797,196.374707 C353.288917,194.363748 348.974496,182.846438 338.284421,187.873836 Z" id="Path" fill="#434175"></path>
            <ellipse id="Oval" fill="#FBD56F" cx="286.963836" cy="329.710423" rx="17.1662765" ry="18.2220299"></ellipse>
            <ellipse id="Oval" fill="#000000" opacity="0.1" cx="286.963836" cy="329.710423" rx="17.1662765" ry="18.2220299"></ellipse>
            <ellipse id="Oval" fill="#FBD56F" cx="289.92543" cy="330.117186" rx="17.1662765" ry="17.8152677"></ellipse>
            <ellipse id="Oval" fill="#38D39F" cx="41.1972354" cy="336.140922" rx="21.2019054" ry="3.58316314"></ellipse>
            <path d="M49.963188,330.277148 C50.8772603,329.431631 51.7227771,328.449004 51.987858,327.224147 C52.252939,325.99929 51.7319178,324.564197 50.5756164,324.120872 C49.2776339,323.622702 47.8882441,324.523064 46.837061,325.432565 C45.785878,326.342067 44.583873,327.374969 43.2081943,327.183014 C44.6477466,325.878801 45.2967354,323.914482 44.9175093,322.009365 C44.8631897,321.624042 44.7052198,321.260711 44.4604732,320.958182 C43.7429265,320.190361 42.4358032,320.501146 41.572005,321.127285 C38.8297883,323.055978 38.066538,326.780822 38.0528269,330.130897 C37.7740349,328.919751 38.0071233,327.662902 38.0025529,326.419763 C37.9979826,325.176625 37.6552055,323.805517 36.6314446,323.138244 C35.9788618,322.789012 35.2460275,322.617229 34.5062267,322.640075 C33.2722291,322.594371 31.9011208,322.717771 31.0601743,323.618132 C30.0135616,324.742441 30.283213,326.620859 31.1927148,327.854857 C32.1022167,329.088854 33.4778954,329.856675 34.7621669,330.711333 C35.7832783,331.321038 36.65473,332.151885 37.3124284,333.142765 C37.3908086,333.288087 37.4536186,333.441282 37.4998132,333.599801 L45.2282939,333.599801 C46.949178,332.710792 48.5419132,331.59311 49.963188,330.277148 Z" id="Path" fill="#38D39F"></path>
            <path d="M193.934134,136.918879 L211.264944,128.235193 L217.66345,134.098966 L219.18538,138.289988 L220.785006,145.332914 L219.377335,148.417908 L208.294209,150.438007 C208.294209,150.438007 202.389303,150.09523 201.47523,150.552267 C200.561158,151.009303 196.831743,151.799975 196.831743,151.799975 L193.934134,144.665641 L193.934134,136.918879 Z" id="Path" fill="#FBD56F"></path>
        </g>
    </g>
</svg>