<?xml version="1.0" encoding="UTF-8"?>
<svg width="62px" height="62px" viewBox="0 0 62 62" version="1.1" xmlns="http://www.w3.org/2000/svg" xmlns:xlink="http://www.w3.org/1999/xlink">
    <!-- Generator: Sketch 55.2 (78181) - https://sketchapp.com -->
    <title>cf-logo</title>
    <desc>Created with Sketch.</desc>
    <g id="Page-1" stroke="none" stroke-width="1" fill="none" fill-rule="evenodd">
        <g id="Artboard-Copy-2" transform="translate(-2.000000, -2.000000)">
            <g id="cf-logo" transform="translate(3.000000, 3.000000)">
                <circle id="Oval" stroke="#25403C" fill-opacity="0.5" fill="#FFFFFF" cx="30" cy="30" r="30"></circle>
                <g id="Group" transform="translate(14.000000, 13.000000)" fill="#25403C">
                    <g id="Group-2-Copy" transform="translate(0.000000, 10.000000)">
                        <path d="M15.6725397,7.27758958 L31.8566607,7.29118537 C32.9236658,7.29208172 33.7884206,8.15683652 33.789317,9.22384158 C33.7902115,10.2885318 32.9278346,11.1523589 31.8631443,11.1532534 C31.8620647,11.1532543 31.860985,11.1532543 31.8599053,11.1532534 L11.8137163,11.1364132 C11.8119274,9.00703267 13.5366811,7.2793785 15.6660617,7.27758958 C15.668221,7.27758777 15.6703804,7.27758777 15.6725397,7.27758958 Z" id="Rectangle" transform="translate(22.800706, 9.214610) rotate(45.000000) translate(-22.800706, -9.214610) "></path>
                        <path d="M12.9711593,8.27569267 L20.1435713,8.28171814 C21.2105764,8.28261452 22.0753312,9.14736933 22.0762275,10.2143744 C22.077122,11.2790646 21.2147451,12.1428917 20.1500548,12.1437862 C20.1489751,12.1437871 20.1478955,12.1437871 20.1468158,12.1437862 L9.11233574,12.1345162 C9.11054687,10.0051357 10.8353007,8.27748154 12.9646812,8.27569267 C12.9668405,8.27569085 12.9689999,8.27569085 12.9711593,8.27569267 Z" id="Rectangle-Copy-2" transform="translate(15.593471, 10.208928) rotate(45.000000) translate(-15.593471, -10.208928) "></path>
                        <path d="M2.77555762,7.26603995 L18.9596435,7.27963576 C20.0266486,7.28053212 20.8914034,8.14528692 20.8922998,9.21229198 C20.8931943,10.2769822 20.0308174,11.1408093 18.9661271,11.1417038 C18.9650475,11.1417047 18.9639678,11.1417047 18.9628881,11.1417038 L-1.08326584,11.1248635 C-1.08505475,8.99548303 0.639699031,7.26782886 2.76907955,7.26603995 C2.77123891,7.26603814 2.77339827,7.26603814 2.77555762,7.26603995 Z" id="Rectangle-Copy" transform="translate(9.903706, 9.203061) scale(-1, 1) rotate(45.000000) translate(-9.903706, -9.203061) "></path>
                    </g>
                    <g id="Group-Copy" transform="translate(1.000000, 0.000000)">
                        <path d="M14.862663,8.15454211 L30.8061924,8.0510127 C31.8432763,8.04427839 32.6894581,8.87954174 32.6961924,9.91662561 C32.6962452,9.92475455 32.6962452,9.93288376 32.6961924,9.9410127 C32.6893443,10.9956259 31.8360998,11.8488704 30.7814866,11.8557186 L11.0332513,11.9839539 C11.0469475,9.87472739 12.7534365,8.16823839 14.862663,8.15454211 Z" id="Rectangle" transform="translate(21.870898, 10.011307) rotate(45.000000) translate(-21.870898, -10.011307) "></path>
                        <path d="M2.06382353,8.14323529 L18.0073529,8.03970588 C19.0444368,8.03297157 19.8906186,8.86823492 19.8973529,9.90531879 C19.8974057,9.91344773 19.8974057,9.92157694 19.8973529,9.92970588 C19.8905048,10.9843191 19.0372603,11.8375636 17.9826471,11.8444118 L-1.76558824,11.9726471 C-1.75189196,9.86342057 -0.0454029571,8.15693157 2.06382353,8.14323529 Z" id="Rectangle-Copy" transform="translate(9.072059, 10.000000) scale(-1, 1) rotate(45.000000) translate(-9.072059, -10.000000) "></path>
                    </g>
                </g>
            </g>
        </g>
    </g>
</svg>