<?xml version="1.0" encoding="UTF-8"?>
<svg width="62px" height="62px" viewBox="0 0 62 62" version="1.1" xmlns="http://www.w3.org/2000/svg" xmlns:xlink="http://www.w3.org/1999/xlink">
    <!-- Generator: Sketch 55.2 (78181) - https://sketchapp.com -->
    <title>cf-logo</title>
    <desc>Created with Sketch.</desc>
    <g id="Page-1" stroke="none" stroke-width="1" fill="none" fill-rule="evenodd">
        <g id="Artboard" transform="translate(-2.000000, -2.000000)">
            <g id="cf-logo" transform="translate(3.000000, 3.000000)">
                <circle id="Oval" stroke="#25403C" fill="#FFFFFF" cx="30" cy="30" r="30"></circle>
                <g id="Group" transform="translate(9.000000, 11.000000)" fill="#25403C">
                    <g id="Group-2-Copy" transform="translate(0.000000, 12.000000)">
                        <path d="M20.555542,9.56733863 L41.8235567,9.61182392 C43.226782,9.61475898 44.3635904,10.7515674 44.3665254,12.1547927 C44.3694447,13.5504533 43.2404047,14.6842264 41.844744,14.6871456 C41.8412202,14.687153 41.8376963,14.687153 41.8341725,14.6871456 L15.4908361,14.6320445 C15.4849976,11.8407232 17.7430776,9.5731771 20.534399,9.56733863 C20.5414466,9.56732389 20.5484943,9.56732389 20.555542,9.56733863 Z" id="Rectangle" transform="translate(29.926027, 12.124588) rotate(45.000000) translate(-29.926027, -12.124588) "></path>
                        <path d="M17.0171539,10.887936 L26.4427513,10.907651 C27.8459766,10.9105861 28.982785,12.0473945 28.98572,13.4506198 C28.9886393,14.8462804 27.8595993,15.9800535 26.4639386,15.9829727 C26.4604148,15.9829801 26.4568909,15.9829801 26.4533671,15.9829727 L11.952448,15.9526418 C11.9466095,13.1613205 14.2046895,10.8937744 16.9960109,10.887936 C17.0030585,10.8879212 17.0101062,10.8879212 17.0171539,10.887936 Z" id="Rectangle-Copy-2" transform="translate(20.466430, 13.432800) rotate(45.000000) translate(-20.466430, -13.432800) "></path>
                        <path d="M3.62804458,9.55212546 L24.8960593,9.59661075 C26.2992846,9.59954581 27.436093,10.7363542 27.439028,12.1395795 C27.4419473,13.5352402 26.3129073,14.6690132 24.9172466,14.6719324 C24.9137228,14.6719398 24.9101989,14.6719398 24.9066751,14.6719324 L-1.43666131,14.6168313 C-1.44249978,11.82551 0.815580245,9.55796393 3.60690159,9.55212546 C3.61394925,9.55211072 3.62099692,9.55211072 3.62804458,9.55212546 Z" id="Rectangle-Copy" transform="translate(12.998529, 12.109375) scale(-1, 1) rotate(45.000000) translate(-12.998529, -12.109375) "></path>
                    </g>
                    <g id="Group-Copy" transform="translate(1.000000, 0.000000)">
                        <path d="M19.6094092,9.51169341 L40.7811739,9.4599287 C42.1695369,9.45653417 43.2977793,10.579273 43.3011739,11.967636 C43.3011839,11.9717336 43.3011839,11.9758311 43.3011739,11.9799287 C43.2977578,13.3770912 42.1659834,14.5088656 40.7688209,14.5122816 L14.5447033,14.5763993 C14.5515354,11.7820743 16.8150842,9.5185255 19.6094092,9.51169341 Z" id="Rectangle" transform="translate(28.926027, 12.015076) rotate(45.000000) translate(-28.926027, -12.015076) "></path>
                        <path d="M2.68191176,9.49661765 L23.8536765,9.44485294 C25.2420395,9.44145841 26.3702819,10.5641972 26.3736765,11.9525603 C26.3736865,11.9566578 26.3736865,11.9607554 26.3736765,11.9648529 C26.3702604,13.3620154 25.238486,14.4937898 23.8413235,14.4972059 L-2.38279412,14.5613235 C-2.37596203,11.7669985 -0.112413219,9.50344974 2.68191176,9.49661765 Z" id="Rectangle-Copy" transform="translate(11.998529, 12.000000) scale(-1, 1) rotate(45.000000) translate(-11.998529, -12.000000) "></path>
                    </g>
                </g>
            </g>
        </g>
    </g>
</svg>