<?xml version="1.0" encoding="UTF-8"?>
<svg width="66px" height="66px" viewBox="0 0 66 66" version="1.1" xmlns="http://www.w3.org/2000/svg" xmlns:xlink="http://www.w3.org/1999/xlink">
    <!-- Generator: Sketch 55.2 (78181) - https://sketchapp.com -->
    <title>Group 3</title>
    <desc>Created with Sketch.</desc>
    <g id="CF-Branding" stroke="none" stroke-width="1" fill="none" fill-rule="evenodd">
        <g id="Artboard-Copy-7" transform="translate(-17.000000, -568.000000)">
            <g id="Group-3" transform="translate(18.000000, 569.000000)">
                <g id="Group-4" stroke="#979797">
                    <circle id="Oval" cx="32" cy="32" r="32"></circle>
                </g>
                <g id="Group" transform="translate(14.000000, 15.000000)" fill="#FFFFFF" stroke="#000000">
                    <path d="M4.38954729,17.0864195 L17.9602273,4.26966615 L31.5442094,17.0989826 C32.2340098,17.7504608 33.3123309,17.7504608 34.0021313,17.0989826 C34.0234873,17.0788131 34.0442628,17.0580376 34.0644323,17.0366816 C34.6493663,16.4173397 34.6214732,15.4410813 34.0021313,14.8561473 L20.8249885,2.41106791 C20.1589234,1.7820065 19.3174922,1.40436293 18.4109813,1.31549333 C17.2110793,1.16783492 16.003199,1.55376461 15.1087682,2.39850478 L1.93162538,14.8435841 C1.3122835,15.4285181 1.2843904,16.4047766 1.8693244,17.0241185 C1.88949393,17.0454745 1.9102694,17.0662499 1.93162538,17.0864195 C2.62142578,17.7378976 3.69974689,17.7378976 4.38954729,17.0864195 Z" id="Combined-Shape"></path>
                </g>
                <g id="Group-2" transform="translate(14.000000, 27.000000)" fill="#FFFFFF" stroke="#000000">
                    <path d="M16.0497622,6.83172053 L15.6305526,6.46991446 L17.9602273,4.26966615 L31.5442094,17.0989826 C32.2340098,17.7504608 33.3123309,17.7504608 34.0021313,17.0989826 C34.0234873,17.0788131 34.0442628,17.0580376 34.0644323,17.0366816 C34.6493663,16.4173397 34.6214732,15.4410813 34.0021313,14.8561473 L20.8249885,2.41106791 C20.1589234,1.7820065 19.3174922,1.40436293 18.4109813,1.31549333 C17.2110793,1.16783492 16.003199,1.55376461 15.1087682,2.39850478 L1.93162538,14.8435841 C1.3122835,15.4285181 1.2843904,16.4047766 1.8693244,17.0241185 C1.88949393,17.0454745 1.9102694,17.0662499 1.93162538,17.0864195 C2.62142578,17.7378976 3.69974689,17.7378976 4.38954729,17.0864195 L13.2352941,8.73210301 L19.5695856,14.7144895 C20.259386,15.3659676 21.3377071,15.3659676 22.0275076,14.7144895 C22.0488635,14.6943199 22.069639,14.6735444 22.0898085,14.6521885 C22.6747425,14.0328466 22.6468494,13.0565881 22.0275076,12.4716541 L16.1876374,6.95622123 C16.1424996,6.91359104 16.0965323,6.87208624 16.0497622,6.83172053 Z" id="Combined-Shape"></path>
                </g>
            </g>
        </g>
    </g>
</svg>