<?xml version="1.0" encoding="UTF-8"?>
<svg width="60px" height="60px" viewBox="0 0 60 60" version="1.1" xmlns="http://www.w3.org/2000/svg" xmlns:xlink="http://www.w3.org/1999/xlink">
    <!-- Generator: Sketch 50.2 (55047) - http://www.bohemiancoding.com/sketch -->
    <title>np_compass_786120_000000 copy</title>
    <desc>Created with Sketch.</desc>
    <defs></defs>
    <g id="Page-1" stroke="none" stroke-width="1" fill="none" fill-rule="evenodd">
        <g id="np_compass_786120_000000-copy" fill="#26403C" fill-rule="nonzero">
            <path d="M31.5208028,15.7352004 C31.1113871,14.7549332 29.6663915,14.7549332 29.2569512,15.7352004 L18.2505841,43.3950482 C17.8291275,44.3871069 18.9249491,45.3555825 19.9243509,44.8713447 L29.9189855,39.0370288 C30.2681966,38.8716817 30.6655467,38.8716817 31.0147516,39.0370288 L40.8651172,44.8713447 C41.8645807,45.3555704 42.9603467,44.387119 42.538884,43.3950482 L31.5208028,15.7352004 Z" id="Shape"></path>
            <path d="M30,9.73506855e-16 C13.4528009,9.73506855e-16 0,13.4648955 0,30 C0,46.5351045 13.4528009,60 30,60 C46.5471991,60 60,46.5351045 60,30 C60,13.4648955 46.5471991,0 30,9.73506855e-16 Z M30,54.0004838 C16.7715535,54.0004838 5.99951622,43.2290512 5.99951622,30 C5.99951622,16.7709488 16.7709488,5.99951622 30,5.99951622 C43.2290512,5.99951622 54.0004838,16.7709488 54.0004838,30 C54.0004838,43.2290512 43.2290512,54.0004838 30,54.0004838 Z" id="Shape"></path>
        </g>
    </g>
</svg>