<?xml version="1.0" encoding="UTF-8"?>
<svg width="553px" height="367px" viewBox="0 0 553 367" version="1.1" xmlns="http://www.w3.org/2000/svg" xmlns:xlink="http://www.w3.org/1999/xlink">
    <!-- Generator: Sketch 52.5 (67469) - http://www.bohemiancoding.com/sketch -->
    <title>consult</title>
    <desc>Created with Sketch.</desc>
    <defs>
        <linearGradient x1="0.109487385%" y1="50.0124825%" x2="100.000251%" y2="50.0124825%" id="linearGradient-1">
            <stop stop-color="#808080" stop-opacity="0.25" offset="0%"></stop>
            <stop stop-color="#808080" stop-opacity="0.12" offset="54%"></stop>
            <stop stop-color="#808080" stop-opacity="0.1" offset="100%"></stop>
        </linearGradient>
    </defs>
    <g id="Page-1" stroke="none" stroke-width="1" fill="none" fill-rule="evenodd">
        <g id="consult">
            <path d="M317.09973,69.6959919 C282.994013,68.5105013 250.511375,57.5038799 219.493722,45.4592956 C188.47607,33.4147112 157.737713,20.0687217 124.459345,13.688148 C103.048417,9.58371611 78.5652338,9.00414294 61.3121257,20.4796918 C44.7124645,31.5442705 39.3478756,50.5911526 36.4600615,68.2839409 C34.294201,81.5930485 33.0189254,95.5976439 38.963185,108.058467 C43.0893865,116.709914 50.4195861,123.980923 55.4890699,132.268819 C73.1215989,161.09995 60.6586787,196.65413 41.5453545,224.80558 C32.5868072,238.014579 22.1843529,250.62293 15.2651925,264.669676 C8.34603219,278.716423 5.14730383,294.833826 11.1969581,309.175627 C17.1991848,323.401514 31.4959724,334.065661 46.9837197,341.573768 C78.4334905,356.82708 115.490258,361.189685 151.645901,363.660774 C231.650998,369.135107 312.088213,366.764125 392.3041,364.393144 C421.993779,363.513247 451.815202,362.622812 481.020067,358.033646 C497.235037,355.483524 513.982251,351.442318 525.754836,341.673876 C540.699801,329.276279 544.404424,308.279923 534.39193,292.736825 C517.592018,266.661301 471.155125,260.185888 459.398349,232.197772 C452.932386,216.796932 459.57225,199.641566 468.962916,185.352453 C489.114378,154.708839 522.888101,127.821912 524.669271,92.7946173 C525.891849,68.7317929 509.6558,44.6426243 484.550788,33.2566458 C458.233738,21.3279762 421.746102,22.8243287 402.342942,42.5772362 C382.339033,62.9149858 347.210988,70.7392236 317.09973,69.6959919 Z" id="Path" fill="#38D39F" opacity="0.1"></path>
            <g id="abffebd3-2ac6-4c6b-a0d4-e62621854ed7" opacity="0.6" transform="translate(55.000000, 27.000000)">
                <path d="M81.1846243,102.846821 C81.1846243,102.846821 66.7245665,77.1285128 44.952948,69.7177949 C35.8106729,66.6611827 27.9007412,60.712334 22.4080925,52.7624103 C19.8266751,48.9662928 17.5975624,44.9403402 15.7487861,40.7351795" id="Path" stroke="#535461" stroke-width="2"></path>
                <path d="M2.03040462,35.9813333 C4.50791908,38.4005128 16.0643931,40.8989231 16.0643931,40.8989231 C16.0643931,40.8989231 13.2291908,29.3787692 10.7464162,26.9595897 C9.1496835,25.3528334 6.81429096,24.7353854 4.63663393,25.3442413 C2.4589769,25.9530971 0.777400705,27.693658 0.237345931,29.8978433 C-0.302708844,32.1020287 0.382666793,34.4273713 2.03040462,35.9813333 Z" id="Path" fill="#38D39F"></path>
                <path d="M8.56346821,56.8454359 C11.9562428,57.5215385 23.0077457,53.3117436 23.0077457,53.3117436 C23.0077457,53.3117436 14.3916763,45.1879487 10.9989017,44.5118462 C8.80486763,44.0749835 6.54540096,44.8466903 5.071621,46.5362721 C3.59784103,48.2258538 3.13365002,50.5766228 3.85390421,52.7030671 C4.57415841,54.8295113 6.36943407,56.4085734 8.56346821,56.8454359 Z" id="Path" fill="#38D39F"></path>
                <path d="M32.3654913,79.3945128 C35.6320231,78.2588718 43.0593064,69.0258462 43.0593064,69.0258462 C43.0593064,69.0258462 31.5343931,66.3848205 28.2678613,67.5151795 C25.001097,68.6514275 23.270147,72.2318178 24.4016763,75.5122051 C25.5332056,78.7925924 29.098727,80.5307608 32.3654913,79.3945128 Z" id="Path" fill="#38D39F"></path>
                <path d="M54.2002312,92.3989231 C57.6140462,91.8337436 66.4878613,83.9898974 66.4878613,83.9898974 C66.4878613,83.9898974 55.5783815,79.4262051 52.1645665,79.9913846 C48.7525481,80.5558622 46.4422599,83.7909837 47.0043932,87.2172308 C47.5665264,90.6434779 50.7882129,92.9634005 54.2002312,92.3989231 Z" id="Path" fill="#38D39F"></path>
                <path d="M32.6442775,44.2952821 C32.6442775,47.7708718 26.39,57.8384615 26.39,57.8384615 C26.39,57.8384615 20.1252023,47.8025641 20.1252023,44.3005641 C20.1252023,40.8291004 22.9276927,38.0149231 26.3847399,38.0149231 C29.841787,38.0149231 32.6442775,40.8291004 32.6442775,44.3005641 L32.6442775,44.2952821 Z" id="Path" fill="#38D39F"></path>
                <path d="M57.9927746,59.8245128 C56.9407514,63.141641 47.9985549,70.8692821 47.9985549,70.8692821 C47.9985549,70.8692821 45.0213295,59.3808205 46.0523121,56.0795385 C47.0850687,52.7656034 50.5976018,50.9198341 53.8977746,51.9568974 C57.1979473,52.9939607 59.0360513,56.5211418 58.0032948,59.8350769 L57.9927746,59.8245128 Z" id="Path" fill="#38D39F"></path>
                <path d="M80.5639306,78.3116923 C80.1063006,81.7555897 72.5632948,90.8988205 72.5632948,90.8988205 C72.5632948,90.8988205 67.6924277,80.0811795 68.1553179,76.6372821 C68.6157735,73.1964491 71.7668089,70.7819323 75.1933526,71.244308 C78.6198962,71.7066836 81.0243859,74.8708593 80.5639306,78.3116923 Z" id="Path" fill="#38D39F"></path>
                <path d="M2.03040462,35.9813333 C4.50791908,38.4005128 16.0643931,40.8989231 16.0643931,40.8989231 C16.0643931,40.8989231 13.2291908,29.3787692 10.7464162,26.9595897 C9.1496835,25.3528334 6.81429096,24.7353854 4.63663393,25.3442413 C2.4589769,25.9530971 0.777400705,27.693658 0.237345931,29.8978433 C-0.302708844,32.1020287 0.382666793,34.4273713 2.03040462,35.9813333 Z" id="Path" fill="#000000" opacity="0.25"></path>
                <path d="M8.56346821,56.8454359 C11.9562428,57.5215385 23.0077457,53.3117436 23.0077457,53.3117436 C23.0077457,53.3117436 14.3916763,45.1879487 10.9989017,44.5118462 C8.80486763,44.0749835 6.54540096,44.8466903 5.071621,46.5362721 C3.59784103,48.2258538 3.13365002,50.5766228 3.85390421,52.7030671 C4.57415841,54.8295113 6.36943407,56.4085734 8.56346821,56.8454359 Z" id="Path" fill="#000000" opacity="0.25"></path>
                <path d="M32.3654913,79.3945128 C35.6320231,78.2588718 43.0593064,69.0258462 43.0593064,69.0258462 C43.0593064,69.0258462 31.5343931,66.3848205 28.2678613,67.5151795 C25.001097,68.6514275 23.270147,72.2318178 24.4016763,75.5122051 C25.5332056,78.7925924 29.098727,80.5307608 32.3654913,79.3945128 Z" id="Path" fill="#000000" opacity="0.25"></path>
                <path d="M54.2002312,92.3989231 C57.6140462,91.8337436 66.4878613,83.9898974 66.4878613,83.9898974 C66.4878613,83.9898974 55.5783815,79.4262051 52.1645665,79.9913846 C48.7525481,80.5558622 46.4422599,83.7909837 47.0043932,87.2172308 C47.5665264,90.6434779 50.7882129,92.9634005 54.2002312,92.3989231 Z" id="Path" fill="#000000" opacity="0.25"></path>
                <path d="M32.6442775,44.2952821 C32.6442775,47.7708718 26.39,57.8384615 26.39,57.8384615 C26.39,57.8384615 20.1252023,47.8025641 20.1252023,44.3005641 C20.1252023,40.8291004 22.9276927,38.0149231 26.3847399,38.0149231 C29.841787,38.0149231 32.6442775,40.8291004 32.6442775,44.3005641 L32.6442775,44.2952821 Z" id="Path" fill="#000000" opacity="0.25"></path>
                <path d="M57.9927746,59.8245128 C56.9407514,63.141641 47.9985549,70.8692821 47.9985549,70.8692821 C47.9985549,70.8692821 45.0213295,59.3808205 46.0523121,56.0795385 C47.0850687,52.7656034 50.5976018,50.9198341 53.8977746,51.9568974 C57.1979473,52.9939607 59.0360513,56.5211418 58.0032948,59.8350769 L57.9927746,59.8245128 Z" id="Path" fill="#000000" opacity="0.25"></path>
                <path d="M80.5639306,78.3116923 C80.1063006,81.7555897 72.5632948,90.8988205 72.5632948,90.8988205 C72.5632948,90.8988205 67.6924277,80.0811795 68.1553179,76.6372821 C68.6157735,73.1964491 71.7668089,70.7819323 75.1933526,71.244308 C78.6198962,71.7066836 81.0243859,74.8708593 80.5639306,78.3116923 Z" id="Path" fill="#000000" opacity="0.25"></path>
                <path d="M80.353526,102.339744 C80.353526,102.339744 77.5130636,72.9398462 60.5965318,57.3049744 C53.4621292,50.7913874 48.622879,42.1307771 46.8045087,32.6219487 C45.9704479,28.1010611 45.5513875,23.5128397 45.5525985,18.9150256" id="Path" stroke="#535461" stroke-width="2"></path>
                <path d="M34.9692486,8.99533333 C36.263237,12.2173846 45.8156069,19.2055385 45.8156069,19.2055385 C45.8156069,19.2055385 47.8775723,7.51635897 46.5835838,4.29430769 C45.7473139,2.21095453 43.8677287,0.733862016 41.6528498,0.419436639 C39.4379708,0.105011262 37.224291,1.00102172 35.845682,2.76994952 C34.467073,4.53887732 34.1329785,6.91198024 34.9692486,8.99533333 Z" id="Path" fill="#38D39F"></path>
                <path d="M32.533815,30.7204103 C35.3584971,32.7170256 47.1621965,33.3614359 47.1621965,33.3614359 C47.1621965,33.3614359 42.5648555,22.4275897 39.7349133,20.4309744 C36.9068163,18.4341534 33.00217,19.1175965 31.0136416,21.9574872 C29.0251132,24.7973778 29.7057181,28.7183073 32.533815,30.7151282 L32.533815,30.7204103 Z" id="Path" fill="#38D39F"></path>
                <path d="M45.1843931,61.0341026 C48.6297688,61.3246154 59.15,55.8999487 59.15,55.8999487 C59.15,55.8999487 49.6817919,48.7955897 46.2364162,48.5050769 C42.7909895,48.2133574 39.7624159,50.7815899 39.4719078,54.2413846 C39.1813996,57.7011794 41.7389664,60.7423828 45.1843931,61.0341026 Z" id="Path" fill="#38D39F"></path>
                <path d="M59.9021965,81.8031282 C63.2528902,82.6746667 74.530578,79.1145641 74.530578,79.1145641 C74.530578,79.1145641 66.3931792,70.5048205 63.0477457,69.6068718 C60.8431797,68.9084104 58.4347202,69.4869171 56.783525,71.1115238 C55.1323299,72.7361304 54.5072315,75.1423337 55.1576914,77.369876 C55.8081514,79.5974184 57.6282678,81.2836319 59.8916763,81.7555897 L59.9021965,81.8031282 Z" id="Path" fill="#38D39F"></path>
                <path d="M59.6076301,29.0565641 C58.2084393,32.2257949 48.4246243,38.8917436 48.4246243,38.8917436 C48.4246243,38.8917436 46.7571676,27.1444615 48.1563584,23.9699487 C49.5551552,20.7945805 53.2525585,19.3591135 56.4147399,20.7637436 C59.5769212,22.1683736 61.0064269,25.8811959 59.6076301,29.0565641 Z" id="Path" fill="#38D39F"></path>
                <path d="M76.5136416,53.5705641 C74.2307514,56.1746154 62.9109827,59.5921026 62.9109827,59.5921026 C62.9109827,59.5921026 64.8204046,47.8817949 67.1190751,45.2724615 C69.4010168,42.6630294 73.3574738,42.4052602 75.9560694,44.6967179 C78.5546649,46.9881757 78.8113636,50.9611319 76.529422,53.5705641 L76.5136416,53.5705641 Z" id="Path" fill="#38D39F"></path>
                <path d="M89.6849711,79.6533333 C87.8754913,82.6112821 77.2973988,87.9038974 77.2973988,87.9038974 C77.2973988,87.9038974 77.2079769,76.0351282 79.0174566,73.0718974 C80.8273225,70.1138603 84.6825131,69.189202 87.6282659,71.0066154 C90.5740187,72.8240287 91.494837,76.6952962 89.6849711,79.6533333 Z" id="Path" fill="#38D39F"></path>
            </g>
            <path d="M77.4730285,87 C77.4730285,87 154.517728,90.1627907 165,87 C165,87 159.23475,216.674419 161.331205,220.891473 C161.331205,220.891473 75.9006877,225.635659 69.6113245,220.891473 C63.3219612,216.147287 77.4730285,87 77.4730285,87 Z" id="Path" stroke="#33313F" stroke-width="3" fill="#FFFFFF"></path>
            <path d="M89,112 C89,112 124.868132,168.745763 137,174" id="Path" stroke="#33313F" stroke-width="3" fill="#FFFFFF"></path>
            <path d="M137,112 C137,112 103.2,156.736842 98,172" id="Path" stroke="#33313F" stroke-width="3" fill="#FFFFFF"></path>
            <path d="M134,195 L92.1764706,195 C89,195 89,210 89,210 L134,210 L134,195 Z" id="Path" stroke="#33313F" stroke-width="3" fill="#FFFFFF"></path>
            <path d="M222.964697,87.6419447 C222.964697,87.6419447 297.293905,83.9475691 311,87.6419447 C311,87.6419447 305.201267,217.472856 307.309897,221.695 C307.309897,221.695 212.337202,229.13125 215.057335,221.695 C220.856067,205.861962 222.964697,87.6419447 222.964697,87.6419447 Z" id="Path" stroke="#33313F" stroke-width="3" fill="#FFFFFF"></path>
            <path d="M252,97 C252,97 268.437143,123.545171 274,126" id="Path" stroke="#33313F" stroke-width="3" fill="#FFFFFF"></path>
            <path d="M274,97 C274,97 258.40208,117.874952 256,125" id="Path" stroke="#33313F" stroke-width="3" fill="#FFFFFF"></path>
            <path d="M293,143 L237.210526,143 C233,143 233,158 233,158 L293,158 L293,143 Z" id="Path" stroke="#33313F" stroke-width="3" fill="#FFFFFF"></path>
            <path d="M285,190 L243.176471,190 C240,190 240,205 240,205 L285,205 L285,190 Z" id="Path" stroke="#33313F" stroke-width="3" fill="#FFFFFF"></path>
            <path d="M292.768713,164.246272 C296.989223,164.246272 242.112107,168.988542 237.194296,164.246272 C234.604318,161.753946 233,179 233,179 L292.768713,179 L292.768713,164.246272 Z" id="Path" stroke="#33313F" stroke-width="3" fill="#FFFFFF"></path>
            <polyline id="Path" stroke="#33313F" stroke-width="3" fill="#FFFFFF" points="257 196.8 260.176471 200 266 192"></polyline>
            <path d="M365.130903,89 C365.130903,89 438.793619,97.9395267 453,89 C453,89 447.212215,218.36021 449.316864,222.567046 C449.316864,222.567046 351.555917,228.041192 357.238469,222.567046 C371.44485,208.894829 365.130903,89 365.130903,89 Z" id="Path" stroke="#33313F" stroke-width="3" fill="#FFFFFF"></path>
            <path d="M375,112 C375,112 385.458519,128.457143 389,130" id="Path" stroke="#33313F" stroke-width="3" fill="#FFFFFF"></path>
            <path d="M389,111 C389,111 378.583071,124.444116 377,129" id="Path" stroke="#33313F" stroke-width="3" fill="#FFFFFF"></path>
            <path d="M436,146 L380.210526,146 C376,146 376,154 376,154 L436,154 L436,146 Z" id="Path" stroke="#33313F" stroke-width="3" fill="#FFFFFF"></path>
            <path d="M405,169 L433.714421,169 C437.875177,169 437.875177,177 437.875177,177 L438,177" id="Path" stroke="#33313F" stroke-width="3" fill="#FFFFFF"></path>
            <path d="M435.768713,158.131177 C439.989223,158.131177 385.112107,160.660252 380.194296,158.131177 C377.604318,156.802881 376,166 376,166 L435.768713,166 L435.768713,158.131177 Z" id="Path" stroke="#33313F" stroke-width="3" fill="#FFFFFF"></path>
            <path d="M365,99 C365,99 446.743552,104.324038 452,100.787057" id="Path" stroke="#33313F" stroke-width="3" fill="#FFFFFF"></path>
            <path d="M442,94.5008074 C443.177778,94.1741939 444.388889,94.6387109 445.583333,94.8782275 C446.777778,95.1177441 448.133333,95.0887118 449,94" id="Path" stroke="#33313F" stroke-width="2" fill="#FFFFFF"></path>
            <path d="M441,96.066565 C443.309677,96.8553744 445.659594,97.1071512 448,96.816565" id="Path" stroke="#33313F" stroke-width="2" fill="#FFFFFF"></path>
            <path d="M441,100 C442.985691,99.4981045 444.988908,99.1642351 447,99" id="Path" stroke="#33313F" stroke-width="2" fill="#FFFFFF"></path>
            <path d="M369.405682,95.3697913 C370.346011,95.8034694 371.375431,96.0105092 372.410799,95.9741886 C373.063479,96.0633037 373.726765,95.9200383 374.283989,95.5695921 C374.940106,95.04012 374.9952,94.0710864 374.9952,93.2269282 C375.014212,92.9705015 374.976599,92.7130366 374.885012,92.4726803 C374.758559,92.2426289 374.573762,92.0497178 374.349099,91.9132382 C373.111993,91.0540949 370.813078,90.7044436 369.365614,91.2888608 C367.382236,92.0880638 367.702782,94.4457128 369.405682,95.3697913 Z" id="Path" stroke="#33313F" stroke-width="2" fill="#FFFFFF"></path>
            <path d="M392.766125,108 C392.460751,111.915586 393.392667,115.804715 394.01921,119.683261 C394.80972,124.57952 395.123597,129.541544 394.95639,134.498991 C386.648124,135.006958 378.329327,135.128659 370,134.864093 C370.773964,134.890549 370.579157,117.169878 370.652868,115.540148 C370.747639,113.455363 370.305374,109.86784 372.711507,109.084723 C375.238736,108.253984 378.797917,108.767243 381.451508,108.640251 C385.221292,108.463873 388.992831,108.250456 392.766125,108 Z" id="Path" stroke="#33313F" stroke-width="3" fill="#FFFFFF"></path>
            <path d="M178,147.944444 C178,147.944444 198.347826,145.944444 202,147.944444" id="Path" stroke="#33313F" stroke-width="3"></path>
            <path d="M201.727273,137 C201.727273,137 211,146.153846 211,148.307692 C211,150.461538 199,158 199,158" id="Path" stroke="#33313F" stroke-width="3"></path>
            <path d="M320,147.944444 C320,147.944444 340.347826,145.944444 344,147.944444" id="Path" stroke="#33313F" stroke-width="3"></path>
            <path d="M343.727273,137 C343.727273,137 353,146.153846 353,148.307692 C353,150.461538 341,158 341,158" id="Path" stroke="#33313F" stroke-width="3"></path>
            <circle id="Oval" fill="#38D39F" opacity="0.1" cx="198.5" cy="11.5" r="11.5"></circle>
            <circle id="Oval" fill="#38D39F" opacity="0.1" cx="372.5" cy="27.5" r="11.5"></circle>
            <circle id="Oval" fill="#38D39F" opacity="0.1" cx="493.5" cy="196.5" r="11.5"></circle>
            <circle id="Oval" fill="#38D39F" opacity="0.1" cx="534" cy="145" r="19"></circle>
            <circle id="Oval" fill="#38D39F" opacity="0.1" cx="509" cy="238" r="19"></circle>
            <circle id="Oval" fill="#38D39F" opacity="0.1" cx="19" cy="178" r="19"></circle>
            <path d="M457.34445,204.388708 C457.328769,203.751379 457.249045,203.117224 457.106475,202.495754 C456.625237,200.718802 455.556993,198.562206 453.785401,198.024375 C451.963797,197.466667 450.204197,196.724604 448.534085,195.809776 C448.211496,190.157278 449.517715,184.372959 448.095153,178.894465 C447.566319,176.890781 446.699033,174.971463 446.461058,172.91505 C446.170199,170.368262 446.873548,167.642197 445.852899,165.290505 C445.049072,163.439734 443.282768,162.126793 441.378968,161.441323 C439.475168,160.755852 437.43387,160.576575 435.419015,160.386752 C432.880614,160.175838 424.662542,159.205633 421.801553,161.47296 C421.602651,161.624614 421.42482,161.801925 421.27272,162.000245 C421.206603,162.086366 421.148207,162.178115 421.098205,162.274433 C421.099822,162.288448 421.099822,162.302601 421.098205,162.316616 C421.044262,162.428128 420.996593,162.542551 420.95542,162.659352 C420.914121,162.786246 420.885773,162.916972 420.870807,163.049543 C420.867904,163.093436 420.867904,163.137471 420.870807,163.181364 C420.865396,163.27444 420.865396,163.36775 420.870807,163.460825 L420.870807,163.597919 C420.870807,163.698104 420.870807,163.793015 420.870807,163.887926 C420.870807,163.982838 420.870807,163.967019 420.870807,164.003929 C420.907825,164.473213 420.981862,164.953043 420.981862,165.422326 C420.987222,165.65598 420.965932,165.889484 420.918402,166.118343 C420.741132,166.738159 420.4428,167.31695 420.040538,167.821474 L419.945348,167.958569 L419.770833,168.211665 L419.633336,168.427852 L419.516993,168.617675 C419.46411,168.707314 419.421803,168.796952 419.374208,168.891863 L419.294883,169.039503 C419.231004,169.184802 419.177977,169.334607 419.136233,169.487696 C419.022863,169.946606 419.022863,170.426091 419.136233,170.885002 C419.279136,171.477167 419.522366,172.040667 419.855446,172.551223 C419.987655,172.76741 420.135728,172.978324 420.283801,173.189238 C420.431875,173.400153 420.527065,173.521428 420.653985,173.684887 C420.580304,174.175434 420.541427,174.670554 420.537642,175.166558 C420.537903,178.511736 422.08032,181.671139 424.720714,183.734944 C424.927401,185.961834 424.904364,188.203993 424.651966,190.426194 C424.599082,190.895478 424.546199,191.359489 424.482739,191.8235 C424.419279,192.287511 424.366396,192.598609 424.308224,192.983527 C423.532233,193.092232 422.741805,193.031054 421.991934,192.80425 C421.646752,192.650539 421.29371,192.515016 420.934267,192.398241 C419.390073,192.018595 417.819438,193.547723 416.301686,193.083712 C416.301686,193.152259 416.254091,193.220806 416.232937,193.294626 C415.914168,193.099514 415.549211,192.992167 415.17527,192.983527 C414.276253,192.941345 413.535887,192.287511 412.880133,191.670587 L410.870566,189.777633 C410.737841,189.663114 410.620525,189.531963 410.521536,189.387442 C410.411804,189.183038 410.329991,188.964917 410.278272,188.738881 C409.850833,187.672258 409.183171,186.717897 408.326877,185.949542 C408.175103,185.75997 407.973811,185.615829 407.74516,185.532987 C407.659507,185.517226 407.571685,185.517226 407.486032,185.532987 C407.42786,185.459167 407.374977,185.385347 407.311517,185.3168 C407.168732,185.163887 407.020658,185.016247 406.867297,184.879153 C405.910108,183.993314 405.80963,183.234023 404.974073,182.242727 C404.245839,181.298063 403.586625,180.302445 403.001524,179.263565 C402.927487,178.736279 402.832297,178.14572 402.715954,177.565706 C402.451764,176.251601 402.065824,174.964779 401.563097,173.721797 L402.287599,172.930869 L402.287599,172.145214 L403.577953,170.642451 L403.488051,170.563358 L405.074551,169.076413 L403.488051,169.018412 L402.747684,170.041345 L402.689512,169.988617 L401.367429,171.30683 L400.44197,171.412287 L400.320339,171.538836 C399.55353,170.399899 398.733838,169.777703 398.004048,169.925343 C396.771866,170.17844 396.158419,172.561769 396.354088,175.678025 L392.689272,179.500843 L392.276782,179.933217 L390.383558,182.353456 L391.86958,183.777127 L394.148852,181.667986 L394.513747,181.272522 L396.782443,178.820645 C396.782443,178.899738 396.819461,178.978831 396.835326,179.057923 C396.762337,179.433317 396.723398,179.814502 396.718983,180.19686 C396.718983,180.645052 397.136761,180.966696 397.348294,181.367433 C397.700225,181.900896 397.884369,182.526992 397.877128,183.165476 C397.877128,183.386936 397.781938,183.603122 397.77665,183.829855 C397.802469,184.323368 397.973527,184.798362 398.268465,185.195524 C399.153379,186.671923 400.034768,188.148322 400.912632,189.62472 C401.092435,189.935819 401.282815,190.246917 401.441465,190.552742 C401.443212,190.568513 401.443212,190.584427 401.441465,190.600198 C401.608712,190.922335 401.851886,191.199177 402.150102,191.406944 C402.253745,192.517684 402.548939,193.602243 403.022677,194.612839 C403.117867,194.807934 403.218346,195.00303 403.324113,195.192853 C404.033309,196.356248 404.868592,197.438406 405.814918,198.419839 L407.07883,199.82769 C408.3163,201.21445 409.559059,202.595938 410.907584,203.877241 C411.391943,204.388383 411.977104,204.794105 412.626293,205.068906 C413.268851,205.330179 414.002807,205.225347 414.545958,204.794717 C414.545958,205.448551 414.545958,206.102385 414.545958,206.750946 C414.923967,206.816546 415.258468,207.033812 415.471417,207.352051 C415.612744,207.726145 415.579797,208.143543 415.381515,208.490987 C414.276253,211.333055 413.155126,214.196214 411.468148,216.748274 C412.655812,217.445851 413.756405,218.281269 414.746915,219.237061 C415.393561,219.948252 415.967536,220.721909 416.460336,221.54657 C416.502642,221.931489 416.539661,222.32168 416.566102,222.706598 C416.957439,228.991838 414.519517,235.229623 412.335435,241.219584 C411.711411,242.91217 411.018639,244.694394 411.076811,246.455527 C410.661424,246.713335 410.263901,246.998713 409.886936,247.309729 C410.320579,248.432846 410.151352,249.41887 410.109046,250.647444 C410.091376,251.371638 409.940819,252.086481 409.664826,252.756586 C409.458581,253.225869 409.135992,253.663516 408.908594,254.111709 C407.538915,256.521402 407.232192,259.384561 406.957198,262.131718 C406.79326,263.797939 407.443725,265.822714 406.682205,267.309659 C405.381275,269.866992 404.223129,272.582512 404.011596,275.419306 C404.004435,276.05898 403.924601,276.695785 403.773621,277.317533 C403.609683,277.844819 403.313536,278.293011 403.165463,278.809751 C403.01432,279.502302 402.980359,280.215174 403.064984,280.918892 C403.164553,283.446732 402.786017,285.970671 401.949146,288.358887 C401.288104,290.246568 400.563602,292.260798 401.081859,294.195935 C399.805013,295.529417 399.016836,297.253498 398.844893,299.089142 C398.829478,299.559235 398.771064,300.026943 398.670378,300.486448 C398.509606,300.957535 398.298629,301.410072 398.041066,301.836298 C396.976785,303.769679 396.47667,305.961551 396.597351,308.163722 C395.010851,310.3045 394.222889,312.956745 393.752227,315.587898 C393.281565,318.219052 393.070032,320.897661 392.467162,323.497177 C391.668623,326.94035 390.214331,330.41516 389.923473,333.932153 C388.210052,335.028906 387.474974,337.14332 387.141809,339.141731 C386.808644,341.140142 386.761049,343.233465 385.925492,345.084236 C385.491848,346.043895 384.867825,346.90337 384.455335,347.878848 C384.162561,348.658978 383.948213,349.46617 383.815446,350.288542 C383.561606,351.580391 383.339496,353.009334 383.656796,354.243181 C383.208726,354.71891 382.685248,355.11794 382.107314,355.4243 C382.186639,355.097383 382.260676,354.765194 382.313559,354.433004 C380.949169,355.672124 378.479517,355.23975 377.384832,356.721422 C376.71071,357.715657 376.944133,359.063216 377.913665,359.774404 C378.25669,359.980999 378.626905,360.138945 379.013639,360.243688 C381.631364,361.082071 384.37601,361.936273 387.088925,361.488081 C387.410463,361.450918 387.72142,361.350557 388.003807,361.192801 C388.359904,360.935978 388.651358,360.600253 388.855229,360.21205 L390.076834,358.282186 C391.050729,358.573788 392.041467,358.80622 393.04359,358.978203 C393.142306,359.818344 393.211054,360.662001 393.249835,361.509172 C393.778669,361.614629 394.487305,361.640994 394.735857,361.155891 C394.812669,360.970793 394.845258,360.77042 394.831047,360.570604 C394.831047,360.190959 394.878642,359.695311 394.915661,359.189117 L395.021427,359.189117 C396.635318,359.2524 398.240726,358.926832 399.701603,358.240004 C399.130463,353.573529 400.997245,349.007238 402.620764,344.588588 C404.328896,339.937932 405.793765,335.197637 407.263922,330.462616 C408.321589,327.135446 409.495599,323.903187 410.526824,320.570744 C411.838331,316.352462 413.148075,312.13418 414.456057,307.915897 C415.032485,306.059853 415.603625,304.224901 416.264667,302.379402 C417.644486,298.64389 419.28069,295.007564 421.161665,291.496234 C421.690498,290.504938 422.219332,289.518914 422.658264,288.480162 C423.187097,287.219951 423.562569,285.901738 423.980347,284.604616 C424.905372,281.930933 426.016874,279.325054 427.30671,276.806067 L427.4019,276.610971 C427.830255,278.356285 428.263898,280.133237 428.54418,281.883824 C428.933377,284.036529 428.963752,286.238506 428.634082,288.40107 C428.380242,289.872196 427.899003,291.327503 427.962463,292.814447 C428.041788,294.881406 429.141762,296.747995 429.68646,298.741134 C430.036748,300.229046 430.236938,301.748154 430.284042,303.275787 C430.426827,305.643298 431.722469,308.306089 430.812876,310.504868 C427.988905,317.470307 429.358584,325.337403 427.740353,332.650849 C426.915373,336.405121 424.371684,339.937932 424.567352,343.776569 C424.708375,346.500876 424.948113,349.218153 425.286566,351.928399 C425.345871,352.755859 425.540587,353.568066 425.862994,354.33282 C426.079155,354.739741 426.321147,355.132488 426.587496,355.508666 C426.360098,355.603577 426.159141,355.840856 425.995203,356.341777 C425.497537,357.695113 425.980264,359.212769 427.169213,360.032773 C427.645701,360.287808 428.159782,360.465785 428.692253,360.560059 C429.411894,360.760915 430.155477,360.863789 430.902777,360.865884 C431.135735,360.854539 431.367403,360.824563 431.595549,360.776246 C432.414156,361.120216 433.250953,361.419455 434.10222,361.672631 C434.10222,361.890575 434.123373,362.106762 434.16568,362.321192 C434.165708,362.551453 434.26841,362.769782 434.445961,362.917024 C434.576421,362.983405 434.723312,363.010867 434.869028,362.996117 L437.740594,362.996117 C437.740594,362.758838 437.740594,362.516287 437.740594,362.279009 C438.406195,362.349386 439.070201,362.132537 439.565069,361.683176 C439.822362,361.364221 440.003235,360.990911 440.093903,360.591696 C440.876576,357.941209 441.655724,355.292479 442.431347,352.645507 C442.787843,351.526252 443.061804,350.38251 443.251038,349.223425 C443.584283,347.358816 443.689055,345.460739 443.56305,343.570927 C442.54769,333.85306 444.789944,324.103555 444.060154,314.359323 C443.618297,308.50432 443.920363,302.61711 444.959171,296.837634 C445.197146,295.529967 445.488004,294.201208 445.593771,292.898813 C445.821169,290.441664 445.540887,287.95815 445.710114,285.516819 C445.773574,284.662617 445.889917,283.813688 445.995684,282.964759 C446.754091,277.696202 447.167456,272.383979 447.233154,267.061835 C447.2216,265.299685 447.113912,263.539467 446.910566,261.788982 C447.458078,261.643451 447.955405,261.351762 448.348993,260.945326 C448.824943,260.328402 448.703311,259.4742 448.698023,258.693818 C448.698023,256.827228 449.485985,255.060822 450.115297,253.299689 C450.928005,250.880345 451.597254,248.415422 452.119576,245.917696 C452.665246,243.89578 452.963561,241.815463 453.008016,239.722094 C453.008016,239.51118 453.008016,239.300265 452.976286,239.084078 C453.17485,238.947119 453.339442,238.766777 453.457524,238.556793 C453.597376,238.24847 453.683231,237.918541 453.711364,237.581315 C453.907033,236.231465 454.097413,234.886888 454.293081,233.537037 C454.430578,232.570348 454.569837,231.603658 454.710859,230.636968 C455.271423,226.742088 455.830224,222.843692 456.387262,218.941781 C456.535335,217.924121 456.67812,216.911733 456.826193,215.894072 L457.259837,212.872728 C457.31272,212.514174 457.360315,212.15562 457.402622,211.791793 C458.714129,209.709016 457.476658,206.835311 457.34445,204.388708 Z M443.335652,248.195568 C442.70634,246.724442 442.124623,245.211133 442.277985,243.613459 L442.225102,243.613459 C442.359927,243.122603 442.333988,242.601641 442.151065,242.126514 C441.987127,241.736323 441.706845,241.409407 441.53233,241.029761 C441.344279,240.558246 441.247385,240.055517 441.24676,239.54809 C441.116324,236.343118 441.368406,233.134048 441.997703,229.988408 C442.066452,229.614035 442.140488,229.244935 442.214525,228.870563 C442.43364,228.743244 442.634628,228.58718 442.812107,228.406552 C443.08979,228.090022 443.319614,227.734749 443.494302,227.351981 C444.090121,226.156801 444.640108,224.938772 445.144262,223.697894 C445.308201,223.291885 445.546176,222.833147 445.953377,222.732962 C445.868764,225.817581 446.186064,228.965474 444.895711,231.74954 C444.655552,232.198014 444.477646,232.676955 444.366877,233.173211 C444.250534,233.953593 444.57841,234.755066 444.462067,235.535449 C444.403895,235.936185 444.22938,236.315831 444.155344,236.711295 C444.051546,237.11273 444.170493,237.538882 444.467355,237.82914 C444.534645,237.880792 444.609575,237.921706 444.689465,237.950415 C444.657735,238.161329 444.631294,238.377516 444.615429,238.583157 C444.567834,239.015531 444.551969,239.421541 444.525527,239.674638 C444.402182,240.962621 444.352744,242.256578 444.377454,243.550185 C444.377454,244.947491 444.435625,246.350069 444.409184,247.768467 C444.430941,248.177306 444.362338,248.585919 444.208227,248.965404 C444.103787,249.161714 443.968047,249.339796 443.806314,249.49269 C443.65824,249.023406 443.489014,248.60685 443.335652,248.195568 Z" id="Shape" fill="url(#linearGradient-1)" fill-rule="nonzero"></path>
            <polygon id="Path" fill="#33313F" points="403.52954 171 405 169.067901 403.68709 169 403 170.481481"></polygon>
            <polygon id="Path" fill="#65617D" points="391 182.555428 392.875963 180.101266 393.292258 179.660913 399.036076 173.533563 400.991082 171.444572 401.907985 171.337169 403.225375 170 404 170.69275 402.719497 172.217875 402.745845 173.018028 400.743413 175.230533 395.104986 181.465286 394.741386 181.862677 392.475476 184"></polygon>
            <polygon id="Path" fill="#33313F" points="393 179.180095 398.39604 173 400 174.711578 394.70297 181"></polygon>
            <ellipse id="Oval" fill="#FBBEBE" transform="translate(399.921453, 178.288542) rotate(-11.580000) translate(-399.921453, -178.288542) " cx="399.921453" cy="178.288542" rx="2.97025211" ry="8.41932436"></ellipse>
            <path d="M426.187573,356.322819 C425.701269,357.679242 426.183804,359.193009 427.3657,360.018738 C427.846628,360.274938 428.364621,360.454616 428.900995,360.551292 C429.622799,360.754101 430.368837,360.858012 431.118644,360.860172 C432.046219,360.812243 432.931146,360.455432 433.848059,360.327619 C433.955238,360.304595 434.067148,360.321649 434.162581,360.375549 C434.255201,360.474275 434.299992,360.608514 434.285191,360.743011 C434.294895,361.268465 434.33405,361.792963 434.402471,362.314043 C434.375427,362.505318 434.441942,362.697935 434.581287,362.831868 C434.720633,362.9658 434.915867,363.024765 435.106148,362.990385 L437.990158,362.990385 C438.057836,360.453833 437.776217,357.920023 437.153209,355.460083 C437.114099,355.271399 437.04191,355.091107 436.939973,354.927529 C436.698982,354.6569 436.377714,354.470304 436.023061,354.394976 C435.314727,354.101474 434.550014,353.968693 433.784088,354.006212 C432.856514,354.123374 432.072873,354.730485 431.278571,355.231085 C430.484269,355.731685 429.402099,356.173704 428.437208,355.912753 C427.472317,355.651802 426.678015,354.842321 426.187573,356.322819 Z" id="Path" fill="#3F3D56"></path>
            <path d="M383.834691,354.044192 C382.965373,354.868748 381.898482,355.510488 380.712347,355.922296 L380.180519,356.150099 C380.106318,356.169954 380.044404,356.215628 380.008962,356.276656 C379.987002,356.355587 380.005865,356.439075 380.060429,356.504458 C380.962455,357.733281 382.674778,358.284671 384.257865,357.856086 C384.600081,357.78065 384.917439,357.63498 385.184275,357.430855 C385.618323,356.970189 385.867688,356.395182 385.893379,355.79574 C386.060416,355.179734 386.030717,354.53475 385.8076,353.932822 C385.029873,352.343268 384.738226,353.062111 383.834691,354.044192 Z" id="Path" fill="#FBBEBE"></path>
            <path d="M394.873375,360.000855 C394.890351,360.193119 394.857489,360.386415 394.777683,360.563709 C394.533137,361.030218 393.831398,360.999793 393.289145,360.903449 C393.209102,359.181427 392.992289,357.467672 392.640568,355.77692 C391.609224,355.731284 390.859639,356.669373 390.31207,357.500976 L388.887327,359.661115 C388.680603,360.031876 388.387862,360.352725 388.031418,360.599204 C387.749048,360.750037 387.438375,360.846516 387.11703,360.883166 C384.395133,361.309109 381.646654,360.492718 379.020448,359.686469 C378.634036,359.586224 378.263795,359.436093 377.919994,359.240243 C376.943523,358.559655 376.708381,357.26329 377.388373,356.309349 C378.483512,354.889539 380.960864,355.295199 382.327129,354.118785 C382.186463,354.947046 381.951148,355.758128 381.625389,356.537533 C383.464797,356.273854 384.69284,354.671497 386.176062,353.601569 C386.544404,353.295795 386.99263,353.090791 387.473216,353.008291 C387.831827,352.981612 388.1925,353.019455 388.536457,353.119847 C390.24103,353.528154 391.835497,354.276481 393.214718,355.315482 C393.77292,355.736354 394.644778,356.329632 394.889323,356.978688 C395.149817,357.754513 394.868058,359.174323 394.873375,360.000855 Z" id="Path" fill="#3F3D56"></path>
            <circle id="Oval" fill="#FBBEBE" cx="431" cy="175" r="11"></circle>
            <path d="M453,239.471785 C452.957226,241.586756 452.667746,243.688465 452.137932,245.730654 C451.638209,248.263205 450.992194,250.762031 450.203412,253.213503 C449.59278,254.993352 448.823077,256.778546 448.828208,258.665293 C448.828208,259.450992 448.951361,260.316864 448.49467,260.942217 C448.080066,261.37568 447.560521,261.684126 446.991183,261.834814 C446.418372,261.993439 445.951838,262.425834 445.734001,263 C445.249713,262.252928 444.887342,261.427593 444.661548,260.557384 C443.744746,257.621257 442.88952,254.669095 442.095871,251.700898 C441.947548,251.354909 441.972503,250.954998 442.162578,250.63192 C442.293436,250.512064 442.447404,250.422765 442.614138,250.37002 C443.138643,250.144447 443.618746,249.820119 444.030392,249.413285 C444.225574,249.235635 444.387389,249.021778 444.507608,248.782587 C444.657144,248.397917 444.72371,247.983722 444.702599,247.569297 C444.702599,246.158245 444.702599,244.741849 444.671811,243.330798 C444.648593,242.0232 444.694846,240.715266 444.810357,239.412992 C444.810357,239.151092 444.85654,238.74488 444.897591,238.306599 C444.974561,237.462106 445.128501,236.494681 445.569798,236.168642 C446.216349,235.708982 448.166264,236.323644 448.91031,236.425197 C450.182886,236.612268 451.450331,236.826064 452.712644,237.077274 C452.893442,237.861864 452.989821,238.664981 453,239.471785 Z" id="Path" fill="#3F3D56"></path>
            <path d="M408.969464,187.922185 C408.546066,188.766524 407.529911,189.167586 406.746624,189.705852 L404.063339,191.54229 C403.701143,191.864299 403.224441,192.027809 402.74022,191.996122 C402.299088,191.833694 401.942284,191.500756 401.750527,191.072626 L401.718772,191.025132 L401.189524,190.101636 L398.543286,185.679409 C398.250583,185.280615 398.079663,184.805994 398.051086,184.312635 C398.051086,184.090995 398.130473,183.874633 398.156936,183.652994 C398.159668,183.016271 397.975711,182.392633 397.627688,181.858773 C397.415989,181.457712 396.987298,181.135808 397.003176,180.69253 C396.980292,180.108161 397.081283,179.525551 397.299555,178.982742 C397.576796,178.483039 397.973014,178.058974 398.453314,177.747896 C398.702061,177.568474 398.982562,177.399606 399.220723,177.220184 C399.36334,177.126104 399.520769,177.056537 399.686461,177.014376 C400.120444,176.924665 400.554427,177.28351 400.998995,177.299341 C402.914872,178.576404 403.645233,180.993326 405.153589,182.740053 C406.000385,183.726874 406.085065,184.48678 407.043003,185.378613 C407.198541,185.515234 407.345259,185.661527 407.482278,185.816614 C407.676187,186.020096 407.838517,186.251324 407.963894,186.50264 C408.133253,186.951195 409.191748,187.489461 408.969464,187.922185 Z" id="Path" fill="#3F3D56"></path>
            <path d="M427.000006,185.952934 C427.800345,187.605203 428.423427,189.420075 428.192457,191.234947 C428.146277,191.726069 427.988463,192.20094 427.730517,192.624951 C426.957035,193.784161 425.334873,193.988728 423.916823,194.062162 C423.317465,194.014867 422.72365,194.203751 422.267804,194.586692 C421.875748,195.13654 421.917847,195.876526 422.36986,196.380583 C422.82046,196.857637 423.385208,197.218088 424.013508,197.429642 C426.24801,198.394777 428.654397,199.186816 431.087641,198.961269 C432.215635,198.856363 433.3114,198.541645 434.434023,198.379041 C435.650796,198.252875 436.87371,198.191589 438.097317,198.195455 C439.558338,198.143002 441.013987,198.001379 442.469636,197.859756 L446.320929,197.48734 C446.531889,197.491291 446.736791,197.41836 446.895669,197.282774 C447.185724,196.957566 446.815098,196.480244 446.465957,196.233715 C444.414082,194.749296 441.808954,193.736954 440.648732,191.512948 C440.111592,190.463889 439.939707,189.220754 439.542223,188.082525 C439.14474,186.944295 438.510915,185.931953 438.269202,184.772743 C438.137304,183.762193 438.078074,182.743861 438.091946,181.725226 C438.109186,180.695682 437.725179,179.698204 437.017666,178.934728 C436.254927,178.237104 435.143047,178.058764 434.095625,178.011556 C431.528096,177.90665 428.799425,178.504614 426.973149,180.272279 C426.484352,180.749601 426.070754,181.295111 425.560471,181.751452 C425.050188,182.207793 424.373392,182.307454 424.706419,182.873946 C425.039446,183.440438 425.689385,183.786627 426.043897,184.290175 C426.40825,184.818191 426.728008,185.374278 427.000006,185.952934 Z" id="Path" fill="#FBBEBE"></path>
            <path d="M448.745095,201.581466 C448.084059,205.65085 447.010926,209.641898 445.542376,213.492573 C444.796419,215.231445 444.162988,217.016794 443.646029,218.837504 C443.235153,220.476405 443.319436,222.231615 442.940166,223.875802 C442.476615,225.916498 442.013063,227.973054 441.639061,230.034897 C441.012035,233.179892 440.760927,236.388711 440.891058,239.593389 C440.892218,240.10039 440.988725,240.602614 441.17551,241.073686 C441.349342,241.454334 441.633794,241.782114 441.791823,242.168049 C442.045025,242.861348 441.993336,243.629901 441.649597,244.282759 C441.378732,244.889229 441.012332,245.447968 440.564465,245.93752 C435.649766,247.407244 430.403206,246.920861 425.288336,247.232781 C420.547469,247.523553 415.806602,248.49632 411.160551,247.682157 C410.633788,245.567446 411.508215,243.357574 412.266754,241.295731 C414.447553,235.305813 416.870663,229.067417 416.480858,222.792013 C416.438217,222.061701 416.353796,221.334451 416.228012,220.613861 C415.469473,216.167682 416.296491,211.5629 417.629202,207.24889 C418.461487,204.568494 418.424614,201.703062 418.229712,198.906357 C418.135853,197.999986 418.123512,197.086973 418.192838,196.17838 C418.272874,195.249683 418.61656,194.363492 419.183153,193.624867 L419.262167,193.513845 C419.320111,193.42397 419.493943,193.476837 419.651972,193.513845 C419.736254,193.54909 419.831071,193.54909 419.915353,193.513845 C419.930707,193.496158 419.95083,193.483305 419.973297,193.476837 C420.020251,193.44831 420.079105,193.44831 420.126059,193.476837 C420.247214,193.556139 420.310426,193.804617 420.573807,193.852198 C420.962894,193.91297 421.35507,193.951801 421.748489,193.968508 C422.2216,193.982302 422.691644,194.049695 423.149678,194.169405 L423.21289,194.169405 C423.898011,194.283092 424.60058,194.22312 425.256731,193.994941 C425.69297,193.885178 426.114049,193.721816 426.510427,193.508558 C426.833616,193.377807 427.164312,193.266586 427.500741,193.175491 C427.985363,192.879432 427.880011,191.515443 427.980096,190.960332 C428.033676,190.398533 428.164869,189.846946 428.3699,189.321431 C428.855766,188.532854 429.701265,188.039176 430.624446,188.005024 C431.533382,187.978062 432.442287,188.059699 433.332008,188.248215 C435.291567,188.528415 437.303802,188.475547 439.237022,188.93021 C440.206266,189.157541 441.259792,189.506468 442.155289,189.062379 C442.392333,189.115247 442.429206,189.332005 442.429206,189.591057 C442.411118,189.837825 442.361548,190.081243 442.281712,190.315345 C441.949852,191.774495 443.092927,193.11205 444.141186,194.174692 C444.595707,194.673856 445.12975,195.093711 445.721475,195.417084 C446.248238,195.660276 446.775001,195.760725 447.301764,196.025064 C447.730568,196.250442 448.093619,196.583842 448.35529,196.992544 C448.66202,197.456756 448.86673,197.981205 448.9558,198.530996 C449.056321,199.552486 448.985095,200.583668 448.745095,201.581466 Z" id="Path" fill="#3F3D56"></path>
            <path d="M448.793175,201.998996 C448.132401,206.015342 447.059694,209.954372 445.591727,213.754859 C444.846066,215.471067 444.212887,217.233147 443.696133,219.030127 C443.285421,220.647666 443.369669,222.38 442.990551,224.002757 C442.527183,226.016856 442.063816,228.046607 441.689963,230.081577 C441.579386,230.144191 441.46881,230.19637 441.352968,230.248549 C440.697765,230.559485 440.003602,230.782344 439.288877,230.911218 C438.003314,231.062487 436.70206,231.020267 435.429237,230.78599 L427.899516,229.810248 C424.898159,229.41369 421.701977,228.928428 419.474654,226.914329 C418.242518,225.808141 417.426359,224.347137 416.541749,222.933094 C416.499125,222.2123 416.414737,221.49453 416.289003,220.783331 C415.530765,216.395102 416.357455,211.850336 417.689636,207.592554 C418.521591,204.947093 418.484733,202.119007 418.289908,199.358753 C418.196086,198.464196 418.18375,197.563083 418.253049,196.666332 C418.333053,195.749739 418.676603,194.875098 419.24297,194.1461 C419.396823,194.100299 419.553317,194.063708 419.711603,194.036525 C419.817632,194.016638 419.924982,194.00443 420.032801,194 L420.185502,194 C420.362871,194.000645 420.539568,194.021657 420.712055,194.062614 C421.064847,194.151318 421.39131,194.339162 421.738836,194.464391 L421.802022,194.464391 C422.254142,194.608856 422.727801,194.675909 423.202655,194.66267 C423.897707,194.66267 424.61382,194.547876 425.308871,194.506133 C426.166885,194.370872 427.045879,194.525233 427.804736,194.944435 C428.295367,195.334886 428.759724,195.756693 429.194839,196.207159 C429.7261,196.613492 430.319934,196.932387 430.953529,197.151594 C435.484507,198.866823 440.512425,198.760097 444.965128,196.854175 C445.394693,196.617433 445.879558,196.496864 446.371027,196.504578 C446.735488,196.574755 447.081437,196.718632 447.387276,196.927226 C447.697942,197.109851 448.013875,197.287259 448.329807,197.449013 C448.636415,197.907174 448.841044,198.424788 448.930079,198.967413 C449.057103,199.978368 449.010817,201.003325 448.793175,201.998996 Z" id="Path" fill="#000000" opacity="0.1"></path>
            <path d="M453.822715,198.572109 C451.730407,197.94186 449.721021,197.067516 447.83678,195.96745 C447.532482,195.756419 447.186964,195.610906 446.822482,195.540286 C446.331214,195.531923 445.846666,195.654246 445.419282,195.894519 C440.973836,197.792885 435.956665,197.897543 431.434582,196.186241 C430.801296,195.969433 430.208282,195.650889 429.679268,195.243355 C429.245545,194.794946 428.783916,194.373903 428.29709,193.9827 C426.568053,192.873115 424.176832,194.180654 422.237579,193.461768 C421.903196,193.310603 421.561134,193.176718 421.21277,193.06065 C419.683439,192.685579 418.127832,194.191072 416.619523,193.737862 C416.058303,195.243494 415.646433,196.799751 415.389753,198.384573 C415.175852,200.203828 415.061817,202.033257 415.04815,203.864775 C415.016617,204.958732 414.99034,206.057898 415.04815,207.157064 C415.423806,207.221874 415.756226,207.436522 415.96785,207.750926 C416.10574,208.117351 416.073032,208.52547 415.878508,208.86572 C414.780123,211.668333 413.671227,214.491784 412,217.002675 C413.177096,217.691797 414.267365,218.517189 415.247856,219.461473 C417.092512,221.38892 417.991191,224.087347 419.977743,225.868933 C422.216557,227.87973 425.411858,228.364197 428.386432,228.765314 L435.891187,229.78634 C437.161567,230.020234 438.460323,230.062385 439.743417,229.911364 C440.456771,229.7827 441.149601,229.560207 441.803546,229.249781 C442.22955,229.073219 442.618213,228.81874 442.94923,228.499639 C443.224946,228.186745 443.453317,227.835788 443.62718,227.457775 C444.215789,226.28047 444.762353,225.077117 445.256364,223.858137 C445.435048,223.425763 445.69782,222.91525 446.170809,222.883994 C448.950931,220.393941 451.583902,217.841375 454.364025,215.351321 C455.483514,214.431949 456.487491,213.382563 457.354365,212.22573 C458.741798,210.199306 457.480495,207.323762 457.354365,204.880592 C457.343168,204.252651 457.265665,203.627597 457.123126,203.015657 C456.634371,201.228861 455.572774,199.103459 453.822715,198.572109 Z" id="Path" fill="#38D39F"></path>
            <path d="M408.970558,187.104953 C408.561969,187.911449 407.581355,188.294534 406.825465,188.808676 L404.23603,190.562805 C403.886503,190.870381 403.426474,191.026562 402.959189,190.996296 C402.533486,190.841148 402.189163,190.523132 402.004112,190.114191 C402.004112,189.993217 402.004112,189.872242 402.004112,189.751268 C401.983749,189.343226 402.039138,188.934948 402.167548,188.546564 C402.42273,187.97753 402.815581,187.479039 403.311597,187.094872 C404.271309,186.193912 405.415513,185.506395 406.667136,185.078631 C406.863285,185.001571 407.077463,184.980608 407.285127,185.018144 C407.362922,185.038635 407.437014,185.070945 407.504744,185.113916 C407.69187,185.308278 407.848523,185.529142 407.969514,185.769194 C408.163594,186.177482 409.185067,186.691624 408.970558,187.104953 Z" id="Path" fill="#000000" opacity="0.1"></path>
            <path d="M415.173717,192.606705 C414.254295,192.563648 413.502533,191.896264 412.837304,191.266555 L410.782127,189.339754 C410.645252,189.224015 410.525129,189.089985 410.425175,188.941476 C410.317071,188.733463 410.235321,188.512905 410.181798,188.284857 C409.743304,187.199771 409.06274,186.228046 408.191521,185.443093 C408.034618,185.251364 407.829292,185.104618 407.596601,185.017905 C407.376202,184.979234 407.149303,185.003493 406.942189,185.087873 C405.616803,185.54462 404.405167,186.27872 403.388895,187.240724 C402.861234,187.648524 402.444715,188.18145 402.177422,188.790777 C402.041445,189.205475 401.982791,189.641416 402.004354,190.077105 C402.015629,191.506845 402.338548,192.917121 402.950818,194.210579 C403.048168,194.409718 403.145519,194.608856 403.253686,194.802613 C403.980363,195.984439 404.832567,197.085124 405.795616,198.085711 L407.082807,199.522739 C408.348363,200.927474 409.61392,202.337591 410.993053,203.640066 C411.483484,204.162612 412.078595,204.576986 412.739954,204.856427 C413.419316,205.131801 414.196455,205.004985 414.751865,204.528117 C415.012881,204.23101 415.208202,203.882604 415.325151,203.505513 C416.163447,201.352662 416.94766,199.119079 416.996335,196.799382 C417.012607,195.870457 416.974685,194.941374 416.882759,194.016822 C416.790817,193.031893 416.098547,192.649762 415.173717,192.606705 Z" id="Path" fill="#38D39F"></path>
            <path d="M447,267.194219 C446.97128,272.488319 446.597686,277.774889 445.8816,283.020186 C445.776586,283.862273 445.661071,284.709622 445.603313,285.562235 C445.43004,288.014813 445.708327,290.488442 445.482547,292.930494 C445.35653,294.246254 445.088744,295.562015 444.852462,296.85146 C443.825389,302.604749 443.527241,308.465012 443.965093,314.293181 C444.68444,323.992968 442.468643,333.698017 443.471527,343.371489 C443.595803,345.252339 443.493553,347.141348 443.166986,348.99768 C442.97718,350.150769 442.705197,351.288745 442.353127,352.402869 C441.579523,355.041407 440.80942,357.672928 440.042817,360.297432 C439.95024,360.695004 439.770918,361.067073 439.517747,361.386881 C438.977774,361.860332 438.2593,362.07542 437.548733,361.976342 C434.519077,361.876344 431.673195,360.57111 428.921826,359.286928 C428.603757,359.165255 428.31025,358.986953 428.05546,358.760623 C427.483134,358.1659 427.53039,357.223815 427.278356,356.444885 C427.026322,355.665955 426.33848,354.923866 425.949928,354.113357 C425.635317,353.351898 425.44218,352.545567 425.377601,351.723936 C425.027554,349.02575 424.789523,346.320546 424.663506,343.608325 C424.46923,339.787357 426.984317,336.271645 427.813928,332.555937 C429.415393,325.250835 428.060711,317.419428 430.859336,310.482739 C431.736204,308.298577 430.460283,305.646003 430.334266,303.288161 C430.291835,301.766811 430.094791,300.25376 429.746187,298.772471 C429.221117,296.788304 428.118469,294.93045 428.039708,292.877864 C427.9767,291.393686 428.454514,289.946349 428.706548,288.47796 C429.028899,286.326129 428.998748,284.13599 428.617286,281.993893 C428.338998,280.225511 427.908441,278.457128 427.483134,276.730851 L427.388621,276.925583 C426.109296,279.431878 425.009133,282.026064 424.09643,284.68857 C423.681624,285.978015 423.308824,287.288513 422.783754,288.54638 C422.353196,289.598988 421.828126,290.556862 421.308306,291.546314 C419.443066,295.039918 417.821955,298.659059 416.456655,302.377654 C415.805568,304.198667 415.238492,306.061784 414.666165,307.888059 C413.374492,312.098493 412.079319,316.308927 410.780645,320.51936 C409.756757,323.84034 408.575349,327.050795 407.551462,330.366512 C406.097017,335.10325 404.642572,339.797883 402.951845,344.424097 C401.34513,348.824 399.496882,353.371268 400.058707,358.018534 C398.612547,358.699785 397.024287,359.022877 395.427586,358.960619 C392.721218,358.718365 390.066367,358.070833 387.551531,357.039609 C386.519152,356.75037 385.582199,356.190873 384.836917,355.418592 C383.66601,353.992307 383.960049,351.90288 384.311846,350.092393 C384.443015,349.273126 384.65586,348.469117 384.947181,347.692446 C385.340984,346.718783 385.971069,345.860907 386.401626,344.908297 C387.231238,343.066232 387.283745,340.987331 387.609288,338.992638 C387.934832,336.997945 388.659429,334.897991 390.360657,333.808541 C390.644195,330.308618 392.088139,326.845537 392.880995,323.424559 C393.479575,320.82988 393.679102,318.161517 394.146415,315.529996 C394.613727,312.898475 395.385581,310.266954 396.971293,308.161738 C396.845436,305.964431 397.338514,303.775927 398.394234,301.846087 C398.6509,301.423005 398.860434,300.972949 399.019068,300.504011 C399.11936,300.047195 399.177364,299.582074 399.192341,299.114568 C399.362862,297.287472 400.141443,295.570941 401.402887,294.240991 C400.877817,292.314718 401.612916,290.314762 402.264003,288.451645 C403.094939,286.075259 403.469088,283.562568 403.366651,281.046545 C403.286866,280.343762 403.322339,279.632629 403.471665,278.941328 C403.618684,278.415024 403.907473,277.967666 404.070245,277.45715 C404.225594,276.839357 404.304944,276.204832 404.306527,275.567718 C404.516555,272.725676 405.661208,270.041524 406.931879,267.499475 C407.682729,266.015297 407.042143,263.999552 407.204915,262.341694 C407.477952,259.594386 407.777242,256.757606 409.131924,254.357659 C409.407633,253.921452 409.658323,253.469853 409.882774,253.005057 C410.15887,252.337046 410.306726,251.622811 410.318583,250.899841 C410.365839,249.699867 410.533861,248.694626 410.103304,247.578861 C412.91243,245.231544 416.750695,244.578927 420.399934,244.447351 C424.049173,244.315775 427.75092,244.621031 431.326649,243.836838 C432.37679,243.605264 433.42693,243.273693 434.534829,243.115801 C437.055167,242.747388 439.601758,243.326323 442.085341,243.894732 C441.912068,245.473644 442.489645,246.9894 443.109228,248.457789 C445.622589,254.386091 446.944744,260.75307 447,267.194219 Z" id="Path" fill="#33313F"></path>
            <path d="M435,268 L429.185239,282 C428.916787,280.179567 428.501447,278.359133 428.091172,276.582043 L428,276.782508 L428.025326,276.489938 L431.196093,269.023994 L435,268 Z" id="Path" fill="#000000" opacity="0.1"></path>
            <path d="M453,239.536289 C452.661642,239.799643 452.262429,239.958933 451.84557,239.996918 C451.202691,240.01866 450.560939,239.925247 449.946835,239.72054 L445.41519,238.490389 C445.271816,238.457011 445.132505,238.406098 445,238.338653 C445.075949,237.482424 445.227848,236.501555 445.663291,236.170986 C446.301266,235.704937 448.225316,236.328142 448.959494,236.431106 C450.21519,236.620777 451.465823,236.837543 452.711392,237.092244 C452.89262,237.892824 452.989427,238.712624 453,239.536289 Z" id="Path" fill="#000000" opacity="0.1"></path>
            <path d="M456.595754,208.691019 C456.699295,209.130682 456.839076,209.565047 456.916732,210.010006 C457.055573,211.099759 457.020605,212.205348 456.813191,213.283636 L456.388671,216.313597 L455.964152,219.364747 L454.323022,231.087306 L453.914034,233.990136 L453.349734,238.042445 C453.319685,238.379078 453.235731,238.708363 453.101235,239.017118 C452.753679,239.601425 452.143592,239.969208 451.475636,239.997088 C450.820031,240.017947 450.165623,239.92664 449.539414,239.726934 L444.90594,238.529781 C444.703568,238.491749 444.511294,238.410529 444.34164,238.29141 C444.050956,238.002057 443.93435,237.575372 444.036193,237.173715 C444.103495,236.771132 444.274338,236.395036 444.336463,235.992453 C444.450358,235.208477 444.124203,234.403313 444.243276,233.624634 C444.350265,233.125657 444.5245,232.644312 444.760982,232.194408 C446.314102,228.682407 445.413292,224.587722 445.941353,220.773784 C446.399213,217.775028 447.620505,214.952429 449.482466,212.589711 C450.637264,211.101654 451.967515,209.765461 453.442921,208.611562 C454.027929,208.150712 454.949447,207.197227 455.674236,207.022422 C456.642347,206.821131 456.445619,208.02358 456.595754,208.691019 Z" id="Path" fill="#38D39F"></path>
            <path d="M420.907921,162.67771 C420.560737,163.779664 421.102555,164.997614 420.855317,166.131203 C420.581778,167.375514 419.419238,168.240206 419.087835,169.48979 C418.561798,171.393165 420.17147,173.12782 421.344532,174.709572 C425.710635,180.577873 425.137255,188.70808 423.643311,195.87869 C422.443715,201.628053 420.78126,207.270527 418.672266,212.750714 C418.01998,214.448462 417.28879,216.183117 416,217.459063 C418.419768,216.763092 420.986827,216.061849 423.417116,216.73673 C426.489169,217.590876 429.140393,220.580388 432.24927,219.900234 C434.12722,219.478434 435.437051,217.791231 437.125628,216.894905 C440.281848,215.191885 444.079832,216.262204 447.604277,216.805273 C448.36213,216.989662 449.15711,216.949363 449.892536,216.689277 C450.454229,216.386504 450.931585,215.947917 451.281272,215.413331 C452.849654,213.39294 453.788373,210.953607 453.97984,208.400896 C454.152368,205.828359 453.211277,203.305944 451.397,201.478093 C450.655289,200.771577 449.761027,200.202146 449.187647,199.36909 C448.626442,198.397649 448.327306,197.296468 448.319687,196.173951 C447.898857,190.374192 449.308635,184.458439 447.862035,178.848491 C447.335998,176.850211 446.473298,174.93629 446.241842,172.885285 C445.952522,170.343936 446.64689,167.612777 445.6369,165.282329 C444.837325,163.436951 443.085623,162.118824 441.202412,161.449216 C439.288267,160.830957 437.299195,160.476212 435.289761,160.394715 C432.40708,160.141634 422.112545,158.907867 420.907921,162.67771 Z" id="Path" fill="#33313F"></path>
            <g id="Group" opacity="0.1" transform="translate(416.000000, 161.000000)" fill="#000000">
                <path d="M7.70555556,34.7046429 C6.50546632,40.4245671 4.84641399,46.0388873 2.74444444,51.4933036 C3.10861111,50.7716071 3.42,50.0130357 3.71027778,49.2597321 C5.82598942,43.7842897 7.49394177,38.1468138 8.69777778,32.4025893 C10.1966667,25.2435714 10.7719444,17.1258036 6.39138889,11.2521429 C5.33583333,9.85616071 3.97944444,8.33901786 4.03222222,6.69017857 C3.64002273,7.18785506 3.33652274,7.74916561 3.135,8.34955357 C2.60722222,10.25125 4.22222222,11.984375 5.39916667,13.5647321 C9.785,19.4173214 9.20972222,27.5403571 7.70555556,34.7046429 Z" id="Path"></path>
                <path d="M4.97694444,4.44607143 C5.39746404,3.91904934 5.71279152,3.31640381 5.90583333,2.67080357 C5.98736976,1.88823957 5.96607831,1.09839488 5.8425,0.321339286 C5.43532003,0.62835772 5.13006231,1.05051015 4.96638889,1.53294643 C4.67083333,2.46535714 5.01388889,3.48732143 4.97694444,4.44607143 Z" id="Path"></path>
                <path d="M36.4325,51.8989286 C36.0798295,52.4347583 35.5992069,52.8746518 35.0338889,53.1790179 C34.2978849,53.4390406 33.5019083,53.4793138 32.7433333,53.2949107 C29.2072222,52.768125 25.3544444,51.6776786 22.23,53.3844643 C20.5358333,54.3010714 19.2163889,55.9657143 17.3375,56.381875 C14.2130556,57.0772321 11.5319444,54.095625 8.47083333,53.2211607 C6.29111111,52.6153571 3.99,53.1158036 1.78388889,53.7479464 C1.34851271,54.6801841 0.75981768,55.5330777 0.0422222222,56.27125 C2.47,55.5758929 5.04555556,54.8752679 7.48388889,55.5495536 C10.5661111,56.4029464 13.2261111,59.3898214 16.3452778,58.7102679 C18.2241667,58.2888393 19.5436111,56.603125 21.2377778,55.7075893 C24.4044444,54.0060714 28.215,55.0754464 31.7511111,55.6180357 C32.511473,55.8022621 33.3090842,55.7619989 34.0469444,55.5021429 C34.6104968,55.199636 35.0894329,54.7614365 35.4402778,54.2273214 C36.3917324,52.9648727 37.1298167,51.5555395 37.6252778,50.0551786 C37.2718684,50.6971423 36.8732752,51.3132722 36.4325,51.8989286 Z" id="Path"></path>
            </g>
            <path d="M482.811397,304 C482.811397,304 486.014781,308.01158 481.336652,314.065136 C476.658523,320.118693 472.790693,325.236559 474.35187,329 C474.35187,329 481.417682,317.756203 487.165406,317.626964 C492.913131,317.497725 489.137135,310.761787 482.811397,304 Z" id="Path" fill="#38D39F"></path>
            <path d="M483.184433,303 C483.450516,303.403082 483.659276,303.84462 483.804155,304.310744 C489.125573,310.864463 491.957858,316.977686 486.846429,317.133471 C482.083273,317.278512 476.372608,326.206612 475,328.46281 C475.046095,328.640083 475.102433,328.806612 475.163894,329 C475.163894,329 481.863041,317.316116 487.312501,317.181818 C492.761961,317.047521 489.181912,310.026446 483.184433,303 Z" id="Path" fill="#000000" opacity="0.1"></path>
            <path d="M489,308.046233 C489,309.678578 488.773723,311 488.49635,311 C488.218978,311 488,309.678578 488,308.046233 C488,306.413889 488.277372,307.179237 488.554745,307.179237 C488.832117,307.179237 489,306.413889 489,308.046233 Z" id="Path" fill="#FFD037"></path>
            <path d="M490.28869,310.022952 C489.115606,310.715138 488.094046,311.135774 488.006065,310.960065 C487.918083,310.784356 488.797896,310.076197 489.961204,309.362714 C491.124513,308.64923 490.67483,309.176356 490.762812,309.362714 C490.850793,309.549071 491.461774,309.325442 490.28869,310.022952 Z" id="Path" fill="#FFD037"></path>
            <path d="M466.190395,304 C466.190395,304 462.987905,308.01158 467.670128,314.065136 C472.352351,320.118693 476.2083,325.22622 474.647559,329 C474.647559,329 467.583721,317.756203 461.837602,317.626964 C456.091482,317.497725 459.850222,310.761787 466.190395,304 Z" id="Path" fill="#38D39F"></path>
            <path d="M466.817533,303 C466.551514,303.403082 466.342804,303.84462 466.197959,304.310744 C460.877819,310.864463 458.046215,316.977686 463.156416,317.133471 C467.918428,317.278512 473.632842,326.206612 475,328.46281 C474.953916,328.640083 474.897591,328.806612 474.836146,329 C474.836146,329 468.138607,317.316116 462.690456,317.181818 C457.242305,317.047521 460.806133,310.026446 466.817533,303 Z" id="Path" fill="#000000" opacity="0.1"></path>
            <path d="M460,308.046233 C460,309.678578 460.220588,311 460.5,311 C460.779412,311 461,309.678578 461,308.046233 C461,306.413889 460.720588,307.179237 460.441176,307.179237 C460.161765,307.179237 460,306.413889 460,308.046233 Z" id="Path" fill="#FFD037"></path>
            <path d="M458.71117,310.022952 C459.884325,310.715138 460.905948,311.135774 460.993935,310.960065 C461.081922,310.784356 460.202055,310.076197 459.038676,309.362714 C457.875297,308.64923 458.329895,309.176356 458.23702,309.362714 C458.144145,309.549071 457.542903,309.325442 458.71117,310.022952 Z" id="Path" fill="#FFD037"></path>
            <path d="M491.992431,322.921233 L491.838,324.202055 L491.614342,326.012142 L491.523813,326.763699 L491.300155,328.579078 L491.204301,329.330635 L490.985968,331.140722 L488.456499,351.729141 C488.232841,353.565691 485.208128,355 481.565693,355 L468.433753,355 C464.791318,355 461.77193,353.565691 461.548272,351.729141 L459.018803,331.140722 L458.795144,329.330635 L458.704616,328.579078 L458.475633,326.763699 L458.385104,326.012142 L458.166771,324.202055 L458.007015,322.921233 C457.87921,321.862702 459.514046,321 461.574898,321 L488.424548,321 C490.4854,321 492.125561,321.87858 491.992431,322.921233 Z" id="Path" fill="#444053"></path>
            <polygon id="Path" fill="#9D9CB5" points="491 325 490.7808 327 458.213981 327 458 325"></polygon>
            <polygon id="Path" fill="#9D9CB5" points="491 327 490.776632 329 458.223368 329 458 327"></polygon>
            <polygon id="Path" fill="#9D9CB5" points="491 330 490.784423 332 459.220835 332 459 330"></polygon>
        </g>
    </g>
</svg>