<?xml version="1.0" encoding="UTF-8"?>
<svg width="553px" height="367px" viewBox="0 0 553 367" version="1.1" xmlns="http://www.w3.org/2000/svg" xmlns:xlink="http://www.w3.org/1999/xlink">
    <!-- Generator: Sketch 52.5 (67469) - http://www.bohemiancoding.com/sketch -->
    <title>create</title>
    <desc>Created with Sketch.</desc>
    <g id="create" stroke="none" stroke-width="1" fill="none" fill-rule="evenodd">
        <g id="undraw_developer_activity_bv83" transform="translate(0.000000, 34.000000)">
            <path d="M552.517031,191.366978 C552.523664,199.466391 551.410341,207.527824 549.20869,215.322262 C547.08076,222.836448 543.95034,230.029754 539.901869,236.708148 C539.901869,260.904917 523.567843,281.817493 499.858873,291.766664 C489.95173,295.882282 479.324196,297.983818 468.596262,297.948672 L104.886472,297.948672 C85.446952,297.948672 67.4321921,292.703624 52.6581572,283.76869 C48.4299343,281.223325 44.4189491,278.333413 40.6660262,275.128367 C24.2450655,261.016 14.0640699,241.513694 14.0640699,219.973258 C4.8481152,205.782092 -0.0386112651,189.215553 -3.26011733e-14,172.294515 C-3.26011733e-14,136.863878 20.9560437,106.398166 50.9774236,92.9474672 C54.9639391,91.1622177 59.083197,89.6895547 63.2979738,88.542786 C64.7887394,88.1370917 66.2956041,87.7732547 67.8185677,87.4512751 C71.8784537,86.5867016 75.9963981,86.0217151 80.1391179,85.7608821 C81.6363231,85.667508 83.1415779,85.6143814 84.6548821,85.6015022 L85.4855895,85.6015022 C87.1566638,85.6015022 88.8132489,85.6594585 90.4601747,85.7560524 L91.0011004,84.8384105 C91.6643785,83.7308006 92.3437555,82.63446 93.0392314,81.5493886 C94.294952,79.5724338 95.6118486,77.6244571 96.9899214,75.7054585 C98.4323901,73.6802067 99.9376448,71.6871528 101.505686,69.7262969 L101.90655,69.2433275 C102.795214,68.1357176 103.703197,67.0409869 104.630498,65.9591354 C107.528314,62.5815691 110.587121,59.3054265 113.806917,56.1307074 C148.633843,21.9944279 203.1949,0.0193187773 264.532017,0.0193187773 C312.259057,0.0193187773 355.885686,13.3251266 389.302341,35.3098952 C401.961856,28.1458061 416.262692,24.3867195 430.808734,24.3996157 C478.014166,24.3996157 516.294323,63.215869 516.294323,111.097459 C516.287295,114.127082 516.126097,117.154386 515.811354,120.167624 C538.903269,136.514054 552.596336,163.075 552.517031,191.366978 Z" id="Path" fill="#38D39F" opacity="0.1"></path>
            <path d="M113.816576,56.1113886 L113.816576,65.9398166 L104.640157,65.9398166 C107.515435,62.5654702 110.574242,59.2893275 113.816576,56.1113886 Z" id="Path" fill="#38D39F" opacity="0.2"></path>
            <rect id="Rectangle" fill="#38D39F" opacity="0.2" x="118.33717" y="53.6192664" width="12.3205502" height="12.3205502"></rect>
            <rect id="Rectangle" fill="#38D39F" opacity="0.2" x="135.173485" y="53.6192664" width="12.3205502" height="12.3205502"></rect>
            <rect id="Rectangle" fill="#38D39F" opacity="0.2" x="152.014629" y="53.6192664" width="12.3205502" height="12.3205502"></rect>
            <rect id="Rectangle" fill="#38D39F" opacity="0.2" x="168.850943" y="53.6192664" width="12.3205502" height="12.3205502"></rect>
            <rect id="Rectangle" fill="#38D39F" opacity="0.2" x="185.692087" y="53.6192664" width="12.3205502" height="12.3205502"></rect>
            <rect id="Rectangle" fill="#38D39F" x="202.533231" y="53.6192664" width="12.3205502" height="12.3205502"></rect>
            <rect id="Rectangle" fill="#38D39F" opacity="0.2" x="219.369546" y="53.6192664" width="12.3205502" height="12.3205502"></rect>
            <rect id="Rectangle" fill="#38D39F" opacity="0.2" x="236.21069" y="53.6192664" width="12.3205502" height="12.3205502"></rect>
            <rect id="Rectangle" fill="#38D39F" opacity="0.2" x="253.047004" y="53.6192664" width="12.3205502" height="12.3205502"></rect>
            <rect id="Rectangle" fill="#38D39F" x="269.888148" y="53.6192664" width="12.3205502" height="12.3205502"></rect>
            <rect id="Rectangle" fill="#38D39F" opacity="0.2" x="286.729293" y="53.6192664" width="12.3205502" height="12.3205502"></rect>
            <rect id="Rectangle" fill="#38D39F" opacity="0.2" x="303.565607" y="53.6192664" width="12.3205502" height="12.3205502"></rect>
            <rect id="Rectangle" fill="#38D39F" opacity="0.2" x="320.406751" y="53.6192664" width="12.3205502" height="12.3205502"></rect>
            <rect id="Rectangle" fill="#38D39F" opacity="0.2" x="337.247895" y="53.6192664" width="12.3205502" height="12.3205502"></rect>
            <rect id="Rectangle" fill="#38D39F" opacity="0.2" x="354.08421" y="53.6192664" width="12.3205502" height="12.3205502"></rect>
            <rect id="Rectangle" fill="#38D39F" opacity="0.2" x="370.925354" y="53.6192664" width="12.3205502" height="12.3205502"></rect>
            <rect id="Rectangle" fill="#38D39F" x="387.761668" y="53.6192664" width="12.3205502" height="12.3205502"></rect>
            <rect id="Rectangle" fill="#38D39F" x="404.602812" y="53.6192664" width="12.3205502" height="12.3205502"></rect>
            <rect id="Rectangle" fill="#38D39F" opacity="0.2" x="421.443956" y="53.6192664" width="12.3205502" height="12.3205502"></rect>
            <rect id="Rectangle" fill="#38D39F" opacity="0.2" x="438.280271" y="53.6192664" width="12.3205502" height="12.3205502"></rect>
            <rect id="Rectangle" fill="#38D39F" x="455.121415" y="53.6192664" width="12.3205502" height="12.3205502"></rect>
            <rect id="Rectangle" fill="#38D39F" x="471.957729" y="53.6192664" width="12.3205502" height="12.3205502"></rect>
            <path d="M96.980262,75.7006288 L96.980262,81.544559 L93.0295721,81.544559 C94.2852926,79.5547249 95.6021892,77.6067482 96.980262,75.7006288 Z" id="Path" fill="#38D39F"></path>
            <rect id="Rectangle" fill="#38D39F" opacity="0.2" x="101.496026" y="69.2240087" width="12.3205502" height="12.3205502"></rect>
            <rect id="Rectangle" fill="#38D39F" x="118.33717" y="69.2240087" width="12.3205502" height="12.3205502"></rect>
            <rect id="Rectangle" fill="#38D39F" opacity="0.2" x="135.173485" y="69.2240087" width="12.3205502" height="12.3205502"></rect>
            <rect id="Rectangle" fill="#38D39F" opacity="0.7" x="152.014629" y="69.2240087" width="12.3205502" height="12.3205502"></rect>
            <rect id="Rectangle" fill="#38D39F" opacity="0.2" x="168.850943" y="69.2240087" width="12.3205502" height="12.3205502"></rect>
            <rect id="Rectangle" fill="#38D39F" opacity="0.4" x="185.692087" y="69.2240087" width="12.3205502" height="12.3205502"></rect>
            <rect id="Rectangle" fill="#38D39F" x="202.533231" y="69.2240087" width="12.3205502" height="12.3205502"></rect>
            <rect id="Rectangle" fill="#38D39F" opacity="0.4" x="219.369546" y="69.2240087" width="12.3205502" height="12.3205502"></rect>
            <rect id="Rectangle" fill="#38D39F" opacity="0.2" x="236.21069" y="69.2240087" width="12.3205502" height="12.3205502"></rect>
            <rect id="Rectangle" fill="#38D39F" opacity="0.4" x="253.047004" y="69.2240087" width="12.3205502" height="12.3205502"></rect>
            <rect id="Rectangle" fill="#38D39F" x="269.888148" y="69.2240087" width="12.3205502" height="12.3205502"></rect>
            <rect id="Rectangle" fill="#38D39F" opacity="0.4" x="286.729293" y="69.2240087" width="12.3205502" height="12.3205502"></rect>
            <rect id="Rectangle" fill="#38D39F" opacity="0.4" x="303.565607" y="69.2240087" width="12.3205502" height="12.3205502"></rect>
            <rect id="Rectangle" fill="#38D39F" opacity="0.2" x="320.406751" y="69.2240087" width="12.3205502" height="12.3205502"></rect>
            <rect id="Rectangle" fill="#38D39F" opacity="0.4" x="337.247895" y="69.2240087" width="12.3205502" height="12.3205502"></rect>
            <rect id="Rectangle" fill="#38D39F" opacity="0.4" x="354.08421" y="69.2240087" width="12.3205502" height="12.3205502"></rect>
            <rect id="Rectangle" fill="#38D39F" opacity="0.2" x="370.925354" y="69.2240087" width="12.3205502" height="12.3205502"></rect>
            <rect id="Rectangle" fill="#38D39F" opacity="0.2" x="387.761668" y="69.2240087" width="12.3205502" height="12.3205502"></rect>
            <rect id="Rectangle" fill="#38D39F" opacity="0.4" x="404.602812" y="69.2240087" width="12.3205502" height="12.3205502"></rect>
            <rect id="Rectangle" fill="#38D39F" opacity="0.2" x="421.443956" y="69.2240087" width="12.3205502" height="12.3205502"></rect>
            <rect id="Rectangle" fill="#38D39F" x="438.280271" y="69.2240087" width="12.3205502" height="12.3205502"></rect>
            <rect id="Rectangle" fill="#38D39F" x="455.121415" y="69.2240087" width="12.3205502" height="12.3205502"></rect>
            <rect id="Rectangle" fill="#38D39F" x="471.957729" y="69.2240087" width="12.3205502" height="12.3205502"></rect>
            <path d="M63.2979738,88.542786 L63.2979738,97.154131 L50.9774236,97.154131 L50.9774236,92.9474672 C54.9639391,91.1622177 59.083197,89.6895547 63.2979738,88.542786 Z" id="Path" fill="#38D39F" opacity="0.2"></path>
            <polygon id="Path" fill="#38D39F" opacity="0.2" points="80.1391179 85.7608821 80.1391179 97.154131 67.8185677 97.154131 67.8185677 87.4512751"></polygon>
            <rect id="Rectangle" fill="#38D39F" x="84.6548821" y="84.8335808" width="12.3205502" height="12.3205502"></rect>
            <rect id="Rectangle" fill="#38D39F" opacity="0.7" x="101.496026" y="84.8335808" width="12.3205502" height="12.3205502"></rect>
            <rect id="Rectangle" fill="#38D39F" x="118.33717" y="84.8335808" width="12.3205502" height="12.3205502"></rect>
            <rect id="Rectangle" fill="#38D39F" opacity="0.7" x="135.173485" y="84.8335808" width="12.3205502" height="12.3205502"></rect>
            <rect id="Rectangle" fill="#38D39F" opacity="0.7" x="152.014629" y="84.8335808" width="12.3205502" height="12.3205502"></rect>
            <rect id="Rectangle" fill="#38D39F" opacity="0.2" x="168.850943" y="84.8335808" width="12.3205502" height="12.3205502"></rect>
            <rect id="Rectangle" fill="#38D39F" opacity="0.4" x="185.692087" y="84.8335808" width="12.3205502" height="12.3205502"></rect>
            <rect id="Rectangle" fill="#38D39F" opacity="0.4" x="202.533231" y="84.8335808" width="12.3205502" height="12.3205502"></rect>
            <rect id="Rectangle" fill="#38D39F" x="219.369546" y="84.8335808" width="12.3205502" height="12.3205502"></rect>
            <rect id="Rectangle" fill="#38D39F" opacity="0.2" x="236.21069" y="84.8335808" width="12.3205502" height="12.3205502"></rect>
            <rect id="Rectangle" fill="#38D39F" opacity="0.4" x="253.047004" y="84.8335808" width="12.3205502" height="12.3205502"></rect>
            <rect id="Rectangle" fill="#38D39F" x="269.888148" y="84.8335808" width="12.3205502" height="12.3205502"></rect>
            <rect id="Rectangle" fill="#38D39F" opacity="0.2" x="286.729293" y="84.8335808" width="12.3205502" height="12.3205502"></rect>
            <rect id="Rectangle" fill="#38D39F" opacity="0.4" x="303.565607" y="84.8335808" width="12.3205502" height="12.3205502"></rect>
            <rect id="Rectangle" fill="#38D39F" opacity="0.2" x="320.406751" y="84.8335808" width="12.3205502" height="12.3205502"></rect>
            <rect id="Rectangle" fill="#38D39F" x="337.247895" y="84.8335808" width="12.3205502" height="12.3205502"></rect>
            <rect id="Rectangle" fill="#38D39F" opacity="0.2" x="354.08421" y="84.8335808" width="12.3205502" height="12.3205502"></rect>
            <rect id="Rectangle" fill="#38D39F" opacity="0.7" x="370.925354" y="84.8335808" width="12.3205502" height="12.3205502"></rect>
            <rect id="Rectangle" fill="#38D39F" opacity="0.7" x="387.761668" y="84.8335808" width="12.3205502" height="12.3205502"></rect>
            <rect id="Rectangle" fill="#38D39F" opacity="0.4" x="404.602812" y="84.8335808" width="12.3205502" height="12.3205502"></rect>
            <rect id="Rectangle" fill="#38D39F" opacity="0.2" x="421.443956" y="84.8335808" width="12.3205502" height="12.3205502"></rect>
            <rect id="Rectangle" fill="#38D39F" x="438.280271" y="84.8335808" width="12.3205502" height="12.3205502"></rect>
            <rect id="Rectangle" fill="#38D39F" x="455.121415" y="84.8335808" width="12.3205502" height="12.3205502"></rect>
            <rect id="Rectangle" fill="#38D39F" x="471.957729" y="84.8335808" width="12.3205502" height="12.3205502"></rect>
            <rect id="Rectangle" fill="#38D39F" opacity="0.2" x="50.9774236" y="100.438323" width="12.3205502" height="12.3205502"></rect>
            <rect id="Rectangle" fill="#38D39F" opacity="0.2" x="67.8185677" y="100.438323" width="12.3205502" height="12.3205502"></rect>
            <rect id="Rectangle" fill="#38D39F" opacity="0.2" x="84.6548821" y="100.438323" width="12.3205502" height="12.3205502"></rect>
            <rect id="Rectangle" fill="#38D39F" opacity="0.2" x="101.496026" y="100.438323" width="12.3205502" height="12.3205502"></rect>
            <rect id="Rectangle" fill="#38D39F" x="118.33717" y="100.438323" width="12.3205502" height="12.3205502"></rect>
            <rect id="Rectangle" fill="#38D39F" opacity="0.7" x="135.173485" y="100.438323" width="12.3205502" height="12.3205502"></rect>
            <rect id="Rectangle" fill="#38D39F" opacity="0.7" x="152.014629" y="100.438323" width="12.3205502" height="12.3205502"></rect>
            <rect id="Rectangle" fill="#38D39F" opacity="0.2" x="168.850943" y="100.438323" width="12.3205502" height="12.3205502"></rect>
            <rect id="Rectangle" fill="#38D39F" opacity="0.2" x="185.692087" y="100.438323" width="12.3205502" height="12.3205502"></rect>
            <rect id="Rectangle" fill="#38D39F" opacity="0.4" x="202.533231" y="100.438323" width="12.3205502" height="12.3205502"></rect>
            <rect id="Rectangle" fill="#38D39F" opacity="0.4" x="219.369546" y="100.438323" width="12.3205502" height="12.3205502"></rect>
            <rect id="Rectangle" fill="#38D39F" x="236.21069" y="100.438323" width="12.3205502" height="12.3205502"></rect>
            <rect id="Rectangle" fill="#38D39F" opacity="0.2" x="253.047004" y="100.438323" width="12.3205502" height="12.3205502"></rect>
            <rect id="Rectangle" fill="#38D39F" opacity="0.4" x="269.888148" y="100.438323" width="12.3205502" height="12.3205502"></rect>
            <rect id="Rectangle" fill="#38D39F" opacity="0.4" x="286.729293" y="100.438323" width="12.3205502" height="12.3205502"></rect>
            <rect id="Rectangle" fill="#38D39F" opacity="0.4" x="303.565607" y="100.438323" width="12.3205502" height="12.3205502"></rect>
            <rect id="Rectangle" fill="#38D39F" opacity="0.4" x="320.406751" y="100.438323" width="12.3205502" height="12.3205502"></rect>
            <rect id="Rectangle" fill="#38D39F" opacity="0.2" x="337.247895" y="100.438323" width="12.3205502" height="12.3205502"></rect>
            <rect id="Rectangle" fill="#38D39F" opacity="0.2" x="354.08421" y="100.438323" width="12.3205502" height="12.3205502"></rect>
            <rect id="Rectangle" fill="#38D39F" opacity="0.2" x="370.925354" y="100.438323" width="12.3205502" height="12.3205502"></rect>
            <rect id="Rectangle" fill="#38D39F" opacity="0.2" x="387.761668" y="100.438323" width="12.3205502" height="12.3205502"></rect>
            <rect id="Rectangle" fill="#38D39F" opacity="0.7" x="404.602812" y="100.438323" width="12.3205502" height="12.3205502"></rect>
            <rect id="Rectangle" fill="#38D39F" opacity="0.7" x="421.443956" y="100.438323" width="12.3205502" height="12.3205502"></rect>
            <rect id="Rectangle" fill="#38D39F" opacity="0.4" x="438.280271" y="100.438323" width="12.3205502" height="12.3205502"></rect>
            <rect id="Rectangle" fill="#38D39F" opacity="0.2" x="455.121415" y="100.438323" width="12.3205502" height="12.3205502"></rect>
            <rect id="Rectangle" fill="#38D39F" x="471.957729" y="100.438323" width="12.3205502" height="12.3205502"></rect>
            <rect id="Rectangle" fill="#38D39F" opacity="0.2" x="50.9774236" y="116.047895" width="12.3205502" height="12.3205502"></rect>
            <rect id="Rectangle" fill="#38D39F" opacity="0.2" x="67.8185677" y="116.047895" width="12.3205502" height="12.3205502"></rect>
            <rect id="Rectangle" fill="#38D39F" opacity="0.4" x="84.6548821" y="116.047895" width="12.3205502" height="12.3205502"></rect>
            <rect id="Rectangle" fill="#38D39F" opacity="0.2" x="101.496026" y="116.047895" width="12.3205502" height="12.3205502"></rect>
            <rect id="Rectangle" fill="#38D39F" opacity="0.2" x="118.33717" y="116.047895" width="12.3205502" height="12.3205502"></rect>
            <rect id="Rectangle" fill="#38D39F" opacity="0.7" x="135.173485" y="116.047895" width="12.3205502" height="12.3205502"></rect>
            <rect id="Rectangle" fill="#38D39F" opacity="0.7" x="152.014629" y="116.047895" width="12.3205502" height="12.3205502"></rect>
            <rect id="Rectangle" fill="#38D39F" opacity="0.2" x="168.850943" y="116.047895" width="12.3205502" height="12.3205502"></rect>
            <rect id="Rectangle" fill="#38D39F" opacity="0.2" x="185.692087" y="116.047895" width="12.3205502" height="12.3205502"></rect>
            <rect id="Rectangle" fill="#38D39F" opacity="0.4" x="202.533231" y="116.047895" width="12.3205502" height="12.3205502"></rect>
            <rect id="Rectangle" fill="#38D39F" x="219.369546" y="116.047895" width="12.3205502" height="12.3205502"></rect>
            <rect id="Rectangle" fill="#38D39F" opacity="0.2" x="236.21069" y="116.047895" width="12.3205502" height="12.3205502"></rect>
            <rect id="Rectangle" fill="#38D39F" x="253.047004" y="116.047895" width="12.3205502" height="12.3205502"></rect>
            <rect id="Rectangle" fill="#38D39F" x="269.888148" y="116.047895" width="12.3205502" height="12.3205502"></rect>
            <rect id="Rectangle" fill="#38D39F" x="286.729293" y="116.047895" width="12.3205502" height="12.3205502"></rect>
            <rect id="Rectangle" fill="#38D39F" opacity="0.2" x="303.565607" y="116.047895" width="12.3205502" height="12.3205502"></rect>
            <rect id="Rectangle" fill="#38D39F" x="320.406751" y="116.047895" width="12.3205502" height="12.3205502"></rect>
            <rect id="Rectangle" fill="#38D39F" opacity="0.2" x="337.247895" y="116.047895" width="12.3205502" height="12.3205502"></rect>
            <rect id="Rectangle" fill="#38D39F" opacity="0.2" x="354.08421" y="116.047895" width="12.3205502" height="12.3205502"></rect>
            <rect id="Rectangle" fill="#38D39F" opacity="0.2" x="370.925354" y="116.047895" width="12.3205502" height="12.3205502"></rect>
            <rect id="Rectangle" fill="#38D39F" opacity="0.2" x="387.761668" y="116.047895" width="12.3205502" height="12.3205502"></rect>
            <rect id="Rectangle" fill="#38D39F" opacity="0.2" x="404.602812" y="116.047895" width="12.3205502" height="12.3205502"></rect>
            <rect id="Rectangle" fill="#38D39F" opacity="0.7" x="421.443956" y="116.047895" width="12.3205502" height="12.3205502"></rect>
            <rect id="Rectangle" fill="#38D39F" opacity="0.2" x="438.280271" y="116.047895" width="12.3205502" height="12.3205502"></rect>
            <rect id="Rectangle" fill="#38D39F" opacity="0.2" x="455.121415" y="116.047895" width="12.3205502" height="12.3205502"></rect>
            <rect id="Rectangle" fill="#38D39F" x="471.957729" y="116.047895" width="12.3205502" height="12.3205502"></rect>
            <rect id="Rectangle" fill="#38D39F" opacity="0.2" x="50.9774236" y="131.652638" width="12.3205502" height="12.3205502"></rect>
            <rect id="Rectangle" fill="#38D39F" opacity="0.2" x="67.8185677" y="131.652638" width="12.3205502" height="12.3205502"></rect>
            <rect id="Rectangle" fill="#38D39F" opacity="0.2" x="84.6548821" y="131.652638" width="12.3205502" height="12.3205502"></rect>
            <rect id="Rectangle" fill="#38D39F" opacity="0.4" x="101.496026" y="131.652638" width="12.3205502" height="12.3205502"></rect>
            <rect id="Rectangle" fill="#38D39F" opacity="0.2" x="118.33717" y="131.652638" width="12.3205502" height="12.3205502"></rect>
            <rect id="Rectangle" fill="#38D39F" opacity="0.2" x="135.173485" y="131.652638" width="12.3205502" height="12.3205502"></rect>
            <rect id="Rectangle" fill="#38D39F" opacity="0.7" x="152.014629" y="131.652638" width="12.3205502" height="12.3205502"></rect>
            <rect id="Rectangle" fill="#38D39F" opacity="0.2" x="168.850943" y="131.652638" width="12.3205502" height="12.3205502"></rect>
            <rect id="Rectangle" fill="#38D39F" opacity="0.2" x="185.692087" y="131.652638" width="12.3205502" height="12.3205502"></rect>
            <rect id="Rectangle" fill="#38D39F" opacity="0.2" x="202.533231" y="131.652638" width="12.3205502" height="12.3205502"></rect>
            <rect id="Rectangle" fill="#38D39F" x="219.369546" y="131.652638" width="12.3205502" height="12.3205502"></rect>
            <rect id="Rectangle" fill="#38D39F" opacity="0.2" x="236.21069" y="131.652638" width="12.3205502" height="12.3205502"></rect>
            <rect id="Rectangle" fill="#38D39F" x="253.047004" y="131.652638" width="12.3205502" height="12.3205502"></rect>
            <rect id="Rectangle" fill="#38D39F" x="269.888148" y="131.652638" width="12.3205502" height="12.3205502"></rect>
            <rect id="Rectangle" fill="#38D39F" opacity="0.2" x="286.729293" y="131.652638" width="12.3205502" height="12.3205502"></rect>
            <rect id="Rectangle" fill="#38D39F" opacity="0.2" x="303.565607" y="131.652638" width="12.3205502" height="12.3205502"></rect>
            <rect id="Rectangle" fill="#38D39F" opacity="0.2" x="320.406751" y="131.652638" width="12.3205502" height="12.3205502"></rect>
            <rect id="Rectangle" fill="#38D39F" opacity="0.2" x="337.247895" y="131.652638" width="12.3205502" height="12.3205502"></rect>
            <rect id="Rectangle" fill="#38D39F" opacity="0.2" x="354.08421" y="131.652638" width="12.3205502" height="12.3205502"></rect>
            <rect id="Rectangle" fill="#38D39F" opacity="0.2" x="370.925354" y="131.652638" width="12.3205502" height="12.3205502"></rect>
            <rect id="Rectangle" fill="#38D39F" opacity="0.2" x="387.761668" y="131.652638" width="12.3205502" height="12.3205502"></rect>
            <rect id="Rectangle" fill="#38D39F" opacity="0.2" x="404.602812" y="131.652638" width="12.3205502" height="12.3205502"></rect>
            <rect id="Rectangle" fill="#38D39F" opacity="0.2" x="421.443956" y="131.652638" width="12.3205502" height="12.3205502"></rect>
            <rect id="Rectangle" fill="#38D39F" opacity="0.2" x="438.280271" y="131.652638" width="12.3205502" height="12.3205502"></rect>
            <rect id="Rectangle" fill="#38D39F" opacity="0.4" x="455.121415" y="131.652638" width="12.3205502" height="12.3205502"></rect>
            <rect id="Rectangle" fill="#38D39F" x="471.957729" y="131.652638" width="12.3205502" height="12.3205502"></rect>
            <rect id="Rectangle" fill="#38D39F" opacity="0.7" x="50.9774236" y="147.26221" width="12.3205502" height="12.3205502"></rect>
            <rect id="Rectangle" fill="#38D39F" opacity="0.7" x="67.8185677" y="147.26221" width="12.3205502" height="12.3205502"></rect>
            <rect id="Rectangle" fill="#38D39F" opacity="0.7" x="84.6548821" y="147.26221" width="12.3205502" height="12.3205502"></rect>
            <rect id="Rectangle" fill="#38D39F" opacity="0.7" x="101.496026" y="147.26221" width="12.3205502" height="12.3205502"></rect>
            <rect id="Rectangle" fill="#38D39F" opacity="0.7" x="118.33717" y="147.26221" width="12.3205502" height="12.3205502"></rect>
            <rect id="Rectangle" fill="#38D39F" opacity="0.2" x="135.173485" y="147.26221" width="12.3205502" height="12.3205502"></rect>
            <rect id="Rectangle" fill="#38D39F" opacity="0.2" x="152.014629" y="147.26221" width="12.3205502" height="12.3205502"></rect>
            <rect id="Rectangle" fill="#38D39F" opacity="0.2" x="168.850943" y="147.26221" width="12.3205502" height="12.3205502"></rect>
            <rect id="Rectangle" fill="#38D39F" opacity="0.2" x="185.692087" y="147.26221" width="12.3205502" height="12.3205502"></rect>
            <rect id="Rectangle" fill="#38D39F" opacity="0.2" x="202.533231" y="147.26221" width="12.3205502" height="12.3205502"></rect>
            <rect id="Rectangle" fill="#38D39F" opacity="0.2" x="219.369546" y="147.26221" width="12.3205502" height="12.3205502"></rect>
            <rect id="Rectangle" fill="#38D39F" x="236.21069" y="147.26221" width="12.3205502" height="12.3205502"></rect>
            <rect id="Rectangle" fill="#38D39F" opacity="0.2" x="253.047004" y="147.26221" width="12.3205502" height="12.3205502"></rect>
            <rect id="Rectangle" fill="#38D39F" opacity="0.2" x="269.888148" y="147.26221" width="12.3205502" height="12.3205502"></rect>
            <rect id="Rectangle" fill="#38D39F" opacity="0.2" x="286.729293" y="147.26221" width="12.3205502" height="12.3205502"></rect>
            <rect id="Rectangle" fill="#38D39F" x="303.565607" y="147.26221" width="12.3205502" height="12.3205502"></rect>
            <rect id="Rectangle" fill="#38D39F" opacity="0.2" x="320.406751" y="147.26221" width="12.3205502" height="12.3205502"></rect>
            <rect id="Rectangle" fill="#38D39F" opacity="0.2" x="337.247895" y="147.26221" width="12.3205502" height="12.3205502"></rect>
            <rect id="Rectangle" fill="#38D39F" opacity="0.2" x="354.08421" y="147.26221" width="12.3205502" height="12.3205502"></rect>
            <rect id="Rectangle" fill="#38D39F" opacity="0.2" x="370.925354" y="147.26221" width="12.3205502" height="12.3205502"></rect>
            <rect id="Rectangle" fill="#38D39F" opacity="0.2" x="387.761668" y="147.26221" width="12.3205502" height="12.3205502"></rect>
            <rect id="Rectangle" fill="#38D39F" opacity="0.2" x="404.602812" y="147.26221" width="12.3205502" height="12.3205502"></rect>
            <rect id="Rectangle" fill="#38D39F" opacity="0.2" x="421.443956" y="147.26221" width="12.3205502" height="12.3205502"></rect>
            <rect id="Rectangle" fill="#38D39F" opacity="0.2" x="438.280271" y="147.26221" width="12.3205502" height="12.3205502"></rect>
            <rect id="Rectangle" fill="#38D39F" opacity="0.2" x="455.121415" y="147.26221" width="12.3205502" height="12.3205502"></rect>
            <rect id="Rectangle" fill="#38D39F" x="471.957729" y="147.26221" width="12.3205502" height="12.3205502"></rect>
            <circle id="Oval" fill="#767D9F" cx="354.750707" cy="175.747747" r="16.8411441"></circle>
            <path d="M353.876533,154.323223 C355.557266,161.657918 356.983636,169.047351 358.155642,176.49152 C358.50821,178.70352 358.82214,181.036262 358.02041,183.12752 C357.349083,184.871039 355.982279,186.233013 354.910087,187.759197 C353.837895,189.28538 353.026507,191.241406 353.678515,192.989755 C354.330524,194.738105 356.233424,195.694384 358.049389,196.187013 C363.24614,197.587624 368.785799,196.568559 373.958402,195.052035 C376.300421,194.449106 378.545773,193.519098 380.62821,192.28945 C382.820891,190.898498 384.617537,188.96662 386.269293,186.976786 C393.808445,177.834175 398.744393,166.861109 403.390559,155.955659 C397.333918,156.506895 391.382219,154.108959 387.399441,149.512847 C385.496541,147.276699 384.10076,144.161546 385.172952,141.427939 C382.028821,143.15214 378.295467,143.268052 374.909852,144.446498 C372.810229,145.248389 370.789254,146.242709 368.872734,147.41676 C366.56092,148.752975 364.261985,150.114949 361.97593,151.502681 C359.363066,153.077162 356.91441,154.477773 353.876533,154.323223 Z" id="Path" fill="#AE6E79"></path>
            <path d="M389.099493,166.967362 C386.14855,172.709869 382.308943,178.23021 376.82724,181.649633 C371.345537,185.069057 363.965764,185.996358 358.474402,182.615572 C355.769773,180.963817 353.721983,178.452376 351.360262,176.336969 C348.998541,174.221563 346.047598,172.410428 342.874489,172.685721 C339.37779,172.989991 336.639354,175.718769 334.296952,178.331633 C330.742297,182.301642 327.308384,186.44069 324.792114,191.139983 C319.962419,200.171511 318.817782,210.729223 319.030288,220.968175 C319.242795,231.207127 320.725511,241.392952 320.759319,251.631904 C320.807616,264.227747 318.672891,276.722166 316.514017,289.129651 C336.364061,286.685825 356.238253,292.027467 376.131764,294.051109 C388.862838,295.359956 401.690507,295.330978 414.489197,295.29717 C416.739834,295.29717 419.135362,295.239214 421.009284,293.993153 C422.154678,293.157557 423.080951,292.057298 423.709083,290.786236 C425.476751,287.526192 426.186716,283.807328 426.679345,280.13193 C427.930236,270.849258 427.968873,261.450672 428.002681,252.081066 C428.089616,229.381502 428.171721,206.599834 425.288393,184.078969 C424.578428,178.53931 423.670445,172.970672 421.54538,167.78841 C419.420314,162.606148 415.952594,157.83924 411.103581,155.062166 C407.988428,153.275179 400.768035,150.164856 397.097467,151.966332 C392.977738,153.975485 391.074838,163.122926 389.099493,166.967362 Z" id="Path" fill="#767D9F"></path>
            <path d="M390.567721,231.067066 C389.819118,217.060952 386.771581,202.113048 393.25786,189.681415 C394.851659,186.629048 389.133301,182.818419 390.900969,179.862646 C393.05816,176.258922 394.693968,172.367778 395.759642,168.305188 C396.126699,166.909406 396.42131,165.43152 396.073572,164.030908 C395.431223,161.476 392.905293,159.954646 390.760908,158.399485 C388.394358,156.680114 387.177275,151.439895 386.414183,148.604865 C385.651092,145.769834 392.485109,149.184428 395.233205,148.175022 C399.048664,146.77924 403.897677,147.658245 407.703476,149.073345 C409.828541,149.855755 412.137135,149.923371 414.402262,149.981328 C418.802114,150.09724 423.216454,150.208323 427.582498,149.667397 C429.543354,149.421083 431.509039,149.049197 433.479555,149.160279 C438.507266,149.445231 442.87814,152.883974 445.853231,156.950576 C448.828323,161.017179 450.721563,165.755109 453.160559,170.15979 C455.19386,173.830358 457.618367,177.298079 459.352227,181.118367 C460.88807,184.499153 461.858838,188.131083 462.819948,191.743694 L465.297581,201.011878 C465.731001,202.337723 465.936757,203.727394 465.906122,205.121948 C465.78055,206.604664 465.123712,207.985956 464.457214,209.304463 C461.936923,214.1914 458.914972,218.80283 455.440175,223.064262 C450.228934,229.453948 443.902035,235.215773 440.806201,242.866009 C439.598777,245.84593 438.92745,249.01421 438.314079,252.17283 C435.841075,264.805913 434.083488,277.568576 433.049712,290.39986 C427.406356,287.7884 421.490876,285.810635 415.411668,284.502803 C412.38128,283.854431 409.317982,283.370752 406.235249,283.053895 C403.53545,282.773773 400.05324,283.305039 397.483843,282.570926 C393.185415,281.349013 392.712105,274.080323 392.060096,270.274524 C391.016882,264.213258 390.809205,258.045738 390.770568,251.921686 C390.722271,244.957266 390.939607,238.007336 390.567721,231.067066 Z" id="Path" fill="#4C4981"></path>
            <path d="M296.171345,204.875633 C298.204646,216.4669 300.445624,228.091974 304.864795,238.982934 C304.753712,239.089188 304.642629,239.185782 304.531546,239.282376 C304.140341,239.615624 303.734646,239.929555 303.309633,240.248314 C302.319546,240.94379 301.232865,241.533013 300.411817,242.440996 C300.100913,242.788477 299.855472,243.189364 299.687362,243.624271 C299.380526,244.311188 299.380526,245.096227 299.687362,245.783144 C297.383598,246.80221 294.707948,246.488279 292.124061,246.391686 C289.897572,246.309581 287.738699,246.391686 285.951712,247.613598 C283.469249,249.32331 282.720646,252.607502 282.319782,255.592253 C282.171671,256.680544 282.044489,257.770445 281.938236,258.861956 C281.835202,259.876192 281.751488,260.893648 281.687092,261.914323 C281.468164,265.290781 281.437528,268.676815 281.595328,272.056681 C281.621086,272.674882 281.654894,273.293083 281.696751,273.911284 C273.805031,273.722926 266.613616,269.608026 259.808576,265.609039 C258.253415,264.696227 256.649956,263.735118 255.64055,262.228253 C254.710458,260.748334 254.316621,258.993968 254.524891,257.258498 C254.524891,257.012183 254.568358,256.775528 254.602166,256.524384 C254.818464,255.091174 255.189291,253.685593 255.708166,252.33221 C257.837238,246.567508 260.975597,241.227882 264.976349,236.563258 C266.70538,234.544445 268.651747,232.5691 269.458306,230.033511 C269.810873,228.927511 269.941275,227.753895 270.298672,226.652725 C271.902131,221.880987 277.688105,219.62552 279.668279,214.993843 C280.151249,213.887843 280.373415,212.67559 280.972297,211.613057 C281.511442,210.729998 282.207014,209.952595 283.024917,209.318952 C283.377485,209.024341 283.744541,208.739389 284.106769,208.454437 C287.500434,205.794885 290.770137,202.985613 293.915878,200.02662 C294.501881,199.476035 295.081444,198.91901 295.654568,198.355546 C295.578044,200.541495 295.751426,202.729032 296.171345,204.875633 Z" id="Path" fill="#4C4981"></path>
            <path d="M344.840175,170.594463 C344.144699,171.328576 343.391266,172.019223 342.652323,172.705039 L342.454306,172.883738 L341.671895,173.608192 C340.251809,174.833825 339.022774,176.264715 338.025476,177.853493 L337.943371,177.988725 C335.480227,182.398236 336.393039,187.826812 337.078856,192.835205 C337.929492,199.076487 338.312105,205.372653 338.223493,211.671013 C338.097921,220.364463 337.074026,228.999956 337.054707,237.683747 C337.054707,239.654262 337.098175,241.619948 337.185109,243.590463 C337.32517,246.79255 337.566655,249.989808 337.856437,253.187066 C338.170367,256.693424 338.547083,260.194952 338.899651,263.69648 C339.179773,266.405939 339.445406,269.110568 339.667572,271.815197 C339.778655,273.215808 339.884908,274.61159 339.971843,276.012201 C340.073266,277.654297 340.155371,279.301223 340.203668,280.943319 C340.237476,281.986533 340.256795,283.024917 340.256795,284.068131 C340.256795,284.662183 340.256795,285.251406 340.256795,285.840629 C340.256795,286.970777 340.226207,288.097706 340.165031,289.221415 C340.100635,290.667103 340.002431,292.116012 339.870419,293.56814 C339.720699,295.14745 339.455066,296.871651 338.344236,297.98248 C338.27662,298.050096 338.204175,298.112882 338.131729,298.175668 L336.566908,297.98248 C325.779743,296.691027 314.889414,296.496846 304.063066,297.402917 C304.299721,295.77048 304.517057,294.142873 304.729563,292.505607 C304.826157,291.732856 304.922751,290.955275 305.014515,290.177694 C305.120769,289.289031 305.222192,288.400367 305.318786,287.511703 C305.429869,286.545764 305.531293,285.579825 305.627886,284.613886 C305.879031,282.124984 306.099587,279.634472 306.289555,277.142349 C306.569677,273.507199 306.782183,269.86561 306.927074,266.217581 C306.99791,264.475671 307.052646,262.732151 307.091284,260.987022 C307.14602,258.823319 307.171779,256.658006 307.168559,254.491083 C307.168559,252.385336 307.15085,250.27637 307.115432,248.164183 C307.115432,247.468707 307.086454,246.773231 307.028498,246.082585 C306.986919,245.460728 306.90138,244.842592 306.772524,244.232812 C306.413912,242.82676 305.92897,241.455992 305.323616,240.137231 C305.217362,239.886087 305.115939,239.654262 305.014515,239.388629 C304.956559,239.258227 304.903432,239.122996 304.850306,238.992594 C307.63221,236.514961 309.612384,233.196961 311.515284,229.932087 C314.601459,224.67255 317.760079,219.181188 318.276856,213.105432 C318.793633,207.029677 315.775074,200.205319 309.969782,198.350716 C308.390472,197.867747 306.719397,197.732515 305.09179,197.447563 C303.555948,197.1771 300.35386,196.563729 298.576533,195.462559 C297.610594,196.454256 296.644655,197.428245 295.678716,198.384524 C295.737301,196.92547 296.093972,195.493858 296.72676,194.17786 L297.412576,194.211668 C297.356699,194.056964 297.330483,193.893114 297.335301,193.728699 C297.335301,193.211921 297.692699,192.627528 298.45579,191.980349 C300.730576,190.048472 304.30938,189.618629 305.743799,187.005764 C306.342681,185.919083 306.444105,184.624725 306.927074,183.484917 C308.313197,180.234533 312.292865,179.036769 314.688393,176.438393 C317.083921,173.840017 317.682803,170.15979 319.619511,167.261974 C321.066184,165.145821 323.072807,163.473636 325.415144,162.432279 C325.608332,162.340515 325.806349,162.248751 326.004367,162.166646 C330.013013,160.452105 334.775092,160.0609 338.928629,160.070559 C340.541747,160.070559 344.724262,160.118856 346.772052,160.935074 C347.104184,161.053741 347.408329,161.239516 347.665546,161.48083 C349.848568,163.857039 346.453293,168.875092 344.840175,170.594463 Z" id="Path" fill="#4C4981"></path>
            <path d="M296.890969,193.839782 C304.427168,191.571037 312.558334,192.418251 319.464961,196.191843 C322.942341,198.123721 326.062323,200.81869 327.974882,204.29607 C330.84855,209.51214 330.722978,215.800402 330.520131,221.755415 C330.418707,224.735336 330.288306,227.821511 328.974629,230.497162 C327.453275,233.592996 324.584437,235.718061 321.657642,237.456751 C319.824144,238.626509 317.81539,239.495556 315.707459,240.030978 C312.461904,240.736114 309.090777,240.137231 305.821074,239.548009 C302.266419,238.89117 298.450961,238.0991 295.982987,235.452428 C294.534079,233.916585 293.742009,231.921921 292.959598,229.970725 C291.835889,227.153403 290.708961,224.339301 289.578812,221.528419 C287.622786,216.645598 286.961118,212.583825 289.545004,207.826576 C290.71862,205.658044 292.153039,203.629572 293.312166,201.44655 C293.891729,200.335721 295.968498,194.124734 296.890969,193.839782 Z" id="Path" fill="#4C4981"></path>
            <path d="M499.873362,277.330707 L499.873362,291.771493 C489.966219,295.887112 479.338686,297.988648 468.610751,297.953502 L338.358725,297.953502 C338.291109,298.021118 338.218664,298.083904 338.146218,298.14669 L336.581397,297.953502 L104.886472,297.953502 C85.446952,297.953502 67.4321921,292.708454 52.6581572,283.77352 L52.6581572,261.725965 L164.088865,248.864489 L164.175799,248.864489 L229.067572,254.360681 L245.860419,255.80959 L254.582847,256.548533 L272.636245,258.079546 L281.923747,258.866786 L295.446891,260.016253 L297.34979,260.175633 L307.096114,261.001511 L320.319817,262.088192 L338.91414,263.662672 L369.911118,266.294856 L391.717188,268.144629 L427.524541,271.182507 L434.33441,271.75724 L435.068524,271.820026 L435.706044,271.873153 L444.698934,272.636245 L454.57083,273.476611 L455.715467,273.573205 L499.873362,277.330707 Z" id="Path" fill="#504F60"></path>
            <polygon id="Path" fill="#9C9CA1" points="368.988646 276.799441 229.342865 252.9649 223.928777 280.344437 287.941546 288.009162 307.651528 290.477135 361.869677 279.798681"></polygon>
            <path d="M296.702611,289.105502 L366.665563,275.954245 C367.374294,275.818579 368.106558,276.006967 368.661824,276.467819 C369.21709,276.928671 369.537167,277.61369 369.534402,278.335284 C369.537553,279.501921 368.706214,280.503999 367.559057,280.716323 L299.233371,293.510183 L296.702611,289.105502 Z" id="Path" fill="#9C9CA1"></path>
            <path d="M327.05241,247.74883 C329.230603,247.545983 331.437773,247.203074 333.398629,246.237135 C335.813476,245.034541 337.692227,242.962603 339.928376,241.436419 C344.845004,238.055633 351.423048,237.601642 357.059301,239.543179 C362.695555,241.484716 367.399677,245.643083 370.693528,250.608009 C372.88138,253.916349 374.523476,258.137502 372.977974,261.788751 C372.447729,262.904855 371.779204,263.949831 370.98814,264.899074 L366.960175,270.163441 C366.194972,271.270075 365.27431,272.260681 364.226568,273.104725 C362.719703,274.201066 360.845782,274.650227 359.000838,274.92069 C354.098699,275.635485 349.109624,275.22979 344.168847,275.55821 C335.683074,276.123284 327.395319,278.856891 318.890227,278.765127 C314.002576,278.712 309.177712,277.726742 304.401144,276.741485 L283.261572,272.39476 C279.581345,271.641328 275.422978,270.540157 273.689118,267.202838 C272.911537,265.700803 272.766646,263.962114 272.674882,262.271721 C272.423738,257.615895 272.674882,252.438463 275.901118,249.081825 C278.934166,245.932865 283.730052,244.937948 287.352323,242.610035 C291.785983,239.755686 293.24938,240.678157 297.924524,242.822541 C307.045286,246.953126 317.080586,248.650358 327.05241,247.74883 Z" id="Path" fill="#AE6E79"></path>
            <path d="M327.05241,247.74883 C329.230603,247.545983 331.437773,247.203074 333.398629,246.237135 C335.813476,245.034541 337.692227,242.962603 339.928376,241.436419 C344.845004,238.055633 351.423048,237.601642 357.059301,239.543179 C362.695555,241.484716 367.399677,245.643083 370.693528,250.608009 C372.88138,253.916349 374.523476,258.137502 372.977974,261.788751 C372.447729,262.904855 371.779204,263.949831 370.98814,264.899074 L366.960175,270.163441 C366.194972,271.270075 365.27431,272.260681 364.226568,273.104725 C362.719703,274.201066 360.845782,274.650227 359.000838,274.92069 C354.098699,275.635485 349.109624,275.22979 344.168847,275.55821 C335.683074,276.123284 327.395319,278.856891 318.890227,278.765127 C314.002576,278.712 309.177712,277.726742 304.401144,276.741485 L283.261572,272.39476 C279.581345,271.641328 275.422978,270.540157 273.689118,267.202838 C272.911537,265.700803 272.766646,263.962114 272.674882,262.271721 C272.423738,257.615895 272.674882,252.438463 275.901118,249.081825 C278.934166,245.932865 283.730052,244.937948 287.352323,242.610035 C291.785983,239.755686 293.24938,240.678157 297.924524,242.822541 C307.045286,246.953126 317.080586,248.650358 327.05241,247.74883 Z" id="Path" fill="#000000" opacity="0.05"></path>
            <path d="M411.943948,241.127319 C406.013083,243.421424 400.04841,245.725188 393.837424,247.091991 C383.424603,249.386096 372.528812,249.023869 362.198096,251.646393 C356.740541,253.037345 351.316795,255.278323 345.70952,254.824332 C343.202908,254.621485 340.783231,253.858393 338.344236,253.27883 C324.642393,249.898044 309.066629,250.994384 297.939013,259.687834 C294.133214,262.658096 291.018061,266.362472 288.19269,270.313162 C286.968576,272.040868 286.579504,274.224785 287.13165,276.268938 C287.683796,278.313091 289.119525,280.004111 291.047039,280.880533 C295.374483,282.870628 300.010004,284.107093 304.753712,284.536611 C311.0951,285.096856 317.465467,284.198533 323.773048,283.30021 C333.132996,281.972044 342.497773,280.639048 351.833572,279.146672 C355.18538,278.610576 358.537188,278.055162 361.908314,277.630148 C386.167869,274.563293 410.866926,278.291817 435.189266,275.732079 C437.647581,275.471275 440.149362,275.133197 442.385511,274.085153 C448.045913,271.428821 450.847135,264.425764 449.678349,258.272734 C448.509563,252.119703 443.998629,247.005057 438.570052,243.865755 C434.02048,241.223913 429.113511,240.15655 424.047162,239.036061 C419.343039,237.939721 416.474201,239.388629 411.943948,241.127319 Z" id="Path" fill="#AE6E79"></path>
            <path d="M463.974245,204.344367 C466.649895,207.850725 467.219799,212.554847 466.930017,216.945039 C466.640236,221.335231 465.597022,225.677127 465.442472,230.086638 C465.229965,236.133415 466.688533,242.160873 466.442218,248.188332 C466.268349,252.404655 465.268603,256.538873 464.085328,260.586157 C462.689546,265.362725 460.670734,270.49669 456.261223,272.790795 C450.407633,275.838332 438.13055,274.12379 431.97269,276.509659 C432.532934,273.01779 437.903555,267.9611 438.463799,264.469231 C438.850175,262.054384 439.24138,259.571921 438.826026,257.152245 C438.29476,254.06607 436.483624,251.327633 434.33441,249.048017 C430.914987,245.420917 426.452349,242.69214 421.55021,241.803476 C416.64807,240.914812 404.646279,241.644096 400.724568,244.73993 C400.241598,241.542672 409.22483,238.461328 412.38345,237.770681 C413.95793,237.418114 415.764236,237.616131 417.024786,236.616384 C419.439633,234.723144 417.686454,230.951153 417.802367,227.922934 C417.894131,225.508087 419.304402,223.296087 419.589354,220.88124 C420.072323,217.017485 417.551223,213.081284 418.54131,209.289974 C418.908367,207.889362 419.724585,206.65779 420.289659,205.324795 C422.009031,201.243703 421.255598,196.587878 420.337956,192.250812 C419.768052,189.526865 419.212638,186.455179 420.729162,184.132096 C422.134603,181.963563 426.12393,189.686245 428.678838,189.328847 C437.116314,188.145572 444.752061,181.891118 451.56676,187.010594 C455.03931,189.618629 455.493301,192.323258 456.879424,196.046952 C458.226908,199.591948 461.718777,201.407913 463.974245,204.344367 Z" id="Path" fill="#000000" opacity="0.1"></path>
            <path d="M465.423153,204.344367 C468.098803,207.850725 468.668707,212.554847 468.378926,216.945039 C468.089144,221.335231 467.04593,225.677127 466.89138,230.086638 C466.678873,236.133415 468.137441,242.160873 467.891127,248.188332 C467.717258,252.404655 466.717511,256.538873 465.534236,260.586157 C464.138454,265.362725 462.119642,270.49669 457.710131,272.790795 C451.856541,275.838332 439.579459,274.12379 433.421598,276.509659 C433.981843,273.01779 439.352463,267.9611 439.912707,264.469231 C440.299083,262.054384 440.690288,259.571921 440.274934,257.152245 C439.743668,254.06607 437.932533,251.327633 435.783319,249.048017 C432.363895,245.420917 427.901258,242.69214 422.999118,241.803476 C418.096978,240.914812 406.095188,241.644096 402.173476,244.73993 C401.690507,241.542672 410.673738,238.461328 413.832358,237.770681 C415.406838,237.418114 417.213144,237.616131 418.473694,236.616384 C420.888541,234.723144 419.135362,230.951153 419.251275,227.922934 C419.343039,225.508087 420.75331,223.296087 421.038262,220.88124 C421.521231,217.017485 419.000131,213.081284 419.990218,209.289974 C420.357275,207.889362 421.173493,206.65779 421.738568,205.324795 C423.457939,201.243703 422.704507,196.587878 421.786865,192.250812 C421.216961,189.526865 420.661546,186.455179 422.17807,184.132096 C423.583511,181.963563 426.331607,181.142515 428.886515,180.780288 C437.44079,179.623229 446.108234,181.85943 453.034987,187.010594 C456.507537,189.618629 456.961528,192.323258 458.347651,196.046952 C459.675817,199.591948 463.167686,201.407913 465.423153,204.344367 Z" id="Path" fill="#4C4981"></path>
            <path d="M145.856769,181.461275 L172.115817,278.509153 C172.775521,280.94385 174.874142,282.715463 177.385013,282.957301 L295.577293,294.311913 C297.531895,294.500391 299.456565,293.729527 300.740657,292.243895 C302.02475,290.758263 302.508872,288.742275 302.039424,286.835546 L273.283424,169.773415 C272.576833,166.900054 269.897455,164.957914 266.946865,165.180376 L151.232218,173.835188 C149.433411,173.974944 147.790572,174.909411 146.751094,176.384106 C145.711616,177.858801 145.383745,179.720158 145.856769,181.461275 Z" id="Path" fill="#9C9CA1"></path>
            <ellipse id="Oval" fill="#FFFFFF" cx="380.15007" cy="187.23759" rx="12.9918777" ry="13.160917"></ellipse>
            <path d="M390.818865,163.229179 C390.818865,163.229179 393.557301,171.372044 385.477223,174.796297 L384.443668,176.602603 L389.505188,181.596507 C389.505188,181.596507 395.745153,170.212917 395.068996,166.170463 C395.068996,166.170463 394.103057,162.065223 390.818865,163.229179 Z" id="Path" fill="#FFFFFF"></path>
            <circle id="Oval" fill="#38D39F" cx="381.642445" cy="187.870279" r="12.5282271"></circle>
            <path d="M395.131782,168.020236 L393.141948,164.736044 L390.244131,164.32552 C390.862332,153.511834 388.056279,150.290428 388.056279,150.290428 L387.404271,150.227642 L384.56441,149.952349 L379.222769,144.40786 L379.222769,142.83338 C386.728114,143.726873 390.876821,147.291188 393.117799,151.468873 C397.078148,158.800349 395.131782,168.020236 395.131782,168.020236 Z" id="Path" fill="#38D39F"></path>
            <path d="M387.428419,148.237808 L387.428419,150.227642 L384.588559,149.952349 L379.246917,144.40786 C379.246917,144.40786 387.510524,146.257633 387.428419,148.237808 Z" id="Path" stroke="#4C4981" fill="#000000" opacity="0.1"></path>
            <path d="M395.131782,168.020236 L393.141948,164.736044 L393.141948,151.488192 C397.078148,158.800349 395.131782,168.020236 395.131782,168.020236 Z" id="Path" stroke="#4C4981" fill="#000000" opacity="0.1"></path>
            <ellipse id="Oval" fill="#FFFFFF" transform="translate(352.136149, 182.011553) rotate(-30.000000) translate(-352.136149, -182.011553) " cx="352.136149" cy="182.011553" rx="6.96924891" ry="12.7117555"></ellipse>
            <path d="M354.016594,180.949328 C357.527782,187.029913 361.835869,191.091686 358.50338,193.023563 C355.170891,194.955441 345.463205,193.989502 341.952017,187.904087 C338.44083,181.818672 341.628428,173.415004 344.960917,171.483127 C348.293406,169.551249 350.500576,174.854253 354.016594,180.949328 Z" id="Path" fill="#38D39F"></path>
            <path d="M385.279205,137.144 C385.279205,156.57386 371.983057,175.298585 352.553197,175.298585 C333.121431,175.298585 317.368873,159.546027 317.368873,140.114262 C317.368873,120.682497 333.121431,104.929939 352.553197,104.929939 C371.983057,104.949258 385.279205,117.70931 385.279205,137.144 Z" id="Path" fill="#000000" opacity="0.1"></path>
            <circle id="Oval" fill="#AE6E79" cx="352.553197" cy="139.167642" r="35.1843231"></circle>
            <path d="M349.462192,123.577389 C353.649537,125.118061 356.12717,129.445467 359.884672,131.855485 C365.197336,135.236271 372.113459,134.362096 378.179555,132.691022 C381.560341,131.76855 385.095677,130.643231 388.423336,131.667127 C388.91283,131.883852 389.452792,131.960751 389.983328,131.889293 C390.707782,131.681616 391.065179,130.879886 391.301834,130.165092 C395.416734,117.897668 393.566961,104.002638 387.355974,92.6528559 C385.752515,89.7260611 383.830297,86.8958603 381.183624,84.862559 C379.097197,83.2639301 376.643712,82.2158865 374.170908,81.322393 C369.651872,79.6993932 364.977896,78.545465 360.222751,77.878821 C359.383009,77.7262426 358.525332,77.6985756 357.677502,77.7967162 C356.513546,77.9850742 355.470332,78.6129345 354.431948,79.173179 C349.984675,81.5571813 345.052733,82.8967006 340.01048,83.0900611 C333.248908,83.3460349 325.521397,81.7522358 320.310157,86.0893013 C314.031555,91.2908821 315.596376,101.43807 311.524943,108.499083 C308.829974,113.169397 303.633223,116.559843 302.778367,121.877336 C302.55576,123.502622 302.659197,125.155971 303.082638,126.740838 C305.072472,134.922341 312.99317,141.2589 321.435476,141.40862 C322.731947,141.507521 324.030216,141.24151 325.183319,140.640699 C325.938822,140.12513 326.605896,139.490676 327.158664,138.761948 C332.688664,132.212882 339.015563,119.732952 349.462192,123.577389 Z" id="Path" fill="#444053"></path>
            <path d="M391.301834,126.605607 C391.065179,127.320402 390.707782,128.122131 389.983328,128.329808 C389.452792,128.401266 388.91283,128.324368 388.423336,128.107642 C385.095677,127.083747 381.541022,128.209066 378.184384,129.131537 C372.113459,130.802611 365.182847,131.696105 359.889502,128.296 C356.12717,125.881153 353.654367,121.534428 349.462192,120.017904 C339.015563,116.154148 332.688664,128.653397 327.144175,135.202463 C326.591407,135.931191 325.924333,136.565645 325.16883,137.081214 C324.015727,137.682025 322.717458,137.948036 321.420987,137.849135 C313.007659,137.699415 305.082131,131.362856 303.068148,123.181354 C302.957066,122.698384 302.860472,122.215415 302.788026,121.732445 C302.788026,121.775913 302.788026,121.81455 302.763878,121.858017 C302.541271,123.483303 302.644708,125.136652 303.068148,126.72152 C305.057983,134.903022 312.983511,141.239581 321.420987,141.389301 C322.717458,141.488202 324.015727,141.222191 325.16883,140.62138 C325.924333,140.105811 326.591407,139.471357 327.144175,138.742629 C332.688664,132.193563 339.015563,119.713633 349.462192,123.55807 C353.654367,125.098742 356.12717,129.426148 359.889502,131.836166 C365.202166,135.216952 372.113459,134.342777 378.184384,132.671703 C381.56517,131.749231 385.095677,130.623913 388.423336,131.647808 C388.91283,131.864534 389.452792,131.941432 389.983328,131.869974 C390.707782,131.662297 391.065179,130.860568 391.301834,130.145773 C392.96156,125.126337 393.69472,119.846931 393.465537,114.565179 C393.323351,118.661427 392.594706,122.716141 391.301834,126.605607 Z" id="Path" fill="#000000" opacity="0.1"></path>
        </g>
    </g>
</svg>