<?xml version="1.0" encoding="UTF-8"?>
<svg width="1092px" height="829px" viewBox="0 0 1092 829" version="1.1" xmlns="http://www.w3.org/2000/svg" xmlns:xlink="http://www.w3.org/1999/xlink">
    <!-- Generator: Sketch 55.2 (78181) - https://sketchapp.com -->
    <title>enterprise-svg</title>
    <desc>Created with Sketch.</desc>
    <defs>
        <linearGradient x1="50.0059443%" y1="100.000891%" x2="50.0059443%" y2="-0.00326906072%" id="linearGradient-1">
            <stop stop-color="#808080" stop-opacity="0.25" offset="0%"></stop>
            <stop stop-color="#808080" stop-opacity="0.12" offset="54%"></stop>
            <stop stop-color="#808080" stop-opacity="0.1" offset="100%"></stop>
        </linearGradient>
    </defs>
    <g id="Page-1" stroke="none" stroke-width="1" fill="none" fill-rule="evenodd">
        <g id="enterprise-svg" fill-rule="nonzero">
            <path d="M1077.89,239.01 C1077.7,239.9 1077.52,240.79 1077.31,241.67 C1070.75,271.92 1060.03,301.07 1044.09,327.84 C1043.56,328.73 1043.03,329.62 1042.49,330.51 C1031.9792,347.733635 1019.40262,363.608002 1005.04,377.78 C997.1,385.62 988.44,393.07 978.14,398.44 C963.71,405.98 946.84,409.04 930.26,411.54 C913.04,414.15 895.58,416.33 878.17,418.68 C871.983333,419.5 865.833333,420.37 859.72,421.29 C842.9,423.78 826.2,426.66 809.9,430.48 C789.75,435.19 770.22,441.36 751.77,450.04 C750.296667,450.706667 748.84,451.413333 747.4,452.16 C745.96,452.88 744.51,453.61 743.09,454.35 C741.67,455.09 740.27,455.83 738.88,456.59 C738.16,456.98 737.44,457.37 736.73,457.78 C736.02,458.19 735.32,458.55 734.63,458.95 C732.55,460.11 730.51,461.3 728.47,462.5 L728.39,462.55 C727.04,463.34 725.71,464.15 724.39,464.96 C716.85,469.54 709.47,474.32 702.09,479.13 L697.45,482.13 L690.26,486.78 C688.86,487.69 687.43,488.6 686.02,489.5 C685.02,490.16 684.02,490.82 682.93,491.5 C677.69,494.8 672.38,498.04 666.93,501.13 C665.64,501.87 664.34,502.61 663.03,503.33 C652.018981,509.472914 640.50388,514.665081 628.61,518.85 L628.45,518.91 C622.466392,520.997356 616.36189,522.720509 610.17,524.07 C606.6,524.85 603.02,525.49 599.4,525.98 C589.72325,527.351985 579.911456,527.489754 570.2,526.39 C551.13,524.18 533.26,516.86 514.2,514.39 C474.96,509.39 436.85,525.5 399.95,538.12 C390.876667,541.22 381.736667,544.123333 372.53,546.83 C366.41,548.64 360.27,550.35 354.08,552 C316.155805,562.01984 277.450624,568.807465 238.38,572.29 C222.047487,573.890444 205.617407,574.254815 189.23,573.38 C183,573 176.84,572.38 170.79,571.38 C150.09,568.18 130.79,561.47 115.21,549.18 C102.45,539.09 93.32,525.94 86.37,512.18 C79.2555476,498.139461 74.2324106,483.134061 71.46,467.64 C71.08,465.53 70.74,463.41 70.46,461.29 C69.96,457.663333 69.5866667,454.016667 69.34,450.35 C67.9944816,430.806073 70.3281952,411.183205 76.22,392.5 C82.82,371.58 93.82,351.5 98.66,330.42 C98.86,329.526667 99.05,328.636667 99.23,327.75 C99.8910231,324.54827 100.381713,321.313724 100.7,318.06 C103.17,292.16 93.7,266.91 86.27,241.58 C86.01,240.7 85.75,239.81 85.5,238.92 C84.7,236.106667 83.9333333,233.296667 83.2,230.49 C76.32,203.71 74.41,175.04 80.54,148.31 C80.73,147.42 80.96,146.53 81.18,145.65 C85.2838284,128.753658 93.0009724,112.947501 103.8,99.32 C115.28,84.92 130.35,72.93 146.45,62.4 C154.296667,57.2666667 162.41,52.47 170.79,48.01 C176.79,44.81 182.936667,41.78 189.23,38.92 C239.68,15.92 297.23,4.69 354.14,7.17 C357.14,7.3 360.14,7.46 363.14,7.68 C366.14,7.9 369.42,8.16 372.56,8.45 C409.22,12.01 444.89,20.6 480.31,29.99 C492.18,33.14 504.03,36.37 515.87,39.54 C521.14,40.94 526.4,42.34 531.67,43.7 C557.48,50.37 583.67,56.41 610.19,60.92 C616.33,61.98 622.476667,62.9466667 628.63,63.82 C649.994643,66.9598754 671.53173,68.7866372 693.12,69.29 C701.513333,69.4566667 709.91,69.3833333 718.31,69.07 C722.55,68.9166667 726.793333,68.6866667 731.04,68.38 C774.89,65.29 817.27,54.95 859.72,45.29 C865.86,43.89 872.01,42.51 878.17,41.15 C886.25,39.37 894.33,37.65 902.45,36.06 C952.98,26.13 998.02,31.84 1045,52.33 C1055.68,56.98 1066.35,62.6 1072.89,71.33 C1079.43,80.06 1081.07,90.78 1082.29,101.13 C1084.02,115.87 1085.15,130.8 1085.58,145.81 C1085.58,146.69 1085.58,147.58 1085.64,148.47 C1086.32,178.79 1084.06,209.4 1077.89,239.01 Z" id="Path" fill="#00BFA6" opacity="0.1"></path>
            <path d="M742.71,327.84 L739.41,327.84 L739.41,329.02 L739.41,330.51 L743.15,330.51 L742.71,327.84 Z M705.28,327.84 C705.275144,327.863081 705.275144,327.886919 705.28,327.91 C705.19,328.64 705.09,329.37 704.99,330.11 L704.99,330.31 L704.99,330.51 L733.59,330.51 L733.59,330.35 L735.59,327.84 L705.28,327.84 Z M628.63,327.84 L628.63,241.67 L661.53,241.67 C661.18,241.44 660.82,241.2 660.45,240.98 L659.97,240.67 L659.35,240.29 C658.99,240.08 658.63,239.87 658.25,239.67 C657.87,239.47 657.64,239.33 657.32,239.16 L657.1,239.04 L657.05,239.04 L628.63,239.04 L628.63,234.29 L627.86,234.59 L627.05,234.97 L626.99,234.97 L626.82,235.06 L626.31,235.33 L625.8,235.6 C625.3,235.87 624.8,236.17 624.3,236.48 L623.82,236.8 L622.82,237.44 C621.53,238.3 620.26,239.2 618.95,240.04 C618.62,240.25 618.29,240.46 617.95,240.65 C617.24,241.07 616.51,241.47 615.76,241.83 C615.44,241.99 615.13,242.13 614.76,242.26 L614.22,242.47 L613.72,242.64 L613.72,242.64 C612.546828,243.048309 611.34303,243.362634 610.12,243.58 L610.12,327.82 L560.79,327.82 C560.79,327.92 560.86,328 560.89,328.1 C561.16,328.9 561.43,329.69 561.69,330.49 L610.19,330.49 L610.19,422.85 C610.443333,422.85 610.693333,422.85 610.94,422.85 L611.81,422.9 L613.38,422.99 L615.89,423.29 L617.04,423.4 L618.29,423.53 L618.48,423.53 L620.69,423.8 L621.16,423.86 L622.23,424.01 L623.76,424.23 L623.76,424.23 L627.43,424.07 L627.43,424.07 L627.93,424.16 C628.13,424.16 628.34,424.22 628.55,424.26 L628.55,330.51 L704.89,330.51 L704.89,330.31 L704.89,330.11 C704.99,329.37 705.09,328.64 705.18,327.91 C705.175144,327.886919 705.175144,327.863081 705.18,327.84 L628.63,327.84 Z M742.71,327.84 L739.41,327.84 L739.41,329.02 L739.41,330.51 L743.15,330.51 L742.71,327.84 Z M703.22,327.84 C703.1,328.73 702.99,329.62 702.87,330.51 L734.76,330.51 L736.93,327.84 L703.22,327.84 Z M628.63,327.84 L628.63,241.67 L661.53,241.67 C661.18,241.44 660.82,241.2 660.45,240.98 L659.97,240.67 L659.35,240.29 C658.99,240.08 658.63,239.87 658.25,239.67 C657.87,239.47 657.64,239.33 657.32,239.16 L657.1,239.04 L657.03,239.04 L628.63,239.04 L628.63,234.29 L627.86,234.59 L627.05,234.97 L626.99,234.97 L626.82,235.06 L626.31,235.33 L625.8,235.6 C625.3,235.87 624.8,236.17 624.3,236.48 L623.82,236.8 L622.82,237.44 C621.53,238.3 620.26,239.2 618.95,240.04 C618.62,240.25 618.29,240.46 617.95,240.65 C617.24,241.07 616.51,241.47 615.76,241.83 C615.44,241.99 615.13,242.13 614.76,242.26 L614.22,242.47 L613.72,242.64 L613.72,242.64 C612.546828,243.048309 611.34303,243.362634 610.12,243.58 L610.12,327.82 L560.79,327.82 C560.79,327.92 560.86,328 560.89,328.1 C561.16,328.89 561.44,329.69 561.7,330.49 L610.19,330.49 L610.19,422.84 L610.94,422.84 L611.81,422.89 L613.38,422.98 L615.89,423.29 L617.04,423.4 L618.29,423.53 L618.48,423.53 L620.69,423.8 L621.16,423.86 L622.23,424.01 L623.76,424.23 L623.76,424.23 L627.43,424.07 L627.43,424.07 L627.93,424.16 C628.13,424.16 628.34,424.22 628.55,424.26 L628.55,330.51 L702.89,330.51 C703.01,329.62 703.12,328.73 703.24,327.84 L628.63,327.84 Z M878.17,148.4 L1085.64,148.4 C1085.64,147.51 1085.64,146.62 1085.58,145.74 L878.17,145.74 L878.17,41.12 C872.01,42.4533333 865.86,43.8333333 859.72,45.26 L859.72,145.74 L634.08,145.74 L633.51,145.23 L634.37,144.47 L634.37,144.47 L718.3,69.05 C709.9,69.37 701.503333,69.4433333 693.11,69.27 L628.62,127.21 L628.62,63.82 C622.46,62.9466667 616.313333,61.98 610.18,60.92 L610.18,124.29 L515.89,39.54 C504.05,36.37 492.2,33.14 480.33,29.99 L608.56,145.23 L607.99,145.74 L372.59,145.74 L372.59,8.54 C369.45,8.24666667 366.31,7.99 363.17,7.77 C360.17,7.55 357.17,7.39 354.17,7.26 L354.17,145.74 L189.23,145.74 L189.23,39.01 C183.003333,41.8633333 176.856667,44.8933333 170.79,48.1 L170.79,145.74 L81.18,145.74 C80.96,146.62 80.73,147.51 80.54,148.4 L170.79,148.4 L170.79,239.01 L85.5,239.01 C85.75,239.9 86.01,240.79 86.27,241.67 L170.79,241.67 L170.79,327.84 L99.23,327.84 C99.05,328.726667 98.86,329.616667 98.66,330.51 L170.79,330.51 L170.79,571.44 C176.79,572.37 183,573.02 189.23,573.44 L189.23,330.51 L354.14,330.51 L354.14,552.04 C360.33,550.39 366.47,548.68 372.59,546.87 L372.59,330.51 L610.19,330.51 L610.19,524.06 C616.38189,522.710509 622.486392,520.987356 628.47,518.9 L628.63,518.84 L628.63,330.51 L859.72,330.51 L859.72,421.29 C865.853333,420.39 872.003333,419.526667 878.17,418.7 L878.17,330.51 L1042.49,330.51 C1043.03,329.62 1043.56,328.73 1044.09,327.84 L878.17,327.84 L878.17,241.67 L1077.31,241.67 C1077.52,240.79 1077.7,239.9 1077.89,239.01 L878.17,239.01 L878.17,148.4 Z M189.23,148.4 L354.14,148.4 L354.14,239.01 L189.23,239.01 L189.23,148.4 Z M189.23,327.84 L189.23,241.67 L354.14,241.67 L354.14,327.84 L189.23,327.84 Z M372.59,148.4 L610.19,148.4 L610.19,239.01 L372.59,239.01 L372.59,148.4 Z M372.59,327.84 L372.59,241.67 L610.19,241.67 L610.19,327.84 L372.59,327.84 Z M859.72,327.84 L628.63,327.84 L628.63,241.67 L859.72,241.67 L859.72,327.84 Z M859.72,239.01 L628.63,239.01 L628.63,150.83 L631.87,148.4 L859.72,148.4 L859.72,239.01 Z M705.28,327.84 C705.275144,327.863081 705.275144,327.886919 705.28,327.91 C705.19,328.64 705.09,329.37 704.99,330.11 L704.99,330.31 L704.99,330.51 L733.59,330.51 L733.59,330.35 L735.59,327.84 L705.28,327.84 Z M742.71,327.84 L739.41,327.84 L739.41,329.02 L739.41,330.51 L743.15,330.51 L742.71,327.84 Z M628.63,327.84 L628.63,241.67 L661.53,241.67 C661.18,241.44 660.82,241.2 660.45,240.98 L659.97,240.67 L659.35,240.29 C658.99,240.08 658.63,239.87 658.25,239.67 C657.87,239.47 657.64,239.33 657.32,239.16 L657.1,239.04 L657.05,239.04 L628.63,239.04 L628.63,234.29 L627.86,234.59 L627.05,234.97 L626.99,234.97 L626.82,235.06 L626.31,235.33 L625.8,235.6 C625.3,235.87 624.8,236.17 624.3,236.48 L623.82,236.8 L622.82,237.44 C621.53,238.3 620.26,239.2 618.95,240.04 C618.62,240.25 618.29,240.46 617.95,240.65 C617.24,241.07 616.51,241.47 615.76,241.83 C615.44,241.99 615.13,242.13 614.76,242.26 L614.22,242.47 L613.72,242.64 L613.72,242.64 C612.546828,243.048309 611.34303,243.362634 610.12,243.58 L610.12,327.82 L560.79,327.82 C560.79,327.92 560.86,328 560.89,328.1 C561.16,328.9 561.43,329.69 561.69,330.49 L610.19,330.49 L610.19,422.85 C610.443333,422.85 610.693333,422.85 610.94,422.85 L611.81,422.9 L613.38,422.99 L615.89,423.29 L617.04,423.4 L618.29,423.53 L618.48,423.53 L620.69,423.8 L621.16,423.86 L622.23,424.01 L623.76,424.23 L623.76,424.23 L627.43,424.07 L627.43,424.07 L627.93,424.16 C628.13,424.16 628.34,424.22 628.55,424.26 L628.55,330.51 L704.89,330.51 L704.89,330.31 L704.89,330.11 C704.99,329.37 705.09,328.64 705.18,327.91 C705.175144,327.886919 705.175144,327.863081 705.18,327.84 L628.63,327.84 Z" id="Shape" fill="#00BFA6" opacity="0.1"></path>
            <path d="M268.52,86.02 L269.95,86.02 C268.99048,85.6140718 268.322446,84.7246325 268.2,83.69 L268.2,83.69 C268.2,81.85 270.95,80.35 274.31,80.35 L317.07,80.35 C320.43,80.35 323.17,81.85 323.17,83.69 L323.17,83.69 C323.17,85.52 320.43,87.03 317.07,87.03 L315.64,87.03 C316.600677,87.4290343 317.270225,88.3166645 317.39,89.35 C317.39,90.92 315.39,92.24 312.72,92.59 L325.03,92.59 C328.38,92.59 331.13,94.09 331.13,95.93 C331.13,97.77 328.38,99.27 325.03,99.27 L282.26,99.27 C278.91,99.27 276.16,97.76 276.16,95.93 C276.16,94.36 278.16,93.05 280.83,92.69 L268.52,92.69 C265.16,92.69 262.42,91.19 262.42,89.35 C262.42,87.51 265.16,86.02 268.52,86.02 Z" id="Path" fill="#00BFA6" opacity="0.1"></path>
            <path d="M731.96,117.79 L733.39,117.79 C732.434366,117.381264 731.77055,116.492361 731.65,115.46 L731.65,115.46 C731.65,113.62 734.39,112.12 737.75,112.12 L780.51,112.12 C783.87,112.12 786.62,113.62 786.62,115.46 L786.62,115.46 C786.62,117.29 783.87,118.79 780.51,118.79 L779.09,118.79 C780.045634,119.198736 780.70945,120.087639 780.83,121.12 C780.83,122.69 778.83,124.01 776.16,124.36 L788.47,124.36 C791.83,124.36 794.57,125.86 794.57,127.7 C794.57,129.54 791.83,131.04 788.47,131.04 L745.71,131.04 C742.35,131.04 739.6,129.53 739.6,127.7 C739.6,126.13 741.6,124.81 744.27,124.46 L731.96,124.46 C728.61,124.46 725.86,122.96 725.86,121.12 C725.86,119.28 728.61,117.79 731.96,117.79 Z" id="Path" fill="#00BFA6" opacity="0.1"></path>
            <path d="M202.89,253.75 L204.31,253.75 C203.353031,253.342963 202.688542,252.453159 202.57,251.42 L202.57,251.42 C202.57,249.59 205.32,248.08 208.67,248.08 L251.44,248.08 C254.79,248.08 257.54,249.59 257.54,251.42 L257.54,251.42 C257.54,253.26 254.79,254.76 251.44,254.76 L250.01,254.76 C250.968141,255.160138 251.634147,256.048146 251.75,257.08 C251.75,258.65 249.75,259.97 247.08,260.32 L259.39,260.32 C262.75,260.32 265.5,261.83 265.5,263.66 C265.5,265.49 262.75,267 259.39,267 L216.67,267 C213.31,267 210.57,265.5 210.57,263.66 C210.57,262.1 212.57,260.78 215.24,260.42 L202.89,260.42 C199.53,260.42 196.78,258.92 196.78,257.08 C196.78,255.24 199.57,253.75 202.89,253.75 Z" id="Path" fill="#00BFA6" opacity="0.1"></path>
            <ellipse id="Oval" fill="#00BFA6" opacity="0.1" transform="translate(798.600416, 567.302326) rotate(-78.450000) translate(-798.600416, -567.302326) " cx="798.600416" cy="567.302326" rx="64.96" ry="213.77"></ellipse>
            <path d="M774.45,384.88 C774.45,384.88 785.82,329.07 829.23,334.24 C829.23,334.24 859.23,336.3 865.4,355.94 L865.4,399.35 L774.45,384.88 Z" id="Path" fill="#3A3768"></path>
            <polygon id="Path" fill="#D48A9B" points="1012.18 405.56 625.61 373.51 576 383.85 579.1 453.1 582.48 453.51 586.33 557.5 965.66 625.71 1005.98 591.6 1005.98 478.87 1011.14 475.84"></polygon>
            <polygon id="Path" fill="#000000" opacity="0.05" points="1012.7 405.56 1011.66 475.84 969.8 495.48 969.28 422.09"></polygon>
            <polygon id="Path" fill="#000000" opacity="0.05" points="1005.98 478.94 1006.49 589.54 966.18 623.65 968.77 495.48"></polygon>
            <polygon id="Path" fill="#000000" opacity="0.05" points="583 457.65 969.08 504.76 969.28 495.82 582.71 454.13"></polygon>
            <polygon id="Path" fill="#000000" opacity="0.05" points="1005.98 483 1005.98 478.94 967.73 495.82 967.73 504.78"></polygon>
            <polygon id="Path" fill="#EFC6CD" points="575.48 383.85 625.09 373.51 1011.66 405.56 968.25 422.09"></polygon>
            <polygon id="Path" fill="#000000" opacity="0.1" points="970.48 407.55 989.45 408.79 958.01 418.2 942 417.05"></polygon>
            <polygon id="Path" fill="#FFFFFF" points="970.48 406.72 989.45 407.96 958.01 417.38 942 416.22"></polygon>
            <path d="M968.21,408.85 C968.96,408.53 969.75,409.14 970.55,409.29 C971.01,409.38 971.48,409.29 971.94,409.38 C972.87,409.5 973.79,410.12 974.68,409.81" id="Path" fill="#D3DAE1"></path>
            <path d="M967.23,409.42 C967.97,409.1 968.77,409.7 969.57,409.86 C970.03,409.94 970.5,409.86 970.96,409.94 C971.89,410.07 972.81,410.69 973.7,410.38" id="Path" fill="#D3DAE1"></path>
            <path d="M964.97,410.56 C965.72,410.24 966.52,410.84 967.32,410.99 C967.77,411.08 968.25,410.99 968.7,411.08 C969.64,411.21 970.56,411.83 971.44,411.51" id="Path" fill="#D3DAE1"></path>
            <polygon id="Path" fill="#000000" opacity="0.1" points="888.48 398.21 907.45 399.46 876.01 408.87 860 407.71"></polygon>
            <polygon id="Path" fill="#FFFFFF" points="888.48 397.39 907.45 398.63 876.01 408.04 860 406.89"></polygon>
            <path d="M886.21,399.52 C886.96,399.2 887.75,399.8 888.55,399.96 C889.01,400.04 889.48,399.96 889.94,400.04 C890.87,400.17 891.79,400.79 892.68,400.48" id="Path" fill="#D3DAE1"></path>
            <path d="M885.23,400.09 C885.97,399.77 886.77,400.37 887.57,400.52 C888.03,400.61 888.5,400.52 888.96,400.61 C889.89,400.74 890.81,401.36 891.7,401.04" id="Path" fill="#D3DAE1"></path>
            <path d="M882.97,401.22 C883.72,400.9 884.52,401.51 885.32,401.66 C885.77,401.75 886.25,401.66 886.7,401.75 C887.64,401.87 888.56,402.5 889.44,402.18" id="Path" fill="#D3DAE1"></path>
            <polygon id="Path" fill="#000000" opacity="0.1" points="927.81 402.88 946.79 404.12 915.35 413.54 899.33 412.38"></polygon>
            <polygon id="Path" fill="#FFFFFF" points="927.81 402.06 946.79 403.3 915.35 412.71 899.33 411.55"></polygon>
            <path d="M925.54,404.19 C926.29,403.87 927.09,404.47 927.89,404.62 C928.34,404.71 928.81,404.62 929.27,404.71 C930.2,404.83 931.13,405.46 932.01,405.14" id="Path" fill="#D3DAE1"></path>
            <path d="M924.56,404.75 C925.31,404.43 926.11,405.04 926.91,405.19 C927.36,405.28 927.83,405.19 928.29,405.28 C929.22,405.4 930.15,406.03 931.03,405.71" id="Path" fill="#D3DAE1"></path>
            <path d="M922.31,405.89 C923.05,405.57 923.85,406.17 924.65,406.33 C925.11,406.41 925.58,406.33 926.04,406.41 C926.97,406.54 927.89,407.16 928.78,406.85" id="Path" fill="#D3DAE1"></path>
            <ellipse id="Oval" fill="#00BFA6" opacity="0.1" cx="498.32" cy="749.7" rx="202.48" ry="41.68"></ellipse>
            <path d="M720.05,408.38 C717.89,389.4 709.34,371.29 709.34,371.29 L709.99,364.89 C709.99,364.89 710.13,361.69 709.92,356.89 C709.942949,353.893121 710.335923,350.910548 711.09,348.01 C712.84,342.46 708.9,335.64 708.46,335.01 C708.02,334.38 708.68,322.21 704.74,316.24 C700.8,310.27 674.56,299.17 674.56,299.17 C674.56,299.17 673.15,296.22 671.16,292.77 L671.34,292.42 C669.711872,289.466449 667.69377,286.745374 665.34,284.33 C663.73,282.61 662.18,281.63 660.93,282.11 C660.4216,280.450178 660.033922,278.755757 659.77,277.04 C660.03,277.11 660.3,277.18 660.56,277.23 C661.643063,277.481203 662.766037,277.508427 663.86,277.31 C666.3,276.76 667.92,274.57 669.28,272.51 C676.06,262.21 681.9,250.91 683.09,238.72 C683.409829,236.231973 683.291372,233.707153 682.74,231.26 C682.177516,229.357461 681.392064,227.528096 680.4,225.81 C678.647281,222.284791 676.427285,219.011979 673.8,216.08 C669.13,211.16 662.69,208.15 656.07,206.37 C648.612213,204.364453 640.842937,203.784301 633.17,204.66 C631.17,204.89 629.17,205.22 627.17,205.35 C624.633054,205.461753 622.091649,205.418338 619.56,205.22 L606.47,204.46 L606.41,204.26 L604.23,204.13 C603.37,205.84 604.23,207.87 605.3,209.47 C606.37,211.07 607.6,212.74 607.51,214.63 C607.42,216.52 606.05,218.04 604.98,219.63 C603.91,221.22 603.1,223.3 604.17,224.86 C604.320477,225.075731 604.498671,225.270737 604.7,225.44 C605.83,226.61 607.8,226.74 609.51,226.72 L609.81,226.72 C605.503554,232.391746 603.174693,239.318614 603.18,246.44 C603.239105,258.846305 610.218694,270.181867 621.27,275.82 C621.46,276.47 621.65,277.14 621.83,277.82 C623.812293,284.844033 624.52347,292.165777 623.93,299.44 L623.7,299.94 L623.56,299.41 C623.56,299.41 608.14,309.87 603.56,312.64 C598.98,315.41 594.38,324.8 594.16,327.36 C593.94,329.92 586.72,368.53 586.72,368.53 C585.252715,372.419471 584.043426,376.401438 583.1,380.45 L573.89,388.54 C573.89,388.54 554.89,390.25 549.39,388.97 L549.55,390.03 C544.699796,388.922804 539.759953,388.253448 534.79,388.03 C532.075647,387.681058 529.317244,388.049995 526.79,389.1 L526.6,389.19 L526.45,389.26 C523.554605,389.655723 520.727835,390.449911 518.05,391.62 C517.73,391.75 517.44,391.88 517.16,392.01 L517.22,390.7 L496.66,389.64 L486.16,387.51 C486.16,387.51 482.44,384.51 480.25,384.95 C478.06,385.39 473.47,382.39 473.47,382.39 C472.422878,381.569418 471.289535,380.86527 470.09,380.29 C469.74,377.87 469.52,376.4 469.52,376.4 C469.52,376.4 461.35,343.98 455.23,324.92 C451.13,312.19 445.23,305.92 441.75,303.19 C440.2,300.49 439.18,298.75 439.18,298.75 C438.51,296.41 434.83,291.14 433.89,291.01 C433.74,290.77 433.63,290.65 433.57,290.65 C433.36886,290.628492 433.16558,290.659501 432.98,290.74 C431.26,282.18 430.26,271.45 432.89,262.1 C440.179527,256.109261 444.411765,247.175349 444.43,237.74 C444.43,237.6 444.43,237.46 444.43,237.32 C444.43,237.18 444.43,237.03 444.43,236.89 C444.427968,229.458295 441.795919,222.267096 437,216.59 L436.66,216.21 C436.750999,216.14554 436.837838,216.075401 436.92,216 C438.450846,214.758352 439.176692,212.776677 438.81,210.84 C438.36,208.92 436.86,207.41 436.09,205.59 C435.627527,204.188929 435.256743,202.75924 434.98,201.31 C434.390782,199.251615 433.309704,197.367451 431.83,195.82 L431.98,196.22 C428.06,191.81 421.32,189.62 415.25,190.6 C410.74,191.32 406.54,193.42 402.01,194.07 C398.76,194.53 395.45,194.23 392.18,194.56 C389.146061,194.871971 386.192652,195.725479 383.46,197.08 C382.746183,197.383685 382.112818,197.849294 381.61,198.44 C381.144903,199.231403 380.832811,200.103226 380.69,201.01 C379.58,205.06 376.06,207.95 373.51,211.33 C370.597129,215.19162 368.910984,219.83897 368.67,224.67 C368.570421,225.897787 368.688915,227.133509 369.02,228.32 C369.24,229.03 369.58,229.7 369.74,230.42 C370.24,232.62 369.09,234.81 368.53,236.99 C367.824562,239.770947 368.074626,242.708318 369.24,245.33 C373.19,254.17 386.16,257.12 388.86,266.4 C390.9258,267.349609 393.108019,268.022096 395.35,268.4 C395.53,269.32 395.69,270.25 395.82,271.19 C395.759178,271.215705 395.702018,271.249329 395.65,271.29 C392.15,274.7 391.28,281.29 391.28,281.29 L390.86,281.63 C389.43,282.81 384.54,286.77 380.12,289.82 C374.87,293.45 366.12,305.61 360,309.24 C353.88,312.87 348.84,335.24 350.16,343.37 C351.48,351.5 356.94,374.3 354.75,382.62 C352.56,390.94 358.03,428.91 358.03,428.91 C361.700619,429.609115 365.291908,430.674441 368.75,432.09 L368.64,433.75 L368.31,438.75 C368.31,438.75 358.4,474.59 362.19,502.18 C365.98,529.77 360.44,532.61 360.44,532.61 C360.44,532.61 361.6,544.84 358.69,549.11 C355.78,553.38 355.19,562.76 355.19,562.76 C355.19,562.76 354.9,583.81 355.48,589.76 C356.06,595.71 356.35,606.55 354.31,609.11 C352.27,611.67 348.48,628.44 348.77,633.56 C349.06,638.68 341.48,650.35 345.56,665.42 C349.64,680.49 333.56,680.78 333.56,680.78 C333.56,680.78 335.61,703.78 339.98,710.36 L340.62,711.3 C340.51,711.68 340.4,712.08 340.28,712.51 C338.63,718.51 336.37,727.98 337.94,730.27 C340.27,733.69 341.44,733.11 341.44,733.11 L342.31,748.47 C342.31,748.47 359.81,763.26 373.23,762.7 C386.65,762.14 384.02,748.47 384.02,748.47 L372.59,718.83 L372.2,717.83 L384.9,693.83 C384.9,693.83 388.4,683.31 389.27,679.61 C390.14,675.91 394.89,662.8 394.89,662.8 C394.89,662.8 406.89,634.36 407.14,630.94 C407.39,627.52 408.31,609.05 410.64,605.34 C412.97,601.63 419.39,580.34 419.39,580.34 L419.55,580.48 C421.769058,582.660205 422.607051,585.885323 421.73,588.87 C420.26,594.27 421.14,605.36 421.14,605.36 C421.14,605.36 420.56,614.75 419.39,619.59 C418.22,624.43 417.94,663.96 419.98,673.34 C421.61,680.85 421.56,694.91 421.48,700.23 C420.11,705.88 418.91,712.9 421.14,713.73 C424.94,715.16 444.19,714.87 444.19,714.87 C444.19,714.87 452.35,712.02 463.44,721.98 C474.53,731.94 508.64,719.14 508.64,719.14 C508.64,719.14 519.14,716.29 498.43,708.05 C483.98,702.3 474.65,698.47 468.55,694.37 C468.69,694.1 468.84,693.83 468.97,693.54 C468.97,693.54 460.51,685.54 467.51,671.36 C474.51,657.18 474.22,645.19 474.22,645.19 L475.39,597.4 L471.89,533.96 L469.18,467.38 L469.66,467.22 C470.12,479.46 472.51,508.6 485.02,502.95 C500.77,495.84 487.35,477.35 487.35,477.35 L480.28,463.57 L482.39,462.85 L474.48,437.29 C473.720909,432.301443 473.620047,427.234815 474.18,422.22 C474.336577,419.286233 474.276414,416.34491 474,413.42 C484.36,411.61 494.28,409.69 496.06,410.13 C498.16,410.64 509.91,410.74 514.53,410.76 C513.02,411.94 511.81,413.11 511.81,413.11 L530.62,425.77 C530.62,425.77 537,422.28 538.33,418.58 C539.638764,418.248922 540.847017,417.603604 541.85,416.7 C542.05,421.07 543.21,425.8 547.25,425.91 C548.260378,425.931159 549.263357,425.733293 550.19,425.33 L580.95,419.24 L578.31,435.73 L580.15,439 C579.22,452.91 578.15,467.68 577.21,480.67 L576.78,483.51 L577,483.56 C575.54,503.56 574.37,518.71 574.37,518.71 C576.092938,515.427003 578.76601,512.739991 582.04,511 L582.24,540.68 C582.24,540.68 583.78,587.61 583.78,594.01 C583.78,600.41 583.99,614.7 583.99,614.7 C583.99,614.7 587.28,632.19 589.24,637.95 C591.2,643.71 592.74,669.95 592.74,669.95 C592.74,669.95 597.34,677.2 595.37,679.95 C593.4,682.7 603.03,688.69 603.03,688.69 C603.03,688.69 596.9,697.01 596.46,702.56 C596.41,703.2 597.04,703.88 598.18,704.56 C597.82,704.85 597.45,705.14 597.04,705.42 C594.2,707.32 590.04,708.64 583.78,708.1 C566.71,706.6 554.68,722.39 565.18,725.59 C575.68,728.79 607.18,729.43 607.18,729.43 C607.18,729.43 616.72,723.48 624.18,726.16 C624.07,732.42 624.38,738.16 624.43,738.92 L624.34,738.99 C619.88,742.99 611.34,749.87 603,752.68 C591,756.73 588.34,773.16 603.87,775.29 C619.4,777.42 642.15,772.73 642.15,772.73 C642.15,772.73 653.96,763.99 662.93,762.07 C671.9,760.15 679.56,755.88 678.03,750.76 C677.03,747.49 674.46,738.92 672.72,733.16 C672.62,732.813333 672.52,732.48 672.42,732.16 C672.69,731.56 672.96,730.94 673.21,730.3 C673.21,730.3 668.62,706.41 672.34,700.44 C676.06,694.47 674.09,634.73 674.09,634.73 C674.09,634.73 667.74,619.59 671.03,610.42 C674.32,601.25 665.78,588.23 665.78,588.23 C665.78,588.23 666.71,562.14 669.21,547.6 C669.323333,546.98 669.433333,546.38 669.54,545.8 C673.725685,544.557626 677.805348,542.982609 681.74,541.09 C681.74,541.09 683.93,508.23 685.24,500.77 C685.37,500.07 685.55,498.94 685.77,497.47 L686.77,492.2 L686.77,492.2 L687.95,486.2 L687.95,486.2 L691.95,465.75 L699.17,456.41 L717.77,437.41 C717.77,437.41 722.24,427.37 720.05,408.38 Z M433.21,291.05 L433.07,291.15 C433.048592,291.077826 433.03189,291.004338 433.02,290.93 C433.078071,290.977781 433.141902,291.018095 433.21,291.05 L433.21,291.05 Z M616.98,314.34 L616.26,315.91 L618.89,313.29 L615.32,317.29 L616.52,314.77 L616.98,314.34 Z M599.22,351.04 C598.53,352.87 597.79,354.85 597.02,356.91 L598.43,352.7 L599.22,351.04 Z" id="Shape" fill="url(#linearGradient-1)"></path>
            <path d="M541.83,410.87 C541.83,410.87 539.38,427.18 546.73,427.39 C554.08,427.6 558.99,414.81 558.99,414.81 L555.99,404.58 L541.83,410.87 Z" id="Path" fill="#585B8A"></path>
            <path d="M541.83,410.87 C541.83,410.87 539.38,427.18 546.73,427.39 C554.08,427.6 558.99,414.81 558.99,414.81 L555.99,404.58 L541.83,410.87 Z" id="Path" fill="#000000" opacity="0.2"></path>
            <path d="M377.2,763.91 C364.12,764.48 347.06,749.7 347.06,749.7 L346.21,734.35 C346.21,734.35 345.08,734.92 342.8,731.51 C341.27,729.22 343.47,719.73 345.08,713.76 C345.86,710.84 346.5,708.76 346.5,708.76 L375.2,716.44 L376.57,720.07 L387.71,749.69 C387.71,749.69 390.27,763.34 377.2,763.91 Z" id="Path" fill="#636992"></path>
            <path d="M509.07,720.43 C509.07,720.43 475.82,733.22 465.07,723.27 C454.32,713.32 446.31,716.16 446.31,716.16 C446.31,716.16 427.55,716.45 423.85,715.02 C421.67,714.19 422.85,707.08 424.21,701.42 C425.13,697.51 426.13,694.28 426.13,694.28 C426.13,694.28 458.81,683.19 463.93,690.01 C465.467866,692.013808 467.306239,693.767852 469.38,695.21 C475.3,699.49 484.55,703.37 499.18,709.34 C519.3,717.58 509.07,720.43 509.07,720.43 Z" id="Path" fill="#636992"></path>
            <path d="M479.23,460.64 L488.32,478.83 C488.32,478.83 501.4,497.31 486.05,504.41 C470.7,511.51 470.99,463.49 470.99,463.49 L479.23,460.64 Z" id="Path" fill="#FFD6D6"></path>
            <path d="M441.14,302.9 C441.14,302.9 451.09,307.45 457.06,326.49 C463.03,345.53 470.99,377.94 470.99,377.94 C470.99,377.94 476.39,414.6 475.53,423.7 C474.982831,428.711772 475.080292,433.773008 475.82,438.76 L483.49,464.34 L468.14,469.74 L444.55,379.36 L441.14,302.9 Z" id="Path" fill="#DCE6F2"></path>
            <path d="M441.14,302.9 C441.14,302.9 451.09,307.45 457.06,326.49 C463.03,345.53 470.99,377.94 470.99,377.94 C470.99,377.94 476.39,414.6 475.53,423.7 C474.982831,428.711772 475.080292,433.773008 475.82,438.76 L483.49,464.34 L468.14,469.74 L444.55,379.36 L441.14,302.9 Z" id="Path" fill="#000000" opacity="0.05"></path>
            <path d="M375.2,716.45 L376.57,720.08 L374.89,723.29 C368.35,726.13 352.15,723.86 352.15,723.86 C352.15,723.86 349.15,720.05 345.05,713.78 C345.83,710.86 346.47,708.78 346.47,708.78 L375.2,716.45 Z" id="Path" fill="#000000" opacity="0.1"></path>
            <path d="M470.42,696.55 C462.13,715.33 433.95,708.36 426.12,706.01 C424.83,705.62 424.12,705.36 424.12,705.36 C424.12,705.36 424.17,703.83 424.19,701.42 C425.11,697.51 426.11,694.28 426.11,694.28 C426.11,694.28 458.79,683.19 463.91,690.01 C465.447866,692.013808 467.286239,693.767852 469.36,695.21 C469.672976,695.68716 470.027702,696.135587 470.42,696.55 Z" id="Path" fill="#000000" opacity="0.1"></path>
            <path d="M468.99,672.68 C462.17,686.88 470.42,694.85 470.42,694.85 C462.13,713.62 433.95,706.66 426.12,704.3 C424.83,703.92 424.12,703.66 424.12,703.66 C424.12,703.66 424.69,684.04 422.7,674.66 C420.71,665.28 420.99,625.78 422.13,620.95 C423.27,616.12 423.83,606.73 423.83,606.73 C423.83,606.73 422.98,595.65 424.4,590.25 C425.270206,587.278993 424.458328,584.069779 422.28,581.87 L422.13,581.72 C422.13,581.72 415.88,603.04 413.6,606.72 C411.32,610.4 410.48,628.89 410.19,632.3 C409.9,635.71 398.25,664.14 398.25,664.14 C398.25,664.14 393.71,677.21 392.86,680.9 C392.01,684.59 388.59,695.12 388.59,695.12 L374.89,721.56 C368.35,724.4 352.15,722.13 352.15,722.13 C352.15,722.13 349.03,718.13 344.76,711.61 C340.49,705.09 338.51,682.06 338.51,682.06 C338.51,682.06 354.14,681.77 350.16,666.71 C346.18,651.65 353.57,639.99 353.29,634.87 C353.01,629.75 356.7,612.99 358.69,610.43 C360.68,607.87 360.39,597.07 359.82,591.1 C359.25,585.13 359.54,564.1 359.54,564.1 C359.54,564.1 360.11,554.72 362.95,550.46 C365.79,546.2 364.66,533.97 364.66,533.97 C364.66,533.97 370.05,531.13 366.36,503.56 C362.67,475.99 372.36,440.18 372.36,440.18 L372.69,435.18 L373.21,427.08 C373.21,427.08 454.5,421.96 461.04,428.21 C462.749466,429.944701 464.152658,431.956506 465.19,434.16 C467.427491,438.969969 469.00831,444.058863 469.89,449.29 L473.3,535.41 L476.71,598.79 L475.57,646.54 C475.57,646.54 475.82,658.46 468.99,672.68 Z" id="Path" fill="#565988"></path>
            <path d="M444.89,502.71 L436.36,687.45 L426.12,704.29 C424.83,703.91 424.12,703.65 424.12,703.65 C424.12,703.65 424.69,684.03 422.7,674.65 C420.71,665.27 420.99,625.77 422.13,620.94 C423.27,616.11 423.83,606.72 423.83,606.72 C423.83,606.72 422.98,595.64 424.4,590.24 C425.270206,587.268993 424.458328,584.059779 422.28,581.86 L422.42,580.86 L444.89,502.71 Z" id="Path" fill="#000000" opacity="0.1"></path>
            <path d="M353.03,701.1 C353.03,701.1 375.2,692.29 378.61,695.1 C382.02,697.91 352.47,702.2 352.47,702.2 L353.03,701.1 Z" id="Path" fill="#000000" opacity="0.1"></path>
            <path d="M462.46,677.79 C461.61,678.08 440.01,685.79 442,693.99 C443.99,702.19 462.46,677.79 462.46,677.79 Z" id="Path" fill="#000000" opacity="0.1"></path>
            <path d="M394.96,257.29 C394.96,257.29 402.2,274.77 398.37,283.73 C394.54,292.69 439.72,308.03 439.72,308.03 C439.72,308.03 426.51,273.92 439.3,254.73 C452.09,235.54 394.96,257.29 394.96,257.29 Z" id="Path" fill="#FFD6D6"></path>
            <path d="M659.5,763.34 C650.76,765.26 639.25,774 639.25,774 C639.25,774 617.08,778.69 601.94,776.56 C586.8,774.43 589.37,758.01 601.09,753.96 C609.22,751.16 617.55,744.25 621.9,740.29 C623.82,738.52 624.96,737.29 624.96,737.29 L667.39,728.76 C667.39,728.76 668.08,731.13 669.04,734.4 C670.74,740.17 673.25,748.73 674.21,751.99 C675.7,757.16 668.24,761.42 659.5,763.34 Z" id="Path" fill="#505484"></path>
            <path d="M648.63,730.51 C648.63,730.51 630.72,732.43 623.26,728.17 C615.8,723.91 605.14,730.73 605.14,730.73 C605.14,730.73 574.44,730.09 564.21,726.89 C553.98,723.69 565.7,707.89 582.33,709.41 C588.39,709.96 592.49,708.63 595.26,706.73 C598.153556,704.74669 600.170281,701.723394 600.89,698.29 L636.89,700.42 L641.89,713.18 L648.63,730.51 Z" id="Path" fill="#505484"></path>
            <path d="M642.44,719 C642.44,719 600.6,712.16 595.26,706.73 C598.153556,704.74669 600.170281,701.723394 600.89,698.29 L636.89,700.42 L641.89,713.18 L642.44,719 Z" id="Path" fill="#000000" opacity="0.1"></path>
            <path d="M580.41,479.62 L580.84,542.07 C580.84,542.07 582.33,588.97 582.33,595.37 C582.33,601.77 582.54,616.04 582.54,616.04 C582.54,616.04 585.74,633.52 587.66,639.28 C589.58,645.04 591.07,671.28 591.07,671.28 C591.07,671.28 595.55,678.53 593.63,681.28 C591.71,684.03 601.09,690.02 601.09,690.02 C601.09,690.02 595.09,698.34 594.7,703.88 C594.31,709.42 642.44,717.29 642.44,717.29 L623.69,525.02 L608.76,476.85 L580.41,479.62 Z" id="Path" fill="#575988"></path>
            <path d="M580.41,479.62 L580.84,542.07 C580.84,542.07 582.33,588.97 582.33,595.37 C582.33,601.77 582.54,616.04 582.54,616.04 C582.54,616.04 585.74,633.52 587.66,639.28 C589.58,645.04 591.07,671.28 591.07,671.28 C591.07,671.28 595.55,678.53 593.63,681.28 C591.71,684.03 601.09,690.02 601.09,690.02 C601.09,690.02 595.09,698.34 594.7,703.88 C594.31,709.42 642.44,717.29 642.44,717.29 L623.69,525.02 L608.76,476.85 L580.41,479.62 Z" id="Path" fill="#000000" opacity="0.1"></path>
            <path d="M669.04,734.45 C655.11,767.66 621.98,742.03 621.98,742.03 C621.98,742.03 621.98,741.39 621.9,740.29 C623.82,738.52 624.96,737.29 624.96,737.29 L667.39,728.76 C667.39,728.76 668.08,731.18 669.04,734.45 Z" id="Path" fill="#000000" opacity="0.1"></path>
            <path d="M669.52,731.58 C655.87,766.58 621.98,740.32 621.98,740.32 C621.98,740.32 620.91,722.2 623.05,713.89 C625.19,705.58 620.7,680.63 620.7,680.63 C620.7,680.63 618.14,658.46 615.8,653.35 C613.46,648.24 613.67,638 613.67,637.15 C613.67,636.3 614.52,629.47 612.6,624.78 C610.68,620.09 609.6,608.58 609.6,608.58 C609.6,608.58 609.6,592.38 607.68,582.79 L601.07,549.79 L589.13,482.21 L592.86,481.57 L659.69,469.85 C659.69,469.85 672.27,533.85 668,540.41 C667.08,541.85 666.27,545 665.6,549.06 C663.16,563.58 662.25,589.65 662.25,589.65 C662.25,589.65 670.56,602.65 667.37,611.82 C664.18,620.99 670.37,636.12 670.37,636.12 C670.37,636.12 672.29,695.81 668.66,701.78 C665.03,707.75 669.52,731.58 669.52,731.58 Z" id="Path" fill="#575988"></path>
            <path d="M663.12,295.23 C663.12,295.23 602.58,337.86 616.22,316.54 C623.57,305.06 622.22,290.44 619.34,279.4 C617.884045,273.784812 615.874187,268.328049 613.34,263.11 C613.34,263.11 664.78,241.23 657.96,260.84 C656.361868,265.408591 655.682185,270.247933 655.96,275.08 C656.368612,282.343575 658.853692,289.337199 663.12,295.23 L663.12,295.23 Z" id="Path" fill="#D28690"></path>
            <path d="M554.12,392.86 C554.12,392.86 528.54,385.47 524.28,392.72 C520.02,399.97 525.56,415.88 533.28,418.44 C541,421 558.72,409.77 558.72,409.77 L554.12,392.86 Z" id="Path" fill="#D28690"></path>
            <path d="M583.4,380.29 L572.74,390.1 C572.74,390.1 554.19,391.8 548.86,390.52 C548.86,390.52 553.77,423.35 546.73,427.4 L589.79,418.66 L583.4,380.29 Z" id="Path" fill="#585B8A"></path>
            <path d="M583.4,380.29 L572.74,390.1 C572.74,390.1 554.19,391.8 548.86,390.52 C548.86,390.52 553.77,423.35 546.73,427.4 L589.79,418.66 L583.4,380.29 Z" id="Path" fill="#000000" opacity="0.1"></path>
            <path d="M446.54,239.38 C446.54,257.053112 432.213112,271.38 414.54,271.38 C398.12,263.49 382.54,257.07 382.54,239.38 C382.076251,227.654839 388.067193,216.616314 398.151227,210.615755 C408.235262,204.615196 420.794738,204.615196 430.878773,210.615755 C440.962807,216.616314 446.953749,227.654839 446.49,239.38 L446.54,239.38 Z" id="Path" fill="#000000" opacity="0.1"></path>
            <path d="M446.540007,238.52 C446.549866,254.056574 435.378523,267.346568 420.071617,270.008124 C404.764711,272.66968 389.762974,263.930647 384.527839,249.302639 C379.292704,234.674632 385.342952,218.401423 398.862757,210.746351 C412.382562,203.091279 429.449653,206.27518 439.3,218.29 C443.972786,223.997354 446.530377,231.143773 446.540007,238.52 L446.540007,238.52 Z" id="Path" fill="#FFD6D6"></path>
            <path d="M465.19,434.19 C462.024038,436.156114 458.710836,437.874566 455.28,439.33 C455.28,439.33 439.08,436.98 436.74,439.75 C434.4,442.52 413.74,443.59 413.74,443.59 C413.74,443.59 382.19,442.1 377.5,438.05 C376.049829,436.87559 374.436195,435.918863 372.71,435.21 L373.23,427.11 C373.23,427.11 454.52,421.99 461.06,428.24 C462.762342,429.976249 464.158708,431.987963 465.19,434.19 L465.19,434.19 Z" id="Path" fill="#000000" opacity="0.1"></path>
            <path d="M469.14,428.46 C468.5,432.08 455.28,437.62 455.28,437.62 C455.28,437.62 439.08,435.28 436.74,438.05 C434.4,440.82 413.74,441.89 413.74,441.89 C413.74,441.89 382.19,440.39 377.5,436.34 C372.81,432.29 362.36,430.34 362.36,430.34 C362.36,430.34 357.03,392.4 359.17,384.09 C361.31,375.78 355.97,352.96 354.69,344.86 C353.41,336.76 358.31,314.38 364.28,310.76 C370.25,307.14 378.78,294.98 383.89,291.36 C388.2,288.31 392.96,284.36 394.35,283.17 L394.76,282.83 C394.76,282.83 395.62,276.22 399.03,272.83 C402.44,269.44 433.77,294.36 433.77,294.36 C433.77,294.36 433.99,296.28 436.12,292.66 C436.6,291.85 440.73,297.81 441.45,300.33 C441.45,300.33 458.5,330.18 459.57,336.33 C460.64,342.48 465.11,362.55 465.96,367.45 C466.18,368.71 466.54,373.13 466.96,379.05 C467.04,380.21 467.11,381.44 467.2,382.72 C467.83,392.54 468.51,405.08 468.92,414.56 C468.92,415.64 469.01,416.68 469.04,417.68 C469.255897,421.26932 469.289273,424.867292 469.14,428.46 L469.14,428.46 Z" id="Path" fill="#DCE6F2"></path>
            <path d="M360.89,351.5 C360.89,351.5 372.61,365.78 376.45,365.78 C380.29,365.78 360.89,351.5 360.89,351.5 Z" id="Path" fill="#000000" opacity="0.1"></path>
            <path d="M385.58,382.2 C385.58,382.2 366.39,403.09 368.95,406.93 C371.51,410.77 385.58,382.2 385.58,382.2 Z" id="Path" fill="#000000" opacity="0.1"></path>
            <path d="M371.51,423.77 C371.51,423.77 393.51,399.68 394.51,391.37 L371.51,423.77 Z" id="Path" fill="#000000" opacity="0.1"></path>
            <path d="M399.22,425.47 C399.22,425.47 424.59,412.04 426.72,401.38 C428.85,390.72 399.22,425.47 399.22,425.47 Z" id="Path" fill="#000000" opacity="0.1"></path>
            <path d="M431.41,295.87 L427.89,304.39 L433.75,307.16 L439.51,323.26 C439.51,323.26 455.39,355.02 454.75,371.54 C454.11,388.06 457.63,412.89 457.63,412.89 L466.79,411.19 L462.47,362.6 C461.797318,355.076828 459.913017,347.711848 456.89,340.79 C449.57,324.03 435.95,293.09 435.09,293.09 C433.92,293.09 434.74,293.52 434.74,293.52 L431.41,295.87 Z" id="Path" fill="#000000" opacity="0.1"></path>
            <path d="M432.26,295.01 L428.74,303.54 L434.61,306.31 L440.36,322.41 C440.36,322.41 456.24,354.17 455.6,370.69 C454.96,387.21 458.48,412.04 458.48,412.04 L467.65,410.34 L463.32,361.75 C462.655195,354.226587 460.774086,346.860882 457.75,339.94 C450.43,323.17 436.81,292.24 435.96,292.24 C434.78,292.24 435.6,292.67 435.6,292.67 L432.26,295.01 Z" id="Path" fill="#575989"></path>
            <path d="M536.07,420.29 C531.61,419.95 520.91,414.54 516.66,412.29 L514.86,411.29 L515.08,394.78 C516.130904,394.162023 517.219731,393.610929 518.34,393.13 C524.02,390.65 535.67,387.28 541.51,398.13 C549.39,412.68 541.72,420.67 536.07,420.29 Z" id="Path" fill="#FFD6D6"></path>
            <path d="M439.3,218.29 C438.841843,218.57699 438.337877,218.783311 437.81,218.9 C434.1,219.71 429.88,216.52 426.7,218.57 C424.76,219.83 424.31,222.44 424.05,224.74 C423.596667,228.74 423.143333,232.713333 422.69,236.66 C422.594916,238.065061 422.298558,239.449187 421.81,240.77 C420.24,244.36 415.93,246.05 412,245.99 C410.460527,246.099591 408.94012,245.596383 407.77,244.59 C407.08,243.89 406.71,242.91 405.95,242.27 C400.95,238.08 399.43,248.35 400.75,251.27 C402.87,256.04 410.4,260.64 407.24,266.7 C406.708543,267.684889 405.902594,268.494312 404.92,269.03 C391.856265,264.93881 382.841818,252.990905 382.493822,239.305953 C382.145827,225.621001 390.541366,213.230376 403.380281,208.480505 C416.219196,203.730634 430.657518,207.673667 439.3,218.29 Z" id="Path" fill="#000000" opacity="0.1"></path>
            <path d="M405.1,242.23 C405.85,242.86 406.23,243.84 406.92,244.54 C408.090664,245.545421 409.610664,246.048494 411.15,245.94 C415.08,246 419.39,244.32 420.95,240.71 C421.447472,239.394772 421.747393,238.013113 421.84,236.61 L423.2,224.69 C423.46,222.39 423.9,219.78 425.85,218.52 C429.03,216.52 433.25,219.66 436.96,218.85 C439.735444,218.144559 441.485977,215.404975 440.96,212.59 C440.53,210.68 439.07,209.17 438.32,207.35 C437.865352,205.951549 437.501265,204.525263 437.23,203.08 C435.16,195.32 426.05,190.96 418.13,192.26 C413.73,192.99 409.64,195.09 405.23,195.73 C402.07,196.19 398.84,195.89 395.65,196.23 C392.686222,196.535826 389.80449,197.386784 387.15,198.74 C386.453131,199.048426 385.837068,199.513896 385.35,200.1 C384.897042,200.891605 384.592064,201.759097 384.45,202.66 C383.38,206.66 379.94,209.61 377.45,212.98 C374.601975,216.857449 372.953934,221.485174 372.71,226.29 C372.61192,227.51717 372.72695,228.752058 373.05,229.94 C373.26,230.64 373.59,231.32 373.75,232.04 C374.24,234.23 373.12,236.42 372.57,238.6 C371.886611,241.381872 372.132458,244.310964 373.27,246.94 C377.11,255.77 389.76,258.72 392.39,267.99 C394.725446,269.109765 397.247886,269.78784 399.83,269.99 C402.41,270.04 405.19,268.93 406.39,266.64 C409.54,260.64 402.02,255.98 399.9,251.22 C398.57,248.29 400.06,238.03 405.1,242.23 Z" id="Path" fill="#353045"></path>
            <path d="M658.01,260.84 C656.411868,265.408591 655.732185,270.247933 656.01,275.08 C654.47,276.39 652.79,272.47 651.01,273.48 C646.13,276.3 640.49,283.010007 634.45,283.010007 C629.212097,283.013404 624.047845,281.776313 619.38,279.4 C617.924045,273.784812 615.914187,268.328049 613.38,263.11 C613.38,263.11 664.83,241.23 658.01,260.84 Z" id="Path" fill="#000000" opacity="0.1"></path>
            <path d="M667.670002,248.05 C667.670002,266.418991 652.778991,281.31 634.41,281.31 C616.041009,281.31 601.15,266.418991 601.15,248.05 C601.15,229.681009 616.041009,214.789998 634.41,214.789998 C643.231914,214.787346 651.693267,218.290663 657.931302,224.528698 C664.169337,230.766733 667.672654,239.228086 667.670002,248.05 Z" id="Path" fill="#D28690"></path>
            <path d="M666.25,302.62 C666.25,302.62 659.99,309.44 659.14,310 C658.29,310.56 640.14,387 639.82,387.89 C639.5,388.78 618.21,457.8 618.21,457.8 L584.1,474.57 L586.95,390.15 L611.95,320.53 C611.95,320.53 620.2,311.15 622.75,307.74 C625.3,304.33 657.14,283.86 657.14,283.86 L662.58,295.07 L666.25,302.62 Z" id="Path" fill="#F0F3F7"></path>
            <path d="M661.74,296.78 L622.52,324.86 L621.89,309.44 C624.45,306.03 656.28,285.57 656.28,285.57 L661.74,296.78 Z" id="Path" fill="#000000" opacity="0.1"></path>
            <path d="M662.59,295.07 L623.37,323.15 L622.76,307.74 C625.32,304.32 657.15,283.86 657.15,283.86 L662.59,295.07 Z" id="Path" fill="#F0F3F7"></path>
            <path d="M621.45,300.88 L622.76,307.74 L613.99,316.65 L620.99,300.98 C620.99,300.98 605.99,311.43 601.49,314.2 C596.99,316.97 592.49,326.35 592.32,328.91 C592.15,331.47 585.07,370.05 585.07,370.05 C585.07,370.05 579.74,384.33 581.24,388.38 C582.74,392.43 573.14,520.12 573.14,520.12 C575.738167,515.099313 580.437087,511.496319 585.96,510.29 L582.54,434.83 C582.54,434.83 586.7,384.63 586.91,383.99 C587.12,383.35 596.61,354.25 596.61,354.25 L621.45,300.88 Z" id="Path" fill="#585B8A"></path>
            <path d="M623.62,308.59 L622.94,322.59 C622.94,322.59 613.45,352.54 610.26,357.44 C607.07,362.34 597.36,391.55 597.36,391.55 L591.89,442.29 L582.51,446.56 L577.89,438.05 L585.57,389.05 C585.57,389.05 600.06,347.7 602.2,343.43 L612.89,320.91 L623.62,308.59 Z" id="Path" fill="#000000" opacity="0.1"></path>
            <path d="M622.76,307.74 L622.09,321.74 C622.09,321.74 612.6,351.69 609.4,356.59 C606.2,361.49 596.51,390.7 596.51,390.7 L591.07,441.43 L581.69,445.69 L577,437.17 L584.68,388.17 C584.68,388.17 599.17,346.81 601.3,342.55 L612.07,320.06 L622.76,307.74 Z" id="Path" fill="#663D5C"></path>
            <path d="M512.2,414.6 L530.53,427.29 C530.53,427.29 543.46,420.04 535.93,415.35 C528.4,410.66 521.72,409.95 519.3,409.95 C516.88,409.95 512.2,414.6 512.2,414.6 Z" id="Path" fill="#D28690"></path>
            <path d="M525.89,391.14 C525.058076,391.657711 524.554527,392.570157 524.559956,393.55 C524.559956,397.44 525,407.74 528.26,403.09 C532.26,397.4 531.53,392.29 537.64,395.98 C541.437507,398.345014 544.760928,401.397135 547.44,404.98 L545.74,392.76 C545.74,392.76 533.18,386.56 525.89,391.14 Z" id="Path" fill="#D28690"></path>
            <path d="M668.02,540.37 C667.1,541.81 666.29,544.96 665.62,549.02 C628.24,560.23 600.89,536.53 600.89,536.53 C597.58099,525.316669 594.87709,513.933582 592.79,502.43 C592.12,498.49 592.27,490.85 592.89,481.53 L659.72,469.81 C659.72,469.81 672.29,533.76 668.02,540.37 Z" id="Path" fill="#000000" opacity="0.1"></path>
            <path d="M706.39,349.58 C704.69,355.13 705.33,366.42 705.33,366.42 L689.98,438.9 C689.98,438.9 682.52,494.75 681.24,502.21 C679.96,509.67 677.83,542.5 677.83,542.5 C634.34,563.82 600.83,534.83 600.83,534.83 C597.521628,523.61312 594.817739,512.22674 592.73,500.72 C590.59,488.06 596.89,437.34 599.87,414.81 C600.76,408.14 601.36,403.94 601.36,403.94 L612.55,362.37 C612.55,362.37 626.3,327.3 631.42,317.07 C636.54,306.84 657.1,283.86 657.1,283.86 C659.65,282.24 663.73,287.96 666.76,293.17 C669.05,297.11 670.76,300.77 670.76,300.77 C670.76,300.77 696.34,311.85 700.17,317.77 C704,323.69 703.37,335.89 703.8,336.53 C704.23,337.17 708.1,344.04 706.39,349.58 Z" id="Path" fill="#585B8A"></path>
            <path d="M646.07,323.79 C646.07,323.79 647.99,335.09 643.07,338.5 C638.32,341.8 602.96,411.33 600.76,415.67 C601.65,408.99 602.25,404.79 602.25,404.79 L613.44,363.23 C613.44,363.23 627.2,328.16 632.31,317.92 C637.42,307.68 658,284.71 658,284.71 C660.55,283.09 664.62,288.81 667.65,294.02 C663.08,303.51 653.55,321.45 646.07,323.79 Z" id="Path" fill="#000000" opacity="0.1"></path>
            <path d="M645.22,322.94 C645.22,322.94 647.13,334.24 642.22,337.65 C637.31,341.06 602.12,410.47 599.89,414.81 C600.78,408.14 601.38,403.94 601.38,403.94 L612.57,362.37 C612.57,362.37 626.32,327.3 631.44,317.07 C636.56,306.84 657.12,283.86 657.12,283.86 C659.67,282.24 663.75,287.96 666.78,293.17 C662.23,302.65 652.69,320.6 645.22,322.94 Z" id="Path" fill="#585B8A"></path>
            <polygon id="Path" fill="#00BFA6" points="695.95 425.05 683.92 487.64 683.92 487.65 682.77 493.64 682.77 493.65 680.18 507.12 669.13 504.78 663.98 503.69 592.71 488.59 587.47 487.48 575.51 484.95 577.85 469.41 578.82 462.95 587.45 405.65"></polygon>
            <path d="M629.44,476.21 C629.44,476.21 601.09,486.44 607.27,498.59 C613.45,510.74 653.1,489.21 653.1,489.21 L629.44,476.21 Z" id="Path" fill="#D28690"></path>
            <path d="M649.69,563.39 C649.69,564.24 650.76,575.12 655.02,578.95 C659.28,582.78 649.69,563.39 649.69,563.39 Z" id="Path" fill="#000000" opacity="0.1"></path>
            <path d="M621.13,601.97 C621.13,601.97 626.24,616.04 646.49,621.8 C666.74,627.56 621.13,601.97 621.13,601.97 Z" id="Path" fill="#000000" opacity="0.1"></path>
            <path d="M667.670001,248.05 C667.673121,259.950755 661.315639,270.945729 651,276.88 C649.089826,275.811123 647.394485,274.397208 646,272.71 C644.55,270.95 643.42,268.55 644.29,266.45 C644.99,264.76 646.84,263.69 647.29,261.94 C647.502005,260.869821 647.447052,259.76389 647.13,258.72 C646.76,257.07 646.41,255.42 646.05,253.78 C645.74,252.38 645.19,250.73 643.8,250.39 C642.41,250.05 641.25,251.21 640.16,252.07 C637.49,254.18 632.37,255.61 629.16,253.88 C625.95,252.15 626.85,246.36 626.33,243.23 C626.316862,242.67956 626.060526,242.163226 625.63,241.82 C625.162821,241.664986 624.664036,241.630587 624.18,241.72 C622.45,241.72 621.06,240.17 620.56,238.51 C620.205741,236.815297 620.011553,235.091047 619.98,233.36 C619.79,231.63 619.16,229.8 617.68,228.91 C616.497454,228.3596 615.186288,228.145108 613.89,228.29 L607.62,228.36 C616.151129,216.826241 631.116214,212.06222 644.744986,216.541543 C658.373758,221.020866 667.594678,233.734021 667.62,248.08 L667.670001,248.05 Z" id="Path" fill="#000000" opacity="0.1"></path>
            <path d="M641.05,252.07 C642.14,251.21 643.34,250.07 644.69,250.4 C646.04,250.73 646.62,252.4 646.93,253.78 L648.01,258.71 C648.3296,259.756626 648.387968,260.865607 648.18,261.94 C647.67,263.7 645.83,264.76 645.12,266.45 C644.25,268.55 645.39,270.95 646.83,272.7 C649.45656,275.865502 653.088063,278.035934 657.12,278.85 C658.172646,279.102902 659.26733,279.126773 660.33,278.92 C662.71,278.37 664.33,276.18 665.61,274.13 C672.22,263.83 677.91,252.54 679.07,240.36 C679.388253,237.875687 679.273215,235.354998 678.73,232.91 C678.188072,231.009606 677.42273,229.180169 676.45,227.46 C674.747906,223.94572 672.585582,220.67365 670.02,217.73 C665.47,212.83 659.19,209.82 652.74,208.04 C645.485148,206.026938 637.91,205.432742 630.43,206.29 C628.43,206.52 626.51,206.85 624.54,206.98 C622.066588,207.095003 619.5884,207.054925 617.12,206.86 L602.4,205.98 C601.56,207.69 602.4,209.72 603.4,211.32 C604.4,212.92 605.64,214.58 605.56,216.48 C605.48,218.38 604.13,219.88 603.09,221.48 C602.05,223.08 601.26,225.15 602.3,226.71 C603.34,228.27 605.46,228.37 607.3,228.35 L614.72,228.27 C616.012486,228.137133 617.316631,228.361985 618.49,228.92 C619.97,229.81 620.6,231.65 620.79,233.37 C620.831512,235.100382 621.025598,236.823729 621.37,238.52 C621.88,240.18 623.26,241.75 624.99,241.73 C625.474298,241.633371 625.975822,241.671417 626.44,241.84 C626.870088,242.17921 627.126685,242.692403 627.14,243.24 C627.66,246.37 626.7,252.15 629.97,253.89 C633.24,255.63 638.38,254.18 641.05,252.07 Z" id="Path" fill="#663D5C"></path>
            <path d="M683.32,317.76 C675.747319,316.955666 668.626896,321.501941 666.17,328.71 C662.17,340.1 655.5,360.65 657.17,368.77 C659.52,380.28 662.29,399.47 662.29,399.47 C662.29,399.47 674.44,406.47 668.29,413.53 C662.14,420.59 660.4,430.59 660.4,430.59 C660.4,430.59 652.51,434 650.81,441.25 C649.11,448.5 637.59,458.51 637.59,458.51 L620.33,475.78 C620.33,475.78 648.89,504.78 654.65,506.26 L672.34,485.58 L693.23,457.87 L711.35,438.87 C711.35,438.87 715.61,428.87 713.48,409.87 C711.35,390.87 703.03,372.78 703.03,372.78 L703.67,366.38 C703.67,366.38 705.63,320.53 683.32,317.76 Z" id="Path" fill="#000000" opacity="0.1"></path>
            <path d="M685.02,317.76 C677.454393,316.965528 670.345244,321.509905 667.89,328.71 C663.89,340.1 657.22,360.65 658.89,368.77 C661.23,380.28 664,399.47 664,399.47 C664,399.47 676.15,406.47 670,413.53 C663.85,420.59 662.12,430.59 662.12,430.59 C662.12,430.59 654.23,434 652.52,441.25 C650.81,448.5 639.31,458.51 639.31,458.51 L622.04,475.78 C622.04,475.78 650.6,504.78 656.36,506.26 L674.05,485.58 L694.89,457.87 L713.01,438.87 C713.01,438.87 717.28,428.87 715.14,409.87 C713,390.87 704.7,372.78 704.7,372.78 L705.34,366.38 C705.34,366.38 707.33,320.53 685.02,317.76 Z" id="Path" fill="#585B8A"></path>
            <path d="M667.17,382.63 C667.17,382.63 685.29,404.79 692.97,399.89 C700.65,394.99 667.17,382.63 667.17,382.63 Z" id="Path" fill="#000000" opacity="0.1"></path>
            <path d="M673.99,365.57 C675.91,366.21 691.69,388.17 699.79,385.57 C707.89,382.97 673.99,365.57 673.99,365.57 Z" id="Path" fill="#000000" opacity="0.1"></path>
            <path d="M678.47,403.29 C678.47,403.29 679.54,415.87 692.54,414.16 C705.54,412.45 678.47,403.29 678.47,403.29 Z" id="Path" fill="#000000" opacity="0.1"></path>
            <polygon id="Path" fill="#000000" opacity="0.1" points="621.02 301.83 613.99 317.5 622.77 308.59"></polygon>
            <polygon id="Path" fill="#F0F3F7" points="621.02 300.98 613.99 316.65 622.77 307.74"></polygon>
            <polygon id="Path" fill="#000000" opacity="0.3" points="592.71 488.59 587.47 487.48 577.85 469.41 578.82 462.95"></polygon>
            <polygon id="Path" fill="#000000" opacity="0.3" points="683.92 487.65 682.77 493.64 682.77 493.65 669.13 504.78 663.98 503.69"></polygon>
            <path d="M469.01,417.72 C466.37,418.16 463.81,418.56 461.47,418.86 C448.47,420.57 417.55,405.22 417.55,405.22 C417.55,405.22 379.82,373.67 368.95,343.83 C358.08,313.99 381.95,309.51 381.95,309.51 C390.95,304.39 410.52,318.67 413.29,321.02 C416.06,323.37 418.41,329.33 418.19,333.17 C417.97,337.01 424.59,341.91 424.59,341.91 C424.59,341.91 435.89,361.52 438.66,363.65 C441.43,365.78 442.07,367.7 442.92,371.33 C443.77,374.96 451.23,377.94 454.43,377.72 C457.63,377.5 461.43,378.79 461.43,380.49 C461.43,381.86 464.56,382.54 467.13,382.76 C467.89,393.69 468.64,408.01 469.01,417.72 Z" id="Path" fill="#000000" opacity="0.1"></path>
            <path d="M468.89,414.6 C466.89,414.92 464.97,415.21 463.17,415.45 C450.17,417.16 419.26,401.81 419.26,401.81 C419.26,401.81 381.53,370.26 370.66,340.42 C359.79,310.58 383.66,306.1 383.66,306.1 C392.66,300.98 412.22,315.26 414.99,317.61 C417.76,319.96 420.11,325.92 419.9,329.76 C419.69,333.6 426.29,338.5 426.29,338.5 C426.29,338.5 437.59,358.11 440.36,360.24 C443.13,362.37 443.77,364.29 444.63,367.92 C445.49,371.55 452.94,374.52 456.14,374.31 C459.34,374.1 463.14,375.38 463.14,377.08 C463.14,378.08 464.92,378.75 466.9,379.08 C466.98,380.24 467.05,381.47 467.14,382.75 C467.8,392.58 468.48,405.12 468.89,414.6 Z" id="Path" fill="#000000" opacity="0.1"></path>
            <path d="M518.34,393.13 L517.53,412.29 L516.66,412.29 L514.86,411.29 L515.08,394.78 C516.130904,394.162023 517.219731,393.610929 518.34,393.13 L518.34,393.13 Z" id="Path" fill="#000000" opacity="0.1"></path>
            <path d="M381.95,307.8 C381.95,307.8 358.08,312.28 368.95,342.12 C379.82,371.96 417.55,403.52 417.55,403.52 C417.55,403.52 448.46,418.86 461.47,417.16 C474.48,415.46 494.29,410.98 496.85,411.62 C499.41,412.26 516.68,412.26 516.68,412.26 L517.53,392.26 L497.53,391.19 L487.3,389.06 C487.3,389.06 483.67,386.06 481.54,386.5 C479.41,386.94 474.94,383.94 474.94,383.94 C474.94,383.94 471.52,381.17 468.94,381.17 C466.36,381.17 461.48,380.53 461.48,378.83 C461.48,377.13 457.64,375.83 454.48,376.06 C451.32,376.29 443.77,373.29 442.89,369.62 C442.01,365.95 441.4,364.08 438.63,361.95 C435.86,359.82 424.56,340.2 424.56,340.2 C424.56,340.2 417.95,335.3 418.16,331.47 C418.37,327.64 416.03,321.66 413.26,319.31 C410.49,316.96 390.89,302.69 381.95,307.8 Z" id="Path" fill="#DCE6F2"></path>
            <path d="M443.35,376.44 C443.35,376.44 434.18,385.61 436.52,387.31 L443.35,376.44 Z" id="Path" fill="#000000" opacity="0.1"></path>
            <path d="M453.15,383.69 C453.15,383.69 441.21,392.86 444.41,393.5 C447.61,394.14 453.15,383.69 453.15,383.69 Z" id="Path" fill="#000000" opacity="0.1"></path>
            <path d="M432.89,397.29 C434.6,398.15 459.96,413.29 469.56,413.07 L432.89,397.29 Z" id="Path" fill="#000000" opacity="0.1"></path>
            <path d="M434.61,296.08 C434.61,296.08 430.13,310.79 428.42,310.79 C427.08,310.79 404.58,292.57 395.19,284.91 L395.6,284.57 C395.6,284.57 396.45,277.96 399.86,274.57 C403.27,271.18 434.61,296.08 434.61,296.08 Z" id="Path" fill="#000000" opacity="0.1"></path>
            <path d="M433.75,294.37 C433.75,294.37 429.28,309.08 427.57,309.08 C426.22,309.08 403.72,290.86 394.33,283.2 L394.74,282.86 C394.74,282.86 395.6,276.25 399.01,272.86 C402.42,269.47 433.75,294.37 433.75,294.37 Z" id="Path" fill="#DCE6F2"></path>
            <g id="Group" opacity="0.15" transform="translate(373.000000, 197.000000)" fill="#000000">
                <path d="M0.38,49.83 L0.38,49.83 C3.38,56.68 11.64,60 16.43,65.46 C13.58,58.75 5.25,55.46 0.38,49.83 Z" id="Path"></path>
                <path d="M30.95,65.61 C29.76,67.9 26.95,69.01 24.39,68.96 C22.1140599,68.796697 19.8856575,68.2277432 17.81,67.28 C18.5629841,68.3900578 19.1366624,69.6116552 19.51,70.9 C21.8446387,72.021943 24.3674924,72.7001295 26.95,72.9 C29.54,72.96 32.32,71.85 33.51,69.55 C35.42,65.9 33.43,62.78 31.1,59.83 C31.9809345,61.668997 31.9251341,63.8191709 30.95,65.61 L30.95,65.61 Z" id="Path"></path>
                <path d="M68.06,15.49 C67.63,13.57 66.17,12.06 65.42,10.25 C64.9606842,8.84951142 64.5965215,7.41958807 64.33,5.97 C63.761804,3.92025777 62.7088474,2.03728325 61.26,0.48 C61.4612993,0.972214194 61.6316315,1.47653104 61.77,1.99 C62.050247,3.4459787 62.4243611,4.88230943 62.89,6.29 C63.64,8.1 65.1,9.61 65.53,11.53 C66.055977,14.3449746 64.3054437,17.0845593 61.53,17.79 C57.83,18.6 53.61,15.4 50.43,17.46 C48.48,18.71 48.03,21.32 47.77,23.62 C47.3233333,27.62 46.87,31.5966667 46.41,35.55 C46.3197318,36.9524842 46.0232111,38.3340011 45.53,39.65 C43.96,43.25 39.65,44.94 35.72,44.88 C34.1844523,44.9825658 32.6697485,44.4800574 31.5,43.48 C30.9314538,42.6748508 30.3205955,41.9004293 29.67,41.16 C24.67,36.96 23.15,47.23 24.47,50.16 C25.1309819,51.4780535 25.9503741,52.7105 26.91,53.83 C25.81,50.53 27.35,41.03 32.23,45.1 C32.8803655,45.8380324 33.4880228,46.6126285 34.05,47.42 C35.224406,48.418784 36.7416207,48.9209354 38.28,48.82 C42.21,48.88 46.52,47.19 48.09,43.59 C48.584171,42.270823 48.8807068,40.8858662 48.97,39.48 C49.4233333,35.48 49.8766667,31.5066667 50.33,27.56 C50.59,25.26 51.04,22.65 52.98,21.4 C56.17,19.34 60.39,22.54 64.09,21.72 C66.8428035,21.0064094 68.5759804,18.2865877 68.06,15.49 L68.06,15.49 Z" id="Path"></path>
            </g>
            <path d="M662.46,276.37 C661.396196,276.568313 660.302605,276.541058 659.25,276.29 C655.223048,275.476456 651.595562,273.309845 648.97,270.15 C647.52,268.39 646.38,265.99 647.26,263.89 C647.96,262.2 649.8,261.14 650.26,259.38 C650.467968,258.305607 650.4096,257.196626 650.09,256.15 L649.01,251.22 C648.7,249.82 648.16,248.17 646.77,247.84 C645.38,247.51 644.22,248.65 643.13,249.51 C640.46,251.62 635.33,253.06 632.13,251.32 C628.93,249.58 629.82,243.8 629.3,240.67 C629.282593,240.12343 629.026811,239.611868 628.6,239.27 C628.131216,239.106818 627.627942,239.0689 627.14,239.16 C625.41,239.16 624.03,237.61 623.52,235.95 C623.173416,234.254297 622.982621,232.530453 622.95,230.8 C622.75,229.08 622.13,227.24 620.64,226.35 C619.465092,225.796854 618.162307,225.572236 616.87,225.7 L609.45,225.78 C607.62,225.78 605.45,225.66 604.45,224.14 C603.45,222.62 604.19,220.46 605.24,218.91 C606.29,217.36 607.62,215.82 607.71,213.91 C607.8,212 606.56,210.35 605.55,208.75 C604.970825,207.875032 604.544745,206.907898 604.29,205.89 L602.16,205.76 C601.33,207.46 602.16,209.49 603.16,211.1 C604.16,212.71 605.41,214.36 605.32,216.25 C605.23,218.14 603.9,219.66 602.85,221.25 C601.8,222.84 601.03,224.92 602.07,226.48 C603.11,228.04 605.22,228.15 607.07,228.13 L614.49,228.04 C615.783236,227.914842 617.086197,228.142947 618.26,228.7 C619.75,229.59 620.38,231.43 620.57,233.15 C620.601553,234.881047 620.795741,236.605297 621.15,238.3 C621.65,239.95 623.04,241.53 624.77,241.5 C625.254898,241.414239 625.753589,241.452071 626.22,241.61 C626.648348,241.954981 626.904148,242.470234 626.92,243.02 C627.44,246.14 626.48,251.93 629.75,253.67 C633.02,255.41 638.12,253.97 640.75,251.86 C641.84,251 643.05,249.86 644.4,250.18 C645.75,250.5 646.33,252.18 646.63,253.56 L647.72,258.5 C648.036678,259.547381 648.091617,260.65645 647.88,261.73 C647.38,263.48 645.53,264.55 644.83,266.23 C643.96,268.33 645.09,270.74 646.54,272.49 C649.183397,275.663486 652.837745,277.83138 656.89,278.63 C657.942605,278.881058 659.036196,278.908313 660.1,278.71 C661.818922,278.186046 663.294198,277.065404 664.26,275.55 C663.713833,275.92872 663.104188,276.206447 662.46,276.37 Z" id="Path" fill="#000000" opacity="0.1"></path>
            <ellipse id="Oval" fill="#00BFA6" opacity="0.1" cx="203.69" cy="714.3" rx="24.17" ry="3.71"></ellipse>
            <ellipse id="Oval" fill="#00BFA6" opacity="0.1" cx="1047.61" cy="617.84" rx="24.17" ry="3.71"></ellipse>
            <ellipse id="Oval" fill="#00BFA6" opacity="0.1" cx="801.2" cy="767.34" rx="70" ry="10.74"></ellipse>
            <ellipse id="Oval" fill="#00BFA6" opacity="0.1" cx="1000.19" cy="721.84" rx="54.6" ry="8.38"></ellipse>
            <ellipse id="Oval" fill="#00BFA6" opacity="0.1" cx="991.2" cy="805.34" rx="92.59" ry="14.21"></ellipse>
            <ellipse id="Oval" fill="#00BFA6" opacity="0.1" cx="100.24" cy="817.84" rx="70" ry="10.74"></ellipse>
            <path d="M204.79,596.14 C204.79,596.14 207.53,599.72 203.53,605.14 C199.53,610.56 196.23,615.14 197.53,618.48 C197.53,618.48 203.53,608.48 208.53,608.3 C213.53,608.12 210.2,602.18 204.79,596.14 Z" id="Path" fill="#00BFA6"></path>
            <path d="M204.79,596.14 C205.034307,596.481619 205.223289,596.859583 205.35,597.26 C210.15,602.9 212.7,608.15 208.09,608.26 C203.8,608.38 198.65,616.06 197.42,618 C197.457535,618.149417 197.504291,618.296365 197.56,618.44 C197.56,618.44 203.56,608.44 208.56,608.26 C213.56,608.08 210.2,602.18 204.79,596.14 Z" id="Path" fill="#000000" opacity="0.1"></path>
            <path d="M209.89,600.7 C209.89,601.96 209.74,602.98 209.57,602.98 C209.4,602.98 209.25,601.98 209.25,600.7 C209.25,599.42 209.43,600.04 209.6,600.04 C209.77,600.04 209.89,599.44 209.89,600.7 Z" id="Path" fill="#FFD037"></path>
            <path d="M211.63,602.21 C210.53,602.81 209.56,603.21 209.48,603.02 C209.4,602.83 210.22,602.26 211.33,601.65 C212.44,601.04 212,601.49 212.08,601.65 C212.16,601.81 212.74,601.6 211.63,602.21 Z" id="Path" fill="#FFD037"></path>
            <path d="M190.33,596.14 C190.33,596.14 187.59,599.72 191.59,605.14 C195.59,610.56 198.9,615.14 197.59,618.48 C197.59,618.48 191.59,608.48 186.64,608.3 C181.69,608.12 184.89,602.18 190.33,596.14 Z" id="Path" fill="#00BFA6"></path>
            <path d="M190.33,596.14 C190.091011,596.484796 189.902444,596.861931 189.77,597.26 C184.97,602.9 182.42,608.15 187.03,608.26 C191.32,608.38 196.47,616.06 197.71,618 C197.669002,618.149583 197.618909,618.296523 197.56,618.44 C197.56,618.44 191.56,608.44 186.61,608.26 C181.66,608.08 184.89,602.18 190.33,596.14 Z" id="Path" fill="#000000" opacity="0.1"></path>
            <path d="M185.24,600.7 C185.24,601.96 185.38,602.98 185.55,602.98 C185.72,602.98 185.87,601.98 185.87,600.7 C185.87,599.42 185.69,600.04 185.52,600.04 C185.35,600.04 185.24,599.44 185.24,600.7 Z" id="Path" fill="#FFD037"></path>
            <path d="M183.49,602.21 C184.6,602.81 185.56,603.21 185.65,603.02 C185.74,602.83 184.9,602.26 183.79,601.65 C182.68,601.04 183.12,601.49 183.04,601.65 C182.96,601.81 182.38,601.6 183.49,602.21 Z" id="Path" fill="#FFD037"></path>
            <ellipse id="Oval" fill="#00BFA6" opacity="0.1" cx="197.56" cy="641.47" rx="28.63" ry="4.39"></ellipse>
            <path d="M212.3,613.64 L212.16,614.76 L211.97,616.34 L211.89,617 L211.7,618.58 L211.61,619.24 L211.42,620.82 L209.23,638.82 C209.04,640.42 206.42,641.67 203.23,641.67 L191.89,641.67 C188.73,641.67 186.11,640.42 185.89,638.82 L183.7,620.82 L183.51,619.24 L183.43,618.58 L183.23,617 L183.15,616.34 L182.96,614.76 L182.82,613.64 C182.71,612.73 184.13,611.97 185.92,611.97 L209.21,611.97 C210.99,611.97 212.41,612.73 212.3,613.64 Z" id="Path" fill="#65617D"></path>
            <polygon id="Path" fill="#9D9CB5" points="212.16 614.76 211.97 616.34 183.15 616.34 182.96 614.76"></polygon>
            <polygon id="Path" fill="#9D9CB5" points="211.89 617 211.7 618.58 183.43 618.58 183.23 617"></polygon>
            <polygon id="Path" fill="#9D9CB5" points="211.62 619.24 211.42 620.82 183.7 620.82 183.51 619.24"></polygon>
            <path d="M1028.56,582.29 C1028.56,582.29 1025.14,598.21 1040.35,600.09 L1041.29,598.32 C1041.29,598.32 1029.5,587.23 1028.56,582.29 Z" id="Path" fill="#00BFA6"></path>
            <path d="M1046.13,598.19 L1042.59,598.94 L1042.24,599.02 C1042.24,599.02 1032.8,591.36 1032.92,574.26 C1034.18151,576.781285 1035.69238,579.169874 1037.43,581.39 C1041.17,586.34 1045.42,592.94 1046.13,598.19 Z" id="Path" fill="#00BFA6"></path>
            <path d="M1047.32,599.83 C1046.7571,600.196475 1046.05854,600.288391 1045.42,600.08 C1036.34,597.96 1039.42,568.37 1039.42,568.37 C1039.92,568.6 1040.42,572.37 1042.56,577.23 C1046.21,585.76 1050.24,597.69 1047.32,599.83 Z" id="Path" fill="#00BFA6"></path>
            <path d="M1067.46,582.29 C1067.46,582.29 1068.05,598.21 1052.84,600.09 L1051.89,598.29 C1051.89,598.29 1066.52,587.23 1067.46,582.29 Z" id="Path" fill="#00BFA6"></path>
            <path d="M1063.1,574.29 C1063.22,591.39 1050.96,599.05 1050.96,599.05 L1050.6,598.97 L1047.07,598.22 C1047.77,592.97 1052.07,586.37 1055.76,581.42 C1057.87825,578.727082 1060.34675,576.329208 1063.1,574.29 Z" id="Path" fill="#00BFA6"></path>
            <path d="M1050.55,598.29 C1050.01234,598.954555 1049.32769,599.485161 1048.55,599.84 L1048.55,599.84 C1048.30914,599.948587 1048.05784,600.032353 1047.8,600.09 C1045.57,600.61 1044.8,599 1044.92,596.26 C1045.13,591.39 1048.19,582.94 1050.92,576.61 C1052.2348,573.504417 1054.1751,570.702892 1056.62,568.38 C1056.62,568.38 1056.48,591.41 1050.55,598.29 Z" id="Path" fill="#00BFA6"></path>
            <path d="M1048.01,557.99 C1048.01,557.99 1037.87,593.99 1046.6,599.37 C1055.33,604.75 1050.25,561.17 1048.01,557.99 Z" id="Path" fill="#00BFA6"></path>
            <path d="M1028.56,582.29 C1028.56,582.29 1025.14,598.21 1040.35,600.09 L1041.29,598.32 C1041.29,598.32 1029.5,587.23 1028.56,582.29 Z" id="Path" fill="#000000" opacity="0.1"></path>
            <path d="M1046.13,598.19 L1042.59,598.94 L1042.24,599.02 C1042.24,599.02 1032.8,591.36 1032.92,574.26 C1034.18151,576.781285 1035.69238,579.169874 1037.43,581.39 C1041.17,586.34 1045.42,592.94 1046.13,598.19 Z" id="Path" fill="#000000" opacity="0.1"></path>
            <path d="M1047.32,599.83 C1046.7571,600.196475 1046.05854,600.288391 1045.42,600.08 C1036.34,597.96 1039.42,568.37 1039.42,568.37 C1039.92,568.6 1040.42,572.37 1042.56,577.23 C1046.21,585.76 1050.24,597.69 1047.32,599.83 Z" id="Path" fill="#000000" opacity="0.1"></path>
            <path d="M1067.46,582.29 C1067.46,582.29 1068.05,598.21 1052.84,600.09 L1051.89,598.29 C1051.89,598.29 1066.52,587.23 1067.46,582.29 Z" id="Path" fill="#000000" opacity="0.1"></path>
            <path d="M1063.1,574.29 C1063.22,591.39 1050.96,599.05 1050.96,599.05 L1050.6,598.97 L1047.07,598.22 C1047.77,592.97 1052.07,586.37 1055.76,581.42 C1057.87825,578.727082 1060.34675,576.329208 1063.1,574.29 Z" id="Path" fill="#000000" opacity="0.1"></path>
            <path d="M1050.55,598.29 C1050.01234,598.954555 1049.32769,599.485161 1048.55,599.84 L1048.55,599.84 C1048.30914,599.948587 1048.05784,600.032353 1047.8,600.09 C1045.57,600.61 1044.8,599 1044.92,596.26 C1045.13,591.39 1048.19,582.94 1050.92,576.61 C1052.2348,573.504417 1054.1751,570.702892 1056.62,568.38 C1056.62,568.38 1056.48,591.41 1050.55,598.29 Z" id="Path" fill="#000000" opacity="0.1"></path>
            <path d="M1048.01,557.99 C1048.01,557.99 1037.87,593.99 1046.6,599.37 C1055.33,604.75 1050.25,561.17 1048.01,557.99 Z" id="Path" fill="#000000" opacity="0.1"></path>
            <path d="M1028.56,582.29 C1028.56,582.29 1026.56,598.21 1041.76,600.09 L1042.7,598.32 C1042.7,598.32 1029.5,587.23 1028.56,582.29 Z" id="Path" fill="#00BFA6"></path>
            <path d="M1047.54,598.19 L1044,598.94 L1043.65,599.02 C1043.65,599.02 1032.8,591.36 1032.89,574.29 C1032.89,574.29 1035.67,577.29 1038.81,581.42 C1042.58,586.34 1046.83,592.94 1047.54,598.19 Z" id="Path" fill="#00BFA6"></path>
            <path d="M1047.54,598.19 L1044,598.94 C1040.65,596 1039.32,588.32 1038.84,581.39 C1042.58,586.34 1046.83,592.94 1047.54,598.19 Z" id="Path" fill="#000000" opacity="0.1"></path>
            <path d="M1048.74,599.83 C1048.1735,600.196807 1047.47182,600.288651 1046.83,600.08 C1037.75,597.96 1039.41,568.37 1039.41,568.37 C1039.91,568.6 1041.87,572.37 1043.96,577.23 C1047.63,585.76 1051.65,597.69 1048.74,599.83 Z" id="Path" fill="#00BFA6"></path>
            <path d="M1067.46,582.29 C1067.46,582.29 1069.46,598.21 1054.26,600.09 L1053.32,598.32 C1053.32,598.32 1066.52,587.23 1067.46,582.29 Z" id="Path" fill="#00BFA6"></path>
            <path d="M1063.1,574.29 C1063.22,591.39 1052.37,599.05 1052.37,599.05 L1052.02,598.97 L1048.48,598.22 C1049.18,592.97 1053.48,586.37 1057.18,581.42 C1060.32,577.29 1063.1,574.29 1063.1,574.29 Z" id="Path" fill="#00BFA6"></path>
            <path d="M1057.18,581.39 C1056.72,587.85 1055.54,594.96 1052.67,598.28 C1052.47389,598.519337 1052.25631,598.740255 1052.02,598.94 L1048.48,598.19 C1049.18,592.94 1053.44,586.34 1057.18,581.39 Z" id="Path" fill="#000000" opacity="0.1"></path>
            <path d="M1051.96,598.29 C1051.42523,598.957498 1050.73982,599.488693 1049.96,599.84 L1049.96,599.84 C1049.72208,599.947275 1049.47423,600.031007 1049.22,600.09 C1046.98,600.61 1046.22,599 1046.33,596.26 C1046.55,591.39 1049.61,582.94 1052.33,576.61 C1054.33,572.06 1056.14,568.61 1056.62,568.379997 C1056.62,568.37 1057.89,591.41 1051.96,598.29 Z" id="Path" fill="#00BFA6"></path>
            <path d="M1048.74,599.83015 C1048.22298,599.835785 1047.71792,599.674446 1047.3,599.37 C1043.03,596.71 1042.94,586.73 1043.96,577.23 C1047.63,585.76 1051.65,597.69 1048.74,599.83015 Z" id="Path" fill="#000000" opacity="0.1"></path>
            <path d="M1051.96,598.29 C1051.47,599.36 1050.81,599.92 1049.96,599.84 L1049.96,599.84 C1049.52524,599.787446 1049.10988,599.629541 1048.75,599.38 C1047.63748,598.618058 1046.79127,597.527081 1046.33,596.26 C1046.55,591.39 1049.61,582.94 1052.33,576.61 C1053.31,585.38 1053.64,594.68 1051.96,598.29 Z" id="Path" fill="#000000" opacity="0.1"></path>
            <path d="M1048.01,557.99 C1048.01,557.99 1039.29,593.99 1048.01,599.37 C1056.73,604.75 1050.25,561.17 1048.01,557.99 Z" id="Path" fill="#00BFA6"></path>
            <polygon id="Path" fill="#4B4770" points="1064.75 597.61 1028.44 597.61 1028.44 603.62 1033.98 603.62 1034.12 604.33 1036.34 616 1057.45 616 1059.67 604.33 1059.8 603.62 1064.75 603.62"></polygon>
            <polygon id="Path" fill="#000000" opacity="0.1" points="1064.75 597.61 1028.44 597.61 1028.44 603.62 1033.98 603.62 1034.12 604.33 1036.34 616 1057.45 616 1059.67 604.33 1059.8 603.62 1064.75 603.62"></polygon>
            <polygon id="Path" fill="#4B4770" points="1061.69 601.14 1061.08 604.33 1058.86 616 1037.75 616 1035.53 604.33 1034.92 601.14"></polygon>
            <polygon id="Path" fill="#000000" opacity="0.1" points="1061.69 601.14 1061.08 604.33 1035.53 604.33 1034.92 601.14"></polygon>
            <rect id="Rectangle" fill="#4B4770" x="1029.85" y="597.61" width="36.31" height="6.01"></rect>
            <path d="M139.39,700.45 C138.432749,701.769718 137.665277,703.217143 137.11,704.75 C136.97,705.12 136.83,705.55 136.69,705.96 C136.43627,705.841513 136.171714,705.747747 135.9,705.68 C134.734389,705.385585 133.528398,705.284241 132.33,705.38 C132.33,704.91 132.39,704.38 132.4,703.91 C132.55,698.64 131.93,691.3 126.9,694.41 C122.08,697.41 125.52,702.41 128.63,705.61 C128.9,705.89 129.17,706.15 129.43,706.4 C126.59,708.4 126.05,713.13 125.58,718.04 C125.11,722.95 120.94,728.32 118.17,731.37 C117.89,731.68 117.64,731.96 117.39,732.22 C115.125155,730.412567 112.195793,729.659302 109.34,730.15 C109.23,729.72 109.1,729.27 108.97,728.8 C106.73,720.71 102.08,706.7 96.15,703.63 L96.93,702.63 C99.45,699.34 102.29,694.44 98.1,693.19 C93.91,691.94 93.53,697.43 93.76,701.55 C93.8,702.07 93.84,702.56 93.88,703.02 C92.1869446,703.097174 90.6013913,703.87185 89.5,705.16 L88.85,704.39 C85.45,700.39 79.22,694.02 77.33,698.83 C75.57,703.31 81.06,709.13 84.92,712.5 L85.16,712.71 C82.57,723.22 93.88,731.79 99.97,735.54 L100.76,736.02 C92.36,745.92 87.17,764.48 87.17,764.48 L110.69,768.68 C110.69,768.68 126.29,755.22 124.29,742.58 L124.45,742.58 C140.04,739.46 143.58,722.84 141.15,712.97 L141.43,712.86 C144.270388,711.698587 146.758897,709.816695 148.65,707.4 C153.01,701.35 143.89,694.51 139.39,700.45 Z" id="Path" fill="#00BFA6"></path>
            <path d="M139.39,700.45 C138.432749,701.769718 137.665277,703.217143 137.11,704.75 C136.97,705.12 136.83,705.55 136.69,705.96 C136.43627,705.841513 136.171714,705.747747 135.9,705.68 C134.734389,705.385585 133.528398,705.284241 132.33,705.38 C132.33,704.91 132.39,704.38 132.4,703.91 C132.55,698.64 131.93,691.3 126.9,694.41 C122.08,697.41 125.52,702.41 128.63,705.61 C128.9,705.89 129.17,706.15 129.43,706.4 C126.59,708.4 126.05,713.13 125.58,718.04 C125.11,722.95 120.94,728.32 118.17,731.37 C117.89,731.68 117.64,731.96 117.39,732.22 C115.125155,730.412567 112.195793,729.659302 109.34,730.15 C109.23,729.72 109.1,729.27 108.97,728.8 C106.73,720.71 102.08,706.7 96.15,703.63 L96.93,702.63 C99.45,699.34 102.29,694.44 98.1,693.19 C93.91,691.94 93.53,697.43 93.76,701.55 C93.8,702.07 93.84,702.56 93.88,703.02 C92.1869446,703.097174 90.6013913,703.87185 89.5,705.16 L88.85,704.39 C85.45,700.39 79.22,694.02 77.33,698.83 C75.57,703.31 81.06,709.13 84.92,712.5 L85.16,712.71 C82.57,723.22 93.88,731.79 99.97,735.54 L100.76,736.02 C92.36,745.92 87.17,764.48 87.17,764.48 L110.69,768.68 C110.69,768.68 126.29,755.22 124.29,742.58 L124.45,742.58 C140.04,739.46 143.58,722.84 141.15,712.97 L141.43,712.86 C144.270388,711.698587 146.758897,709.816695 148.65,707.4 C153.01,701.35 143.89,694.51 139.39,700.45 Z" id="Path" fill="#000000" opacity="0.1"></path>
            <path d="M92.57,707.29 L89.82,715.29 C89.82,715.29 88.29,714.21 86.36,712.51 C82.5,709.14 77.01,703.32 78.77,698.84 C80.66,694.03 86.89,700.38 90.29,704.4 C91.66,706 92.57,707.29 92.57,707.29 Z" id="Path" fill="#00BFA6"></path>
            <path d="M98.37,702.64 C97.5346461,703.741165 96.6399902,704.796058 95.69,705.8 C95.4552513,704.395837 95.2917089,702.980694 95.2,701.56 C94.97,697.44 95.41,691.97 99.54,693.2 C103.67,694.43 100.89,699.35 98.37,702.64 Z" id="Path" fill="#00BFA6"></path>
            <path d="M133.89,703.91 C133.81,706.56 133.55,708.68 133.55,708.68 C132.340389,707.733221 131.194566,706.70766 130.12,705.61 C127.01,702.38 123.57,697.4 128.39,694.41 C133.37,691.29 133.99,698.64 133.89,703.91 Z" id="Path" fill="#00BFA6"></path>
            <path d="M150.09,707.38 C148.198897,709.796695 145.710388,711.678587 142.87,712.84 C142.081534,713.181154 141.273434,713.475009 140.45,713.72 L137.21,709.17 C137.55019,707.666464 137.99801,706.189325 138.55,704.75 C139.105277,703.217143 139.872749,701.769718 140.83,700.45 C145.31,694.51 154.45,701.35 150.09,707.38 Z" id="Path" fill="#00BFA6"></path>
            <path d="M90.29,704.4 C91.66,706 92.57,707.24 92.57,707.24 L89.82,715.24 C89.82,715.24 88.29,714.16 86.36,712.46 C86.7888053,709.882056 87.8543488,707.451929 89.46,705.39 C89.73,705.06 90.02,704.72 90.29,704.4 Z" id="Path" fill="#000000" opacity="0.1"></path>
            <path d="M98.37,702.64 C97.5346461,703.741165 96.6399902,704.796058 95.69,705.8 C95.4552513,704.395837 95.2917089,702.980694 95.2,701.56 C96.3428948,701.583702 97.4503587,701.961008 98.37,702.64 L98.37,702.64 Z" id="Path" fill="#000000" opacity="0.1"></path>
            <path d="M111.89,734.6 L105.05,737.6 C105.05,737.6 103.56,736.88 101.41,735.54 C94.22,731.12 79.77,719.99 89.41,706.87 C99.05,693.75 107.18,717.28 110.41,728.79 C111.38,732.29 111.89,734.6 111.89,734.6 Z" id="Path" fill="#00BFA6"></path>
            <path d="M130.07,705.61 C131.064915,704.584755 132.412938,703.976894 133.84,703.91 C133.76,706.56 133.5,708.68 133.5,708.68 C132.290389,707.733221 131.144566,706.70766 130.07,705.61 Z" id="Path" fill="#000000" opacity="0.1"></path>
            <path d="M142.89,712.84 C142.101534,713.181154 141.293434,713.475009 140.47,713.72 L137.23,709.17 C137.57019,707.666464 138.01801,706.189325 138.57,704.75 C140.64,705.97 142.18,709.01 142.89,712.84 Z" id="Path" fill="#000000" opacity="0.1"></path>
            <path d="M125.89,742.56 C125.52,742.64 125.13,742.71 124.74,742.77 C101.81,746.25 117.18,733.88 117.18,733.88 C117.18,733.88 118.18,732.88 119.61,731.37 C122.38,728.32 126.54,722.98 127.02,718.04 C127.74,710.61 128.57,703.64 137.34,705.68 C145.95,707.7 147.6,738.21 125.89,742.56 Z" id="Path" fill="#00BFA6"></path>
            <rect id="Rectangle" fill="#D4DFEC" x="81.65" y="799.65" width="43.81" height="11.52"></rect>
            <rect id="Rectangle" fill="#D4DFEC" x="74.69" y="762.21" width="57.24" height="40.2"></rect>
            <rect id="Rectangle" fill="#000000" opacity="0.1" x="81.65" y="799.65" width="43.81" height="11.52"></rect>
            <rect id="Rectangle" fill="#000000" opacity="0.1" x="74.69" y="762.21" width="57.24" height="40.2"></rect>
            <rect id="Rectangle" fill="#D4DFEC" x="84.53" y="799.65" width="43.81" height="11.52"></rect>
            <path d="M110.41,728.8 C111.41,732.24 111.89,734.6 111.89,734.6 L105.05,737.6 C105.05,737.6 103.56,736.88 101.41,735.54 C104.09,732.15 107.11,729.59 110.41,728.8 Z" id="Path" fill="#000000" opacity="0.1"></path>
            <path d="M125.89,742.56 C125.52,742.64 125.13,742.71 124.74,742.77 C101.81,746.25 117.18,733.88 117.18,733.88 C117.18,733.88 118.18,732.88 119.61,731.37 C123.89,734.8 125.66,738.66 125.89,742.56 Z" id="Path" fill="#000000" opacity="0.1"></path>
            <path d="M88.61,764.49 C88.61,764.49 101.45,718.49 119.46,732.68 C137.47,746.87 112.13,768.68 112.13,768.68 L88.61,764.49 Z" id="Path" fill="#00BFA6"></path>
            <circle id="Oval" fill="#000000" opacity="0.1" cx="95.09" cy="714.08" r="1.44"></circle>
            <circle id="Oval" fill="#000000" opacity="0.1" cx="94.97" cy="720.8" r="1.44"></circle>
            <circle id="Oval" fill="#000000" opacity="0.1" cx="136.74" cy="715.4" r="1.44"></circle>
            <circle id="Oval" fill="#000000" opacity="0.1" cx="103.14" cy="749.85" r="1.44"></circle>
            <circle id="Oval" fill="#000000" opacity="0.1" cx="133.74" cy="726.56" r="1.44"></circle>
            <circle id="Oval" fill="#000000" opacity="0.1" cx="118.86" cy="741.45" r="1.44"></circle>
            <circle id="Oval" fill="#000000" opacity="0.1" cx="100.01" cy="716.96" r="1.44"></circle>
            <circle id="Oval" fill="#000000" opacity="0.1" cx="132.78" cy="719.72" r="1.44"></circle>
            <circle id="Oval" fill="#000000" opacity="0.1" cx="127.86" cy="730.88" r="1.44"></circle>
            <circle id="Oval" fill="#000000" opacity="0.1" cx="112.74" cy="748.77" r="1.44"></circle>
            <circle id="Oval" fill="#000000" opacity="0.1" cx="109.62" cy="741.69" r="1.44"></circle>
            <circle id="Oval" fill="#000000" opacity="0.1" cx="102.17" cy="725.72" r="1.44"></circle>
            <rect id="Rectangle" fill="#000000" opacity="0.1" x="84.53" y="799.65" width="43.81" height="4.21"></rect>
            <rect id="Rectangle" fill="#D4DFEC" x="77.57" y="762.21" width="57.24" height="40.2"></rect>
            <circle id="Oval" fill="#000000" opacity="0.1" cx="114.66" cy="755.25" r="1.44"></circle>
            <circle id="Oval" fill="#000000" opacity="0.1" cx="106.02" cy="757.05" r="1.44"></circle>
            <circle id="Oval" fill="#00BFA6" opacity="0.1" cx="50" cy="52" r="10.46"></circle>
            <circle id="Oval" fill="#00BFA6" opacity="0.1" cx="1054.57" cy="381.09" r="14"></circle>
            <circle id="Oval" fill="#00BFA6" opacity="0.1" cx="1081.56" cy="351.09" r="10.22"></circle>
            <circle id="Oval" fill="#00BFA6" opacity="0.1" cx="68" cy="14" r="14"></circle>
            <circle id="Oval" fill="#00BFA6" opacity="0.1" cx="14" cy="78" r="14"></circle>
        </g>
    </g>
</svg>