<?xml version="1.0" encoding="UTF-8"?>
<svg width="1040px" height="666px" viewBox="0 0 1040 666" version="1.1" xmlns="http://www.w3.org/2000/svg" xmlns:xlink="http://www.w3.org/1999/xlink">
    <!-- Generator: Sketch 55.2 (78181) - https://sketchapp.com -->
    <title>nonprofit-svg</title>
    <desc>Created with Sketch.</desc>
    <g id="Page-1" stroke="none" stroke-width="1" fill="none" fill-rule="evenodd">
        <g id="nonprofit-svg" transform="translate(0.000000, -1.000000)" fill-rule="nonzero">
            <circle id="Oval" fill="#2F2E41" cx="819.01892" cy="77.24749" r="45.74849"></circle>
            <path d="M800.9603,116.17383 C800.9603,116.17383 801.76291,142.65985 784.10559,150.68585 C766.44827,158.71185 853.12959,157.9093 853.12959,157.9093 C853.12959,157.9093 827.44623,126.6077 834.66967,116.17383 L800.9603,116.17383 Z" id="Path" fill="#FFB8B8"></path>
            <path d="M800.9603,116.17383 C800.9603,116.17383 801.76291,142.65985 784.10559,150.68585 C766.44827,158.71185 853.12959,157.9093 853.12959,157.9093 C853.12959,157.9093 827.44623,126.6077 834.66967,116.17383 L800.9603,116.17383 Z" id="Path" fill="#000000" opacity="0.1"></path>
            <circle id="Oval" fill="#FFB8B8" cx="818.61761" cy="100.12173" r="31.3016"></circle>
            <path d="M814.60459,145.06762 L787.71732,139.04808 L772.06652,155.50148 L754.4092,157.9093 L777.68475,253.4193 L776.88215,277.49745 C776.88215,277.49745 751.19878,296.75998 752.804,385.84915 C754.40922,474.93832 739.96232,651.51144 757.61963,653.11666 C775.27694,654.72188 812.19678,662.74792 814.60463,655.52447 C817.01248,648.30102 821.02547,363.37621 821.02547,363.37621 C821.02547,363.37621 820.22286,649.10363 832.26194,652.31405 C844.30102,655.52447 881.22085,661.94531 886.03648,651.51144 C890.85211,641.07757 886.03648,368.99444 886.03648,368.99444 C886.03648,368.99444 885.23388,298.36519 856.34009,277.49744 L853.12967,259.03752 L878.01043,157.90928 L857.94526,157.90928 L845.90619,137.04154 L821.02543,145.8702 L814.60459,145.06762 Z" id="Path" fill="#2F2E41"></path>
            <path d="M749.02756,254.47385 L714.62766,312.50611 C714.62766,312.50611 689.469,338.31975 702.05937,345.44995 C714.64974,352.58015 728.03549,315.39218 728.03549,315.39218 L765.0446,266.66569 L749.02756,254.47385 Z" id="Path" fill="#FFB8B8"></path>
            <path d="M889.947,255.70742 L917.76382,317.16733 C917.76382,317.16733 939.93456,345.58843 926.63714,351.29242 C913.33972,356.99641 904.12014,318.56305 904.12014,318.56305 L872.68765,266.06597 L889.947,255.70742 Z" id="Path" fill="#FFB8B8"></path>
            <path d="M764.84307,163.52753 L754.4092,157.9093 C754.4092,157.9093 735.94929,188.4083 739.15971,239.77502 C739.15971,239.77502 735.94929,267.06359 742.37013,268.6688 C748.79097,270.27401 767.25088,273.48443 768.05349,270.27401 C768.8561,267.06359 778.48736,207.67081 778.48736,207.67081 L764.84307,163.52753 Z" id="Path" fill="#2F2E41"></path>
            <path d="M868.37913,161.92232 L878.01039,157.90932 C885.030549,166.383862 889.485658,176.686305 890.85207,187.60571 C893.25989,206.06562 904.49636,265.4584 895.6677,267.06361 C886.83904,268.66882 865.97131,271.87924 865.97131,267.06361 C865.97131,262.24798 858.74787,206.06561 858.74787,206.06561 L868.37913,161.92232 Z" id="Path" fill="#2F2E41"></path>
            <polygon id="Path" fill="#2F2E41" points="849.215 71.96 825.999 59.799 793.939 64.774 787.306 94.071 803.818 93.436 808.43 82.672 808.43 93.258 816.049 92.965 820.471 75.83 823.235 94.071 850.321 93.518"></polygon>
            <circle id="Oval" fill="#2F2E41" cx="821.42673" cy="25.07815" r="18.45992"></circle>
            <path d="M798.15118,19.45991 C798.151753,10.3491597 804.797617,2.60064332 813.80198,1.2124 C806.61815,0.113045998 799.457762,3.33099468 795.510243,9.43288595 C791.562723,15.5347772 791.562723,23.3850228 795.510243,29.486914 C799.457762,35.5888053 806.61815,38.806754 813.80198,37.7074 C804.797631,36.319146 798.151775,28.570648 798.15118,19.45991 L798.15118,19.45991 Z" id="Path" fill="#2F2E41"></path>
            <ellipse id="Oval" fill="#00BFA6" cx="497.94403" cy="581.50783" rx="7.87557" ry="5.36068"></ellipse>
            <path d="M497.944,581.50785 C497.944,581.50785 535.353,646.50615 534.36853,655.88735" id="Path" fill="#00BFA6"></path>
            <path d="M522.5552,585.99161 L522.5552,624.01447 C514.71911,613.15669 499.08948,601.97647 469.80076,592.9008 L522.5552,665.3628 L522.5552,665.91324 C522.5552,665.91324 522.65485,665.85951 522.84037,665.75453 L522.93022,665.87793 C522.93022,665.87793 523.00555,665.77729 523.14022,665.58272 C529.2865,662.02249 580.83454,629.92109 522.5552,585.99161 Z" id="Path" fill="#3F3D56"></path>
            <rect id="Rectangle" fill="#3F3D56" x="493" y="664.45816" width="547.00001" height="2"></rect>
            <path d="M634,665.70847 L614.25885,665.70847 L614.25885,645.96732 L634,645.96732 L634,665.70847 Z M615.7774,664.18992 L632.48145,664.18992 L632.48145,647.48585 L615.7774,647.48585 L615.7774,664.18992 Z" id="Shape" fill="#3F3D56"></path>
            <circle id="Oval" fill="#00BFA6" cx="1002.3101" cy="635.10351" r="10.07861"></circle>
            <path d="M1002.3101,664.21949 C986.229777,664.21949 973.1941,651.183813 973.1941,635.10349 C973.1941,619.023167 986.229777,605.98749 1002.3101,605.98749 C1018.39042,605.98749 1031.4261,619.023167 1031.4261,635.10349 C1031.40811,651.176356 1018.38297,664.201502 1002.3101,664.21949 L1002.3101,664.21949 Z M1002.3101,608.22722 C987.466735,608.22722 975.43381,620.260145 975.43381,635.10351 C975.43381,649.946875 987.466735,661.9798 1002.3101,661.9798 C1017.15347,661.9798 1029.18639,649.946875 1029.18639,635.10351 C1029.16942,620.267179 1017.14643,608.244188 1002.3101,608.22722 L1002.3101,608.22722 Z" id="Shape" fill="#2F2E41"></path>
            <rect id="Rectangle" fill="#00BFA6" x="36" y="41.14715" width="673" height="402"></rect>
            <polygon id="Path" fill="#000000" opacity="0.1" points="456.48 41.147 36 329.807 36 260.667 355.77 41.147"></polygon>
            <polygon id="Path" fill="#000000" opacity="0.1" points="658 41.147 658 48.137 82.6 443.147 36 443.147 36 406.007 567.48 41.147"></polygon>
            <rect id="Rectangle" fill="#3F3D56" x="93.37646" y="372.14715" width="2" height="71"></rect>
            <circle id="Oval" fill="#3F3D56" cx="94.5" cy="372.14715" r="25"></circle>
            <rect id="Rectangle" fill="#3F3D56" x="232.37646" y="311.14715" width="2" height="132"></rect>
            <circle id="Oval" fill="#3F3D56" cx="233.5" cy="314.14715" r="25"></circle>
            <rect id="Rectangle" fill="#3F3D56" x="371.37646" y="200.14715" width="2" height="243"></rect>
            <circle id="Oval" fill="#3F3D56" cx="372.5" cy="200.14715" r="25"></circle>
            <rect id="Rectangle" fill="#3F3D56" x="510.37598" y="273.14715" width="2" height="170"></rect>
            <circle id="Oval" fill="#3F3D56" cx="511.5" cy="273.14715" r="25"></circle>
            <rect id="Rectangle" fill="#3F3D56" x="649.37598" y="128.14715" width="2" height="315"></rect>
            <circle id="Oval" fill="#3F3D56" cx="650.5" cy="128.14715" r="25"></circle>
            <rect id="Rectangle" fill="#3F3D56" x="36" y="371.14715" width="6" height="2"></rect>
            <path d="M79.6001,373.14715 L70.19971,373.14715 L70.19971,371.14715 L79.6001,371.14715 L79.6001,373.14715 Z M60.7998,373.14715 L51.3999,373.14715 L51.3999,371.14715 L60.7998,371.14715 L60.7998,373.14715 Z" id="Shape" fill="#3F3D56"></path>
            <rect id="Rectangle" fill="#3F3D56" x="89" y="371.14715" width="6" height="2"></rect>
            <rect id="Rectangle" fill="#3F3D56" x="36" y="313.14715" width="6" height="2"></rect>
            <path d="M211.8667,315.14715 L199.7334,315.14715 L199.7334,313.14715 L211.8667,313.14715 L211.8667,315.14715 Z M187.6001,315.14715 L175.4668,315.14715 L175.4668,313.14715 L187.6001,313.14715 L187.6001,315.14715 Z M163.3335,315.14715 L151.2002,315.14715 L151.2002,313.14715 L163.3335,313.14715 L163.3335,315.14715 Z M139.06641,315.14715 L126.93311,315.14715 L126.93311,313.14715 L139.06641,313.14715 L139.06641,315.14715 Z M114.7998,315.14715 L102.6665,315.14715 L102.6665,313.14715 L114.7998,313.14715 L114.7998,315.14715 Z M90.5332,315.14715 L78.3999,315.14715 L78.3999,313.14715 L90.5332,313.14715 L90.5332,315.14715 Z M66.2666,315.14715 L54.1333,315.14715 L54.1333,313.14715 L66.2666,313.14715 L66.2666,315.14715 Z" id="Shape" fill="#3F3D56"></path>
            <rect id="Rectangle" fill="#3F3D56" x="224" y="313.14715" width="6" height="2"></rect>
            <rect id="Rectangle" fill="#3F3D56" x="36" y="272.14715" width="6" height="2"></rect>
            <path d="M476.919,274.14715 L464.83789,274.14715 L464.83789,272.14715 L476.919,272.14715 L476.919,274.14715 Z M452.75689,274.14715 L440.67578,274.14715 L440.67578,272.14715 L452.75689,272.14715 L452.75689,274.14715 Z M428.59478,274.14715 L416.51367,274.14715 L416.51367,272.14715 L428.59478,272.14715 L428.59478,274.14715 Z M404.43218,274.14715 L392.35107,274.14715 L392.35107,272.14715 L404.43218,272.14715 L404.43218,274.14715 Z M380.27007,274.14715 L368.189,274.14715 L368.189,272.14715 L380.27007,272.14715 L380.27007,274.14715 Z M356.10796,274.14715 L344.02686,274.14715 L344.02686,272.14715 L356.10796,272.14715 L356.10796,274.14715 Z M331.94585,274.14715 L319.86475,274.14715 L319.86475,272.14715 L331.94585,272.14715 L331.94585,274.14715 Z M307.78374,274.14715 L295.70264,274.14715 L295.70264,272.14715 L307.78374,272.14715 L307.78374,274.14715 Z M283.62163,274.14715 L271.54053,274.14715 L271.54053,272.14715 L283.62163,272.14715 L283.62163,274.14715 Z M259.45952,274.14715 L247.37842,274.14715 L247.37842,272.14715 L259.45952,272.14715 L259.45952,274.14715 Z M235.29741,274.14715 L223.21631,274.14715 L223.21631,272.14715 L235.29741,272.14715 L235.29741,274.14715 Z M211.1353,274.14715 L199.0542,274.14715 L199.0542,272.14715 L211.1353,272.14715 L211.1353,274.14715 Z M186.97319,274.14715 L174.8916,274.14715 L174.8916,272.14715 L186.97319,272.14715 L186.97319,274.14715 Z M162.8106,274.14715 L150.72949,274.14715 L150.72949,272.14715 L162.8106,272.14715 L162.8106,274.14715 Z M138.64849,274.14715 L126.56738,274.14715 L126.56738,272.14715 L138.64849,272.14715 L138.64849,274.14715 Z M114.48638,274.14715 L102.40527,274.14715 L102.40527,272.14715 L114.48638,272.14715 L114.48638,274.14715 Z M90.32427,274.14715 L78.24316,274.14715 L78.24316,272.14715 L90.32427,272.14715 L90.32427,274.14715 Z M66.16216,274.14715 L54.08105,274.14715 L54.08105,272.14715 L66.16216,272.14715 L66.16216,274.14715 Z" id="Shape" fill="#3F3D56"></path>
            <rect id="Rectangle" fill="#3F3D56" x="489" y="272.14715" width="6" height="2"></rect>
            <rect id="Rectangle" fill="#3F3D56" x="36" y="199.14715" width="6" height="2"></rect>
            <path d="M338.63965,201.14715 L326.27979,201.14715 L326.27979,199.14715 L338.63965,199.14715 L338.63965,201.14715 Z M313.91992,201.14715 L301.55957,201.14715 L301.55957,199.14715 L313.91992,199.14715 L313.91992,201.14715 Z M289.19971,201.14715 L276.83984,201.14715 L276.83984,199.14715 L289.19971,199.14715 L289.19971,201.14715 Z M264.48,201.14715 L252.11963,201.14715 L252.11963,199.14715 L264.48,199.14715 L264.48,201.14715 Z M239.75977,201.14715 L227.3999,201.14715 L227.3999,199.14715 L239.75977,199.14715 L239.75977,201.14715 Z M215.04004,201.14715 L202.67969,201.14715 L202.67969,199.14715 L215.04004,199.14715 L215.04004,201.14715 Z M190.31986,201.14715 L177.96,201.14715 L177.96,199.14715 L190.31986,199.14715 L190.31986,201.14715 Z M165.59961,201.14715 L153.23975,201.14715 L153.23975,199.14715 L165.59961,199.14715 L165.59961,201.14715 Z M140.87988,201.14715 L128.52,201.14715 L128.52,199.14715 L140.87988,199.14715 L140.87988,201.14715 Z M116.15967,201.14715 L103.7998,201.14715 L103.7998,199.14715 L116.15967,199.14715 L116.15967,201.14715 Z M91.43994,201.14715 L79.08008,201.14715 L79.08008,199.14715 L91.43994,199.14715 L91.43994,201.14715 Z M66.71973,201.14715 L54.35986,201.14715 L54.35986,199.14715 L66.71973,199.14715 L66.71973,201.14715 Z" id="Shape" fill="#3F3D56"></path>
            <rect id="Rectangle" fill="#3F3D56" x="351" y="199.14715" width="6" height="2"></rect>
            <rect id="Rectangle" fill="#3F3D56" transform="translate(38.999974, 130.137389) rotate(-0.195830) translate(-38.999974, -130.137389) " x="35.9999593" y="129.137384" width="6.00003" height="2.00001"></rect>
            <path d="M53.82715,131.08904 L53.82031,129.08904 L65.64404,129.05047 L65.65088,131.05047 L53.82715,131.08904 Z M77.47415,131.01238 L77.46732,129.01238 L89.291,128.97385 L89.29783,130.97385 L77.47415,131.01238 Z M101.12115,130.93523 L101.11432,128.93523 L112.93805,128.89666 L112.94488,130.89666 L101.12115,130.93523 Z M124.76861,130.85857 L124.76178,128.85857 L136.58502,128.82 L136.59186,130.82 L124.76861,130.85857 Z M148.41561,130.78142 L148.40877,128.78142 L160.23201,128.74285 L160.23885,130.74285 L148.41561,130.78142 Z M172.06261,130.70476 L172.05577,128.70476 L183.8795,128.66619 L183.88634,130.66619 L172.06261,130.70476 Z M195.70961,130.62761 L195.70278,128.62761 L207.52651,128.58904 L207.53334,130.58904 L195.70961,130.62761 Z M219.35661,130.55095 L219.34977,128.55095 L231.1735,128.51238 L231.18034,130.51238 L219.35661,130.55095 Z M243.00361,130.47381 L242.99677,128.47381 L254.8205,128.43523 L254.82734,130.43523 L243.00361,130.47381 Z M266.65107,130.39715 L266.64423,128.39715 L278.46748,128.35857 L278.47431,130.35857 L266.65107,130.39715 Z M290.29807,130.32 L290.29124,128.32 L302.11448,128.28142 L302.12131,130.28142 L290.29807,130.32 Z M313.94507,130.24334 L313.93824,128.24334 L325.76197,128.20476 L325.7688,130.20476 L313.94507,130.24334 Z M337.59207,130.16619 L337.58523,128.16619 L349.40896,128.12761 L349.4158,130.12761 L337.59207,130.16619 Z M361.23907,130.08953 L361.23223,128.08953 L373.05596,128.05095 L373.0628,130.05095 L361.23907,130.08953 Z M384.88653,130.01238 L384.87969,128.01238 L396.70294,127.97381 L396.70977,129.97381 L384.88653,130.01238 Z M408.53353,129.93572 L408.5267,127.93572 L420.34994,127.89715 L420.35678,129.89715 L408.53353,129.93572 Z M432.18053,129.85857 L432.17369,127.85857 L443.99693,127.82 L444.00377,129.82 L432.18053,129.85857 Z M455.82753,129.78191 L455.82069,127.78191 L467.64442,127.74334 L467.65126,129.74334 L455.82753,129.78191 Z M479.47401,129.70476 L479.46815,127.70476 L491.2914,127.66619 L491.29726,129.66619 L479.47401,129.70476 Z M503.12147,129.6281 L503.11561,127.6281 L514.93886,127.58953 L514.94472,129.58953 L503.12147,129.6281 Z M526.76796,129.55095 L526.7621,127.55095 L538.58632,127.51238 L538.59218,129.51238 L526.76796,129.55095 Z M550.41542,129.47429 L550.40956,127.47429 L562.2328,127.43572 L562.23866,129.43572 L550.41542,129.47429 Z M574.0619,129.39715 L574.05604,127.39715 L585.88026,127.35857 L585.88612,129.35857 L574.0619,129.39715 Z M597.70936,129.32049 L597.70351,127.32049 L609.52675,127.28191 L609.53261,129.28191 L597.70936,129.32049 Z M621.35683,129.24334 L621.35097,127.24334 L633.17421,127.20476 L633.18007,129.20476 L621.35683,129.24334 Z" id="Shape" fill="#3F3D56"></path>
            <rect id="Rectangle" fill="#3F3D56" transform="translate(648.000004, 128.156901) rotate(-0.167860) translate(-648.000004, -128.156901) " x="644.999989" y="127.156896" width="6.00003" height="2.00001"></rect>
            <rect id="Rectangle" fill="#3F3D56" x="0" y="119.14715" width="20" height="20"></rect>
            <rect id="Rectangle" fill="#3F3D56" x="0" y="190.14715" width="20" height="20"></rect>
            <rect id="Rectangle" fill="#3F3D56" x="0" y="263.14715" width="20" height="20"></rect>
            <rect id="Rectangle" fill="#3F3D56" x="0" y="304.14715" width="20" height="20"></rect>
            <rect id="Rectangle" fill="#3F3D56" x="0" y="362.14715" width="20" height="20"></rect>
            <rect id="Rectangle" fill="#00BFA6" transform="translate(965.289207, 324.400722) rotate(104.722595) translate(-965.289207, -324.400722) " x="939.289143" y="298.400658" width="52.0001287" height="52.0001287"></rect>
            <path d="M923.167,346.43007 C920.829994,340.228373 923.962944,333.306387 930.16464,330.969379 C936.366337,328.632372 943.288324,331.76532 945.625333,337.967016 C947.962342,344.168712 944.829395,351.0907 938.6277,353.42771 C932.426268,355.756524 925.50999,352.62616 923.167,346.43007 Z M943.75381,338.67227 C941.806305,333.504188 936.037982,330.893395 930.8699,332.840901 C925.701819,334.788406 923.091026,340.556728 925.038531,345.72481 C926.986036,350.892892 932.754358,353.503685 937.92244,351.55618 C943.085968,349.603819 945.694658,343.840132 943.7538,338.67227 L943.75381,338.67227 Z" id="Shape" fill="#3F3D56"></path>
            <ellipse id="Oval" fill="#2F2E41" cx="782" cy="656.14715" rx="17" ry="9"></ellipse>
            <ellipse id="Oval" fill="#2F2E41" cx="860" cy="656.14715" rx="17" ry="9"></ellipse>
            <path d="M550.17236,225.4186 C543.544943,225.4186 538.17236,220.046017 538.17236,213.4186 C538.17236,206.791183 543.544943,201.4186 550.17236,201.4186 C556.799777,201.4186 562.17236,206.791183 562.17236,213.4186 C562.164783,220.042876 556.796636,225.411023 550.17236,225.4186 L550.17236,225.4186 Z M550.17236,203.4186 C544.649513,203.4186 540.17236,207.895753 540.17236,213.4186 C540.17236,218.941447 544.649513,223.4186 550.17236,223.4186 C555.695207,223.4186 560.17236,218.941447 560.17236,213.4186 C560.166221,207.898298 555.692662,203.424739 550.17236,203.4186 Z" id="Shape" fill="#FFFFFF"></path>
            <path d="M283.17236,406.4186 C276.544943,406.4186 271.17236,401.046017 271.17236,394.4186 C271.17236,387.791183 276.544943,382.4186 283.17236,382.4186 C289.799777,382.4186 295.17236,387.791183 295.17236,394.4186 C295.164783,401.042876 289.796636,406.411023 283.17236,406.4186 L283.17236,406.4186 Z M283.17236,384.4186 C277.649513,384.4186 273.17236,388.895753 273.17236,394.4186 C273.17236,399.941447 277.649513,404.4186 283.17236,404.4186 C288.695207,404.4186 293.17236,399.941447 293.17236,394.4186 C293.166221,388.898298 288.692662,384.424739 283.17236,384.4186 L283.17236,384.4186 Z" id="Shape" fill="#FFFFFF"></path>
            <path d="M165.17236,115.4186 C158.544943,115.4186 153.17236,110.046017 153.17236,103.4186 C153.17236,96.791183 158.544943,91.4186 165.17236,91.4186 C171.799777,91.4186 177.17236,96.791183 177.17236,103.4186 C177.164783,110.042876 171.796636,115.411023 165.17236,115.4186 L165.17236,115.4186 Z M165.17236,93.4186 C159.649513,93.4186 155.17236,97.8957525 155.17236,103.4186 C155.17236,108.941447 159.649513,113.4186 165.17236,113.4186 C170.695207,113.4186 175.17236,108.941447 175.17236,103.4186 C175.166221,97.8982975 170.692662,93.4247394 165.17236,93.4186 Z" id="Shape" fill="#FFFFFF"></path>
        </g>
    </g>
</svg>